<svg width="1135" height="319" viewBox="0 0 1135 319" fill="none" xmlns="http://www.w3.org/2000/svg">
<path d="M0 277.233L264.732 282.174L375.3 299.096H625.005L625.561 301.381L583.14 312.127C583.14 313.609 583.14 314.968 583.14 316.388C587.362 317.398 591.667 318.018 596.002 318.241C647.143 316.574 698.284 314.968 749.363 312.621C753.815 312.621 757.773 306.445 762.411 304.283C769.213 300.948 776.572 295.946 783.621 295.946C813.057 295.946 838.905 286.62 865.805 275.318C883.058 267.969 905.629 270.995 925.356 272.848C986.886 279.024 1048.29 286.435 1109.64 293.229C1117.94 294.428 1126.4 293.688 1134.37 291.067C1120.27 282.544 1106.36 273.836 1092.14 265.56C1051.32 241.35 1019.78 207.444 990.348 171.006C980.825 159.334 969.694 149.02 959.429 138.027C949.164 127.034 937.971 117.708 930.365 105.603C906.433 67.4973 874.71 36.741 841.503 6.78766C831.732 -2.10572 822.951 -3.52619 816.767 10.2462C805.512 34.95 781.333 35.8147 759.813 41.9906C753.01 43.2719 746.559 45.988 740.891 49.9576C721.061 67.9914 702.035 86.4163 683.814 105.232C672.93 116.473 664.334 129.936 652.894 140.621C642.156 150.039 630.468 158.318 618.017 165.324C615.544 166.868 608.618 163.966 605.649 161.187C584.439 140.559 563.723 119.437 542.759 98.4389C529.959 85.6546 525.815 86.0869 515.117 100.353C498.73 122.402 488.774 122.093 474.18 97.6977C466.079 84.2342 459.586 69.9059 451.918 56.1953C445.734 45.1404 439.056 42.6082 428.172 52.3045C405.168 72.891 381.545 92.6746 357.305 111.655C335.414 128.948 334.919 128.33 315.254 108.012C302.144 123.081 291.879 140.929 278.769 155.875C278.708 156.061 216.992 254.011 0 277.233Z" fill="#50585C"/>
</svg>
