<svg width="650" height="478" viewBox="0 0 650 478" fill="none" xmlns="http://www.w3.org/2000/svg">
<path d="M-15.7071 430.917C-16.0734 430.439 -16.4906 429.971 -16.8976 429.503C-17.8282 429.111 -18.7206 428.634 -19.5635 428.079C-20.1639 428.079 -20.9474 427.956 -21.3544 428.628C-21.2119 430.419 -21.273 432.219 -21.1509 434.01C-21.5782 434.387 -22.0463 434.783 -22.5347 435.18C-22.578 435.88 -22.8832 436.537 -23.3895 437.022C-23.5828 437.622 -23.7557 438.222 -24 438.833V677H829V219.833C828.479 219.114 828.263 218.218 828.4 217.341C828.492 217.292 828.595 217.266 828.7 217.266C828.804 217.266 828.908 217.292 829 217.341V1.51595C828.705 0.885153 828.461 0.345922 828.278 0H827.535C827.199 0.478186 826.833 1.01742 826.446 1.45491C826.446 2.2078 826.446 2.97086 826.385 3.73392C825.215 4.02897 824.034 4.31385 822.854 4.6496L823.098 5.66702C824.197 7.07105 823.912 8.93293 824.767 10.4285C823.846 10.4723 822.961 10.7992 822.233 11.3646C820.886 11.0697 819.485 11.1223 818.163 11.5172C816.891 11.8631 815.752 11.0186 814.612 10.5608C814.531 10.3573 814.358 9.95035 814.266 9.74686C813.615 9.74686 812.923 9.80791 812.231 9.91982C811.498 10.2963 811.763 11.1916 811.631 11.8631C812.203 12.5337 812.605 13.3332 812.801 14.193C812.618 15.2104 812.272 16.2278 812.068 17.2452C812.651 17.8421 813.188 18.4815 813.676 19.158C814.337 19.3411 814.948 19.5344 815.579 19.7277C814.032 20.0533 811.071 20.267 811.448 22.5358C812.412 23.2719 813.433 23.9318 814.5 24.5096C813.605 24.9674 812.638 25.293 811.712 25.761C811.315 26.3003 811.03 26.9311 810.695 27.5212C810.745 27.8467 810.837 28.5386 810.888 28.8438H806.818C807.049 30.0182 807.366 31.1743 807.764 32.303C807.164 32.4963 806.574 32.6693 805.922 32.8524C805.648 34.2972 806.411 35.6096 806.94 36.9221C808.975 37.0951 810.715 38.2651 812.546 39.0485C812.933 41.6531 811.865 44.2678 812.608 46.8216C813.756 46.3687 814.784 45.6546 815.609 44.7359C816.525 45.7533 816.912 47.4829 815.609 48.3375C813.523 49.5889 810.99 49.8026 808.649 49.9247C808.466 48.9683 808.273 48.0018 808.059 47.0454C802.096 49.3855 800.448 47.4117 798.657 49.5177C798.932 50.0671 799.166 50.6165 799.39 51.1659C800.407 51.5322 801.343 51.8985 802.29 52.2749C802.406 53.4162 802.631 54.5438 802.961 55.6426C802.208 56.4056 801.435 57.1687 800.651 57.9318C798.26 54.2385 796.734 55.3475 795.167 55.7138C793.973 55.0843 792.684 54.6547 791.351 54.442C790.863 54.7574 790.415 55.1542 789.927 55.5408C788.674 55.325 787.401 55.2465 786.131 55.3068C786.131 56.5583 786.131 57.9318 787.373 58.5422C787.434 59.1832 787.464 59.8242 787.464 60.4753H790.965C791.209 60.7704 791.443 61.0654 791.646 61.3605C791.565 61.7878 791.473 62.2151 791.382 62.6526C790.975 64.2194 793.366 64.9316 792.827 66.5289C792.76 67.3013 792.511 68.0468 792.1 68.7046C791.69 69.3624 791.13 69.9138 790.466 70.3137C790.527 71.2701 790.598 72.2265 790.669 73.193C789.971 73.9193 789.172 74.5427 788.299 75.0447C788.299 75.2889 788.299 75.7773 788.299 76.0621C789.123 76.4691 790.334 76.4793 790.71 77.4458C791.193 78.6613 791.829 79.8102 792.603 80.8644C791.585 81.7902 790.222 81.78 788.909 81.8818C789.551 83.1088 790.326 84.2619 791.219 85.3207C791.565 87.3555 791.361 90.0923 793.468 91.2522C794.404 91.5778 794.302 92.5341 794.404 93.3786C794.624 94.6326 794.753 95.9009 794.79 97.1736C793.966 98.1299 792.491 97.4584 791.361 97.6518C789.651 97.5477 787.958 98.0483 786.579 99.066V100.195L787.596 100.419C788.054 100.765 788.441 101.498 789.092 101.243C790.222 100.48 791.351 99.0354 792.908 99.6561C793.326 100.494 793.621 101.389 793.783 102.312C794.487 101.577 794.964 100.655 795.157 99.6561C796.174 100.673 795.798 102.088 795.716 103.339C795.775 104.312 796.087 105.252 796.622 106.066C795.472 111.336 797.08 108.386 794.963 115.223C786.538 109.82 787.637 108.782 786.101 106.452L783.648 105.944C783.292 104.621 783.302 102.973 782.081 102.078C781.064 101.935 780.616 103.166 779.924 103.716L778.459 104.061C778.228 103.593 777.964 103.125 777.665 102.657C777.238 102.566 776.78 102.474 776.302 102.393C775.284 101.172 773.636 102.169 772.232 102.169C769.454 102.739 766.9 100.826 764.091 101.376C764.091 100.714 764.091 100.053 764.091 99.4017C763.145 98.8116 762.189 97.9265 760.947 98.1503C759.441 98.9337 759.105 100.714 759.136 102.281C758.575 101.904 757.991 101.565 757.386 101.264C756.657 101.835 756.028 102.522 755.524 103.298C753.877 103.148 752.223 103.503 750.782 104.316C751.128 104.947 751.454 105.577 751.8 106.198C752.513 106.224 753.223 106.298 753.926 106.422C754.476 106.88 754.476 107.643 754.639 108.263C756.45 108.762 758.027 107.338 758.953 105.944H759.97C760.184 106.371 760.388 106.798 760.561 107.226L761.721 107.409C761.707 109.637 762.05 111.852 762.738 113.971C763.699 113.666 764.64 113.302 765.557 112.883C765.781 112.384 765.984 111.865 766.167 111.428C766.371 112.944 765.872 114.653 766.656 116.047C767.62 116.001 768.554 115.698 769.362 115.172C770.02 113.93 770.568 112.633 771 111.295C771.381 111.994 771.888 112.615 772.496 113.127C772.893 112.445 773.249 111.753 773.595 111.092L774.419 111.631C774.587 113.254 774.313 114.892 773.626 116.372C774.246 117.034 774.877 117.664 775.478 118.316C776.079 118.605 776.654 118.945 777.197 119.333C776.922 120.1 776.582 120.842 776.18 121.551C779.446 124.461 777.991 122.64 777.533 128.622C779.1 128.083 779.914 126.587 781.278 125.692C782.173 125.264 782.295 124.206 782.478 123.372C783.075 125.363 783.474 127.407 783.669 129.477C784.457 129.052 785.206 128.558 785.907 128.001C787.078 127.92 788.238 127.9 789.387 127.92C789.794 128.734 790.212 129.558 790.608 130.372C791.758 130.067 792.135 128.998 792.501 128.022C793.519 128.347 794.149 129.344 794.872 130.057C796.052 131.216 795.655 132.987 795.696 134.462C793.142 134.564 790.161 136.415 787.983 134.238L789.499 133.913C789.721 133.218 789.778 132.482 789.667 131.762C789.556 131.041 789.279 130.357 788.858 129.761C787.845 130.563 786.688 131.163 785.449 131.532C784.447 131.009 783.374 130.632 782.265 130.413C781.094 130.138 779.639 128.876 778.886 130.413C776.363 128.561 776.078 128.154 772.954 130.158C771.461 129.462 770.135 128.452 769.067 127.198C768.646 126.347 768.354 125.438 768.202 124.501L765.567 124.562C765.658 123.698 765.719 122.823 765.75 121.968L764.936 121.48L762.077 122.497C761.095 121.962 759.973 121.739 758.861 121.856C758.983 122.578 759.075 123.301 759.187 124.013C759.055 124.725 758.933 125.437 758.78 126.15C760.001 126.353 761.222 126.546 762.423 126.719C762.423 127.33 762.423 127.95 762.423 128.571C760.265 128.998 760.672 131.623 760.031 133.18C759.116 133.18 758.21 133.18 757.264 133.18C757.955 134.158 758.739 135.068 759.604 135.896C759.075 136.202 758.525 136.507 757.945 136.812L758.027 137.718C758.648 138.094 759.228 138.481 759.797 138.857C759.36 139.468 758.536 140.058 758.882 140.892C759.37 142.652 760.316 144.249 760.754 145.979L759.462 146.081C759.144 145.056 758.561 144.133 757.773 143.405C757.71 142.906 757.622 142.41 757.508 141.92C755.969 141.964 754.431 141.792 752.939 141.411C753.224 144.463 753.519 147.699 754.974 150.496C753.591 150.83 752.156 150.886 750.752 150.659C750.467 151.056 750.182 151.463 749.897 151.89C747.556 151.748 746.396 149.591 745.827 147.587C745.257 145.582 743.446 144.829 741.919 143.893C741.919 143.13 741.919 142.367 741.919 141.604C740.548 141.213 739.133 140.994 737.707 140.953C737.707 139.864 737.768 138.776 737.707 137.697L735.468 137.219C736.201 137.219 736.893 137.097 737.574 137.005C738.236 136.619 738.073 135.815 738.165 135.194L735.641 134.35C735.56 133.567 735.478 132.783 735.366 132.01C735.041 131.806 734.695 131.603 734.349 131.41C734.218 130.083 733.849 128.79 733.26 127.594H731.317L730.574 128.5L729.617 128.347C729.404 127.706 729.149 127.065 728.895 126.424C716.532 119.73 724.764 127.767 720.103 130.026C720.151 130.904 720.369 131.764 720.744 132.559C722.335 133.444 723.722 134.654 724.815 136.11C726.432 136.629 728.06 137.128 729.627 137.728C728.03 138.644 726.27 138.176 724.601 137.728C724.509 138.369 724.408 139.01 724.275 139.661C724.949 140.099 725.657 140.484 726.392 140.811C726.095 143.874 726.29 146.966 726.972 149.967L728.264 149.855C728.508 148.635 728.732 147.424 728.936 146.203C730.284 146.016 731.647 145.958 733.006 146.03C733.006 148.065 732.192 150.181 732.629 152.216C734.41 155.126 733.321 158.819 731.754 161.596C731.673 162.237 731.561 162.889 731.418 163.54C731.093 163.031 730.757 162.522 730.401 162.003C729.882 161.902 729.383 161.81 728.783 161.719C728.447 161.037 728.091 160.355 727.765 159.684C727.928 158.856 728.06 158.032 728.162 157.211C726.188 156.825 724.235 156.387 722.24 156.072C720.205 154.495 718.017 152.877 717.153 150.395C715.687 150.456 715.453 152.104 714.802 153.121C714.011 154.595 713.549 156.223 713.449 157.893C714.566 157.523 715.756 157.429 716.918 157.616C718.08 157.804 719.18 158.269 720.124 158.972C718.415 159.656 716.601 160.038 714.761 160.101C713.999 159.867 713.22 159.694 712.431 159.582C712.431 161.24 713.347 162.634 713.988 164.14C714.629 165.646 716.155 166.378 717.295 167.406C717.295 168.169 717.295 168.922 717.295 169.685C717.956 169.97 718.577 170.265 719.198 170.57C718.18 171.048 717.163 171.659 717.163 172.951L719.961 173.053C719.335 174.255 718.846 175.525 718.506 176.837C720.47 179.218 719.778 182.413 719.666 185.231C722.199 184.285 723.298 181.538 725.588 180.246C726.962 180.897 726.148 182.148 723.807 186.513C722.79 188.222 723.644 190.227 723.441 192.078C724.168 193.16 724.479 194.468 724.316 195.761C723.95 195.436 723.573 195.1 723.176 194.744H721.619C721.914 195.994 722.098 197.267 722.169 198.549C722.983 199.882 723.838 201.174 724.662 202.486L721.457 202.558C720.073 203.86 718.15 204.593 717.203 206.342L717.865 207.279C719.107 207.258 720.346 207.169 721.579 207.014L722.271 207.645C721.813 208.103 721.314 208.581 720.826 209.049C720.755 210.158 720.673 211.277 720.612 212.396C719.837 212.427 719.065 212.512 718.302 212.65C717.885 213.007 717.865 213.668 717.58 214.126C718.801 214.329 719.991 214.523 721.182 214.757C721.274 216.1 721.274 217.443 721.274 218.826C722.264 218.172 723.19 217.426 724.041 216.598C724.264 218.017 724.865 219.349 725.781 220.454C726.351 222.408 727.511 224.391 729.526 225.104C729.617 225.541 731.062 232.5 730.431 234.26C732.466 238.33 730.35 240.294 729.678 242.4L730.92 242.329C731.317 241.545 731.734 240.772 732.131 240.019C733.202 240.676 734.204 241.44 735.122 242.298C734.766 248.016 734.898 247.1 737.33 248.199C737.432 247.11 737.595 246.022 737.717 244.943L738.938 245.126C739.038 246.438 738.763 247.751 738.144 248.911C738.182 250.618 738.563 252.299 739.264 253.856C740.037 254.324 741.105 253.764 741.96 253.734C741.879 257.376 735.946 255.596 732.304 254.426C731.516 253.371 730.633 252.391 729.668 251.496L728.539 251.821C727.114 250.387 726.504 248.423 725.781 246.581L727.949 245.045C728.047 244.521 728.112 243.991 728.142 243.458C726.725 243.672 725.366 244.167 724.143 244.913L721.345 244.129C720.704 239.185 717.112 239.225 715.24 237.679L715.524 236.773C715.087 236.773 714.619 236.773 714.13 236.773C714.049 237.791 713.113 238.045 712.299 238.31C711.79 239.022 711.281 239.754 710.803 240.518C709.738 241.055 708.636 241.517 707.506 241.901C707.048 240.599 707.364 238.534 705.665 238.116C703.629 237.353 702.439 235.268 700.404 234.433C700.894 235.981 701.104 237.604 701.025 239.225C703.429 240.098 705.625 241.459 707.476 243.224C706.692 245.483 706.835 248.108 705.339 250.081C704.789 248.342 704.321 246.296 702.602 245.33C701.922 245.707 701.278 246.147 700.679 246.642L699.661 246.805C699.384 247.424 698.952 247.961 698.406 248.364C697.861 248.767 697.22 249.022 696.547 249.105C695.911 250.501 695.771 252.074 696.151 253.561C696.877 253.793 697.564 254.136 698.186 254.578C698.288 255.251 698.329 255.933 698.308 256.613C694.238 257.631 695.113 256.857 691.826 256.084C691.826 256.633 691.907 257.183 691.918 257.742C694.523 260.174 693.352 258.607 694.543 264.63C695.184 265.098 695.815 265.577 696.425 266.045C694.741 266.462 693.227 267.389 692.091 268.7C685.171 269.779 691.368 267.255 681.997 269.717C683.228 272.353 686.464 271.966 688.763 271.284C688.717 272.785 688.881 274.285 689.252 275.741H690.819C690.88 274.896 690.941 274.042 690.951 273.197L691.969 272.566C691.663 274.031 691.195 275.476 690.839 276.931L693.576 277.012C693.991 277.547 694.24 278.191 694.293 278.866C694.345 279.54 694.199 280.215 693.871 280.807C693.047 282.028 691.46 280.99 690.31 280.868C690.127 280.075 690.106 279.108 689.292 278.691C688.797 279.31 688.267 279.901 687.705 280.461C687.158 279.789 686.566 279.153 685.935 278.559C682.678 277.48 685.507 279.892 679.392 274.489C678.995 274.438 678.568 274.398 678.099 274.367C677.764 273.94 677.387 273.533 677.001 273.126L675.983 273.075C676.532 274.794 675.729 276.555 676.146 278.274H677.245C677.804 278.914 678.395 279.525 679.015 280.105C678.863 280.777 678.669 281.458 678.456 282.14C677.723 281.977 677.041 281.804 676.258 281.652C676.36 280.634 676.543 279.617 676.716 278.6C675.942 278.783 675.138 278.996 674.335 279.22C673.887 278.538 673.449 277.857 673.022 277.185C672.513 277.002 672.004 276.819 671.414 276.646C670.946 278.945 672.788 280.512 673.449 282.527C674.61 283.324 675.583 284.366 676.298 285.579C676.085 286.139 675.586 286.647 675.556 287.288C675.81 287.828 676.207 288.306 676.482 288.774C675.802 289.282 675.095 289.754 674.365 290.188C673.704 289.71 673.032 289.232 672.33 288.753C671.974 289.415 671.567 290.076 671.313 290.788C671.512 291.515 671.831 292.203 672.259 292.823L674.294 291.277C674.843 291.572 675.383 291.877 675.881 292.192C675.973 293.21 676.054 294.278 676.248 295.295C676.787 295.459 677.304 295.692 677.784 295.987C677.784 297.33 677.642 298.663 677.54 300.006C675.678 300.006 673.846 299.589 671.984 299.487C671.16 299.396 670.967 300.362 670.437 300.85C668.993 300.698 667.792 299.833 666.428 299.355C665.34 299.752 664.271 300.26 663.111 300.566C662.237 300.185 661.317 299.922 660.374 299.782C660.506 300.932 660.516 302.092 660.598 303.241C661.941 303.547 663.488 302.356 664.597 303.435C665.073 303.714 665.422 304.168 665.568 304.7C665.714 305.232 665.647 305.8 665.38 306.283C665.095 307.392 663.712 307.006 662.826 307.077C662.531 307.85 662.236 308.634 661.921 309.417C663.399 309.4 664.874 309.284 666.337 309.071C666.856 309.498 667.181 310.404 666.276 310.597C664.892 311.615 663.325 310.821 661.992 310.15C661.921 310.923 662.104 311.839 661.503 312.469C660.126 311.682 658.531 311.357 656.955 311.544C656.619 311.187 656.243 310.831 655.856 310.526C654.784 310.277 653.789 309.77 652.956 309.051C651.552 310.455 649.609 309.468 647.869 309.275C647.085 309.01 645.833 309.102 645.559 308.115C645.044 307.252 644.746 306.277 644.691 305.274C644.636 304.271 644.826 303.27 645.243 302.356C645.855 302.623 646.444 302.939 647.004 303.302C647.299 304.141 647.493 305.012 647.584 305.897L649.395 305.805C649.927 304.75 650.301 303.622 650.504 302.458C647.95 302.946 646.088 300.891 643.768 300.291C643.412 300.861 643.391 301.99 642.486 302.02C641.078 302.182 639.688 302.475 638.334 302.895C638.307 303.774 638.072 304.634 637.649 305.404C637.227 306.175 636.628 306.835 635.902 307.331C635.434 306.965 634.885 306.599 634.386 306.243C634.216 306.789 633.929 307.291 633.546 307.716C633.164 308.141 632.693 308.479 632.168 308.705C631.903 307.962 631.608 307.23 631.293 306.497C631.73 306.131 632.168 305.765 632.555 305.408C632.555 305.134 632.494 304.584 632.483 304.32L631.323 304.696C630.947 304.523 630.54 304.35 630.123 304.198C629.756 304.892 629.29 305.53 628.739 306.09C627.987 306.348 627.209 306.526 626.419 306.619C626.622 307.128 626.795 307.637 626.948 308.156C626.877 308.481 626.744 309.173 626.673 309.458C627.101 309.895 627.477 310.333 627.854 310.77C627.792 312.372 627.536 313.961 627.09 315.501C627.518 315.868 627.976 316.234 628.362 316.62C628.131 317.429 627.828 318.216 627.457 318.971C626.938 318.686 626.439 317.831 625.707 318.208C624.738 318.744 623.735 319.217 622.705 319.622C622.471 321.372 620.955 322.44 619.561 323.305C619.001 323.213 618.421 323.051 617.821 322.908C617.592 321.806 617.429 320.692 617.332 319.571C618.705 318.475 619.945 317.222 621.026 315.837C621.158 316.234 621.413 317.038 621.535 317.434C622.603 315.929 622.766 314.077 623.132 312.347C623.909 311.73 624.573 310.983 625.096 310.139C625.096 308.298 625.788 306.497 625.442 304.666C620.049 307.565 620.141 305.174 617.76 310.435C617.159 310.048 616.528 309.671 615.898 309.295C614.147 309.295 612.316 307.565 610.708 308.817L609.691 309.01C609.396 306.914 607.513 305.612 606.485 303.862C607.888 304.216 609.335 304.36 610.779 304.289C610.942 303.74 611.034 303.221 611.135 302.702C610.79 301.909 610.433 301.125 610.057 300.352L607.004 300.474L606.078 299.731C605.617 300.192 605.124 300.621 604.603 301.013C604.012 300.957 603.424 300.869 602.843 300.749C602.629 300.057 602.385 299.375 602.13 298.714H604.298C604.552 298.185 604.735 297.696 604.929 297.157C607.299 296.079 609.904 296.14 612.357 295.478C613.455 294.461 614.951 294.38 616.284 294.013C618.034 293.098 619.408 291.216 621.626 291.612C623.834 289.109 622.461 289.893 626.144 288.499C626.663 288.499 627.162 288.591 627.62 288.591C628.637 287.685 629.136 286.291 630.336 285.599C632.27 284.582 633.959 282.649 636.36 282.924C637.011 283.534 637.561 284.226 638.171 284.867C638.446 284.44 638.701 284.022 638.924 283.605L641.326 284.012C641.071 282.659 640.725 281.336 640.522 279.943H642.048C642.76 282.232 644.887 284.358 643.951 286.881C643.174 286.423 642.334 286.08 641.458 285.864C642.476 287.532 643.493 289.73 645.406 290.402C647.441 287.644 644.389 284.785 644.704 281.245C644.938 279.546 645.131 277.562 646.739 276.616C646.764 276.195 646.764 275.774 646.739 275.354C644.053 274.805 642.964 272.119 640.827 270.725C640.508 270.094 640.169 269.473 639.81 268.863C640.206 268.497 640.573 268.13 640.919 267.774C641.932 268.063 642.886 268.528 643.737 269.148L644.938 268.547C645.376 270.257 644.887 272.485 646.424 273.706C647.227 271.803 648.347 270.053 649.029 268.11C650.992 269.545 650.677 272.129 650.667 274.214L648.489 274.784C648.489 275.018 648.489 275.507 648.489 275.751C652.671 277.989 650.921 281.947 651.064 283.351C652.159 283.699 653.303 283.867 654.452 283.849C655.347 281.113 654.818 278.213 654.991 275.395C655.734 275.608 656.436 275.832 657.138 276.056C657.26 275.517 657.352 274.978 657.423 274.448C658.739 274.922 660.018 275.494 661.249 276.158C661.77 276.934 662.337 277.678 662.948 278.386L663.437 276.687C664.18 278.335 664.78 280.034 665.645 281.621C665.726 281.428 665.36 282.069 667.955 276.534C667.761 276.137 667.548 275.751 667.303 275.354L666.042 275.049C666.377 273.594 667.69 272.76 668.769 271.895C669.356 271.94 669.938 272.035 670.509 272.18C670.451 270.954 670.595 269.727 670.936 268.547C670.804 268.128 670.648 267.717 670.468 267.316C669.055 268.087 667.433 268.386 665.838 268.171L665.116 268.486C665.045 268.792 664.892 269.402 664.821 269.707C664.2 269.178 663.559 268.69 662.898 268.14C662.012 269.158 661.554 270.409 660.71 271.437C658.159 272.598 655.438 273.343 652.651 273.645C652.315 270.543 652.213 267.421 652.346 264.305C653.689 262.982 655.52 263.633 657.087 264.04C657.456 262.434 658.41 261.023 659.763 260.082L659.163 259.065L657.006 259.716C656.406 259.33 655.785 258.933 655.144 258.556C654.686 259.492 654.198 260.418 653.648 261.324C653.19 261.324 652.712 261.324 652.203 261.324C651.136 262.809 649.642 263.934 647.919 264.549C646.624 264.258 645.274 264.322 644.012 264.732C644.124 263.827 644.266 262.911 644.297 262.016C642.76 262.565 642.262 264.203 641.244 265.271C639.209 266.441 636.859 266.869 634.864 268.12C633.542 267.876 633.206 266.757 633.196 265.546L634.651 266.034C635.587 265.719 636.503 265.383 637.398 265.017C637.632 262.575 640.227 262.148 642.119 261.517C641.916 259.584 639.952 257.112 641.967 255.596L642.048 254.273C639.651 253.894 637.196 254.227 634.987 255.229C634.63 254.487 634.223 253.744 633.806 253.022L631.11 253.154C629.86 252.779 628.556 252.62 627.253 252.686C627.579 251.719 628.271 250.753 628.057 249.705C626.5 248.382 624.404 248.209 622.44 248.169C622.919 246.887 623.224 245.544 623.763 244.302C624.396 243.719 625.058 243.169 625.747 242.654C624.73 241.942 623.621 241.209 622.552 240.467C622.552 240.131 622.41 239.449 622.369 239.114C621.026 239.337 619.693 239.643 618.299 239.948C618.299 239.114 618.238 238.279 618.156 237.455C617.139 237.303 615.226 238.198 614.87 236.763C614.846 235.739 614.938 234.715 615.145 233.711C612.825 232.846 610.403 233.548 608.022 233.976C607.879 233.101 607.757 232.215 607.594 231.351C605.509 231.798 603.056 232.429 601.174 231.015C601.784 229.997 602.405 228.98 603.026 227.963L604.705 229.489C606.404 223.557 605.844 224.768 603.382 221.99C604.674 221.238 605.804 222.448 606.74 223.171C606.882 224.005 607.025 224.91 607.951 225.205C608.49 224.086 608.968 222.967 609.518 221.838C610.057 222.357 610.535 222.855 611.054 223.405C611.186 223.903 611.308 224.422 611.431 224.9C612.079 224.901 612.724 224.805 613.344 224.615C613.557 225.562 613.7 226.528 613.964 227.464C614.898 227.979 615.768 228.601 616.559 229.316C618.675 229.082 619.266 224.066 619.51 222.316C620.901 222.574 622.309 222.727 623.722 222.774C623.357 219.837 621.905 217.144 619.652 215.225C618.694 215.297 617.747 215.485 616.834 215.784C616.566 215.518 616.284 215.267 615.989 215.031C614.836 215.026 613.683 215.1 612.54 215.255C611.919 215.723 611.42 216.354 610.769 216.842C609.986 216.527 609.752 215.499 609.294 214.807C609.232 214.124 609.133 213.445 608.999 212.773L610.21 212.854C610.82 213.464 611.42 214.075 612.011 214.696C613.751 213.19 616.081 212.661 617.729 211.053C617.556 210.28 618.014 209.09 617.119 208.683C612.489 207.472 609.996 206.943 605.59 208.337C604.067 207.477 602.494 206.709 600.879 206.037C601.754 203.555 606.384 204.196 609.019 204.603C609.019 203.585 609.1 202.619 609.1 201.632C610.233 200.621 611.397 199.665 612.591 198.763C612.489 198.091 612.346 197.43 612.184 196.728C611.268 196.728 610.332 196.728 609.375 196.809C608.704 197.532 607.961 198.203 607.218 198.844C606.719 198.844 606.2 198.844 605.651 198.915C604.706 198.389 603.67 198.044 602.598 197.898C602.425 198.61 602.263 199.322 602.069 200.045C600.822 201.848 599.044 203.217 596.982 203.962C595.201 204.053 595.964 201.245 595.476 198C598.589 197.857 597.806 197.45 600.451 199.892C600.848 199.668 601.215 199.465 601.56 199.251C601.693 198.753 601.795 198.234 601.876 197.776C603.016 197.115 604.45 196.453 604.766 195.049C605.163 192.099 603.84 192.882 599.912 193.665C599.851 193.116 599.739 192.587 599.627 192.048C598.194 191.822 596.739 191.764 595.292 191.875C594.723 191.336 594.163 190.786 593.593 190.227C593.593 188.141 592.738 186.157 592.525 184.122C594.835 184.061 597.083 184.702 599.373 184.56C599.617 183.98 599.831 183.4 600.034 182.82C599.954 182.41 599.849 182.006 599.719 181.609C600.525 180.579 601.432 179.632 602.425 178.781C602.444 177.921 602.376 177.062 602.222 176.217C600.588 176.692 599.021 177.376 597.562 178.252C597.093 178.028 596.544 177.824 596.035 177.621C595.649 178.832 594.326 178.455 593.318 178.577C590.184 183.247 591.497 181.182 586.135 182.474C585.486 181.273 585.173 179.92 585.229 178.557C593.369 177.183 589.299 177.672 593.084 176.135C593.084 175.199 593.084 174.284 593.084 173.358L591.609 173.276C592.23 171.058 592.24 168.739 592.677 166.49L591.375 166.358C591.375 165.809 591.375 165.259 591.294 164.71C590.048 164.18 588.653 164.119 587.366 164.537C586.175 164.852 585.463 163.601 584.822 162.817C586.145 162.237 586.165 160.732 586.257 159.511C585.899 159.174 585.456 158.941 584.975 158.837C584.495 158.733 583.995 158.762 583.53 158.921C582.858 158.778 582.187 158.636 581.495 158.504C580.853 157.835 580.173 157.203 579.46 156.611C578.747 156.408 578.157 157.049 577.506 157.313C577.577 158.331 577.628 159.348 577.659 160.315L575.898 160.365C575.746 160.935 575.532 161.495 575.4 162.085C575.013 164.018 577.76 163.896 578.32 165.463C577.109 165.534 575.878 165.544 574.636 165.544C574.636 165.88 574.535 166.561 574.504 166.877L573.263 166.938C573.456 168.006 573.629 169.064 573.751 170.133C572.998 170.306 572.215 170.489 571.431 170.713C570.484 170.456 569.561 170.115 568.674 169.695L568.918 168.393C567.928 168.221 567.038 167.684 566.425 166.887C565.166 166.926 563.914 167.097 562.691 167.396C562.5 167.665 562.258 167.893 561.978 168.067C561.699 168.242 561.388 168.36 561.063 168.413C561.07 169.483 561.248 170.544 561.592 171.557C562.858 172.064 564.071 172.695 565.214 173.439C565.304 172.898 565.327 172.348 565.285 171.801H565.784C565.784 172.503 565.784 173.195 565.784 173.897L566.7 173.643L565.916 173.978C565.57 175.474 565.489 176.664 565.072 178.893C565.652 179.422 566.211 179.91 566.761 180.5C566.786 181.008 566.786 181.518 566.761 182.026C568.023 182.158 570.129 184.387 572.612 176.766C573.68 178.201 575.42 178.669 576.997 179.289C575.888 179.584 573.945 179.595 574.118 181.243C574.118 182.881 572.439 183.746 571.92 185.19C571.92 186.106 572.937 186.544 573.385 187.174C573.201 187.728 572.883 188.228 572.459 188.629C572.744 189.647 573.069 190.664 573.405 191.682L575.155 191.193C575.296 191.596 575.399 192.012 575.461 192.434C573.314 193.208 570.892 192.77 568.806 193.899C568.745 195.456 570.068 196.27 571.045 197.226C570.108 197.45 569.152 197.664 568.175 197.847C567.748 196.982 567.31 196.128 566.883 195.263H565.184L564.42 195.995C562.714 195.269 561.191 194.17 559.964 192.78C558.712 191.458 556.728 191.763 555.079 191.651C552.79 191.285 551.233 193.381 549.076 193.788C549.076 194.123 548.995 194.805 548.974 195.131C550.216 196.148 552.648 196.148 552.637 198.183L553.828 199.007C554.935 198.702 555.972 198.184 556.881 197.481C557.572 197.562 558.234 197.633 558.916 197.725C559.038 198.386 559.129 199.058 559.2 199.76C565.143 199.322 563.637 199.088 566.659 201.194C565.639 201.935 564.532 202.547 563.362 203.016C562.619 203.382 563.067 204.399 562.904 205.05C564.58 204.95 566.225 204.561 567.768 203.901C568.255 207.347 568.166 210.851 567.504 214.268C565.127 214.136 562.809 213.479 560.717 212.345C560.89 214.105 561.632 216.161 560.076 217.544C560.025 217.748 559.913 218.165 559.852 218.368C560.442 218.521 560.991 218.714 561.541 218.836C562.507 217.992 563.057 216.456 564.593 216.618C564.339 217.931 564.074 219.254 563.779 220.576L564.98 220.668C565.998 219.528 566.425 217.88 567.646 216.893C567.745 218.663 567.255 220.417 566.252 221.878C565.031 222.072 563.484 221.878 562.558 222.896C562.646 224.419 562.612 225.947 562.457 227.464C561.848 227.296 561.282 226.999 560.797 226.594C560.313 226.188 559.921 225.684 559.648 225.114C558.464 224.861 557.394 224.233 556.596 223.323L555.649 223.099C553.085 221.482 550.897 218.643 551.579 215.438C553.044 214.329 554.957 214.533 556.667 214.777C556.992 213.678 557.949 212.04 556.819 211.135C555.12 211.043 553.39 211.257 551.671 211.297C550.928 211.297 550.541 212.02 549.982 212.416C548.801 213.637 546.929 213.19 545.413 213.556C544.507 213.658 544.446 214.746 544.09 215.408L543.49 214.868C543.49 214.309 543.49 213.749 543.49 213.2C545.138 212.05 547.194 211.857 548.954 210.982C549.026 210.534 549.064 210.082 549.066 209.629C548.032 208.699 546.911 207.871 545.718 207.156C547.064 206.435 548.33 205.572 549.493 204.582C550.623 200.94 548.649 201.53 548.689 200.34L549.381 199.526C549.381 199.271 549.381 198.773 549.381 198.508C548.527 198.6 547.641 198.712 546.746 198.834C546.254 199.594 545.714 200.321 545.128 201.011C544.355 201.184 543.561 201.388 542.757 201.601C542.197 202.893 541.322 204.043 540.834 205.386C540.661 207.014 541.383 208.56 541.638 210.148C539.747 209.285 537.692 208.844 535.614 208.856C535.614 209.181 535.614 209.873 535.614 210.148C536.773 211.405 537.512 212.99 537.73 214.685C530.445 212.813 532.439 208.357 524.625 210.188C525.123 211.338 525.642 212.457 526.151 213.607C527.006 213.515 527.82 213.414 528.634 213.281C530.314 213.622 531.902 214.315 533.294 215.316C532.124 217.931 532.734 220.831 532.938 223.588C531.577 223.036 530.132 222.72 528.664 222.652C527.779 225.623 526.914 225.124 529.895 228.96C530.028 230.343 530.191 231.727 530.353 233.111C530.516 234.494 529.336 235.898 529.855 237.384C530.353 237.496 530.821 237.618 531.259 237.74C531.89 237.465 532.511 237.191 533.091 236.916C533.764 239.028 533.648 241.313 532.765 243.346C531.761 242.774 530.661 242.391 529.519 242.217C527.82 242.685 527.382 244.19 520.117 244.892C519.751 245.32 519.374 245.737 518.957 246.174C518.296 245.991 517.614 245.798 516.922 245.615C516.922 245.34 517.003 244.77 517.034 244.485L518.346 244.343C518.54 243.682 518.723 243.02 518.855 242.359L516.759 242.115C516.062 241.622 515.335 241.174 514.582 240.772C513.645 238.422 514.286 235.807 514.022 233.335C515.609 233.731 516.006 235.644 517.563 236.021C518.177 234.208 518.496 232.308 518.509 230.394C515.63 228.939 512.404 228.543 509.351 227.566C508.984 226.438 508.966 225.225 509.301 224.086C510.268 224.474 511.321 224.601 512.353 224.453C512.763 223.959 513.065 223.386 513.241 222.769C513.416 222.153 513.46 221.506 513.371 220.871C513.055 220.535 512.719 220.19 512.353 219.854C511.26 219.525 510.101 219.48 508.985 219.722L506.451 219.315C506.394 217.487 506.244 215.664 506.004 213.851C506.95 212.712 508.843 213.851 509.728 212.661C511.051 211.308 512.404 209.792 512.129 207.747C510.684 207.421 509.128 206.729 508.802 205.101C508.416 204.613 507.911 204.231 507.336 203.992C506.761 203.754 506.134 203.666 505.515 203.738C505.515 203.453 505.515 202.893 505.566 202.609L506.462 201.876C506.268 199.18 506.767 199.597 504.04 196.84C498.647 198.203 499.97 202.944 500.306 205.071C500.163 205.793 500.031 206.505 499.837 207.238H496.51C496.529 207.94 496.512 208.643 496.459 209.344L495.666 209.944C495.004 209.547 494.312 209.161 493.63 208.794C493.63 209.425 493.63 210.046 493.569 210.687L492.002 210.738C492.399 212.437 493.254 214.034 493.193 215.825C494.433 216.545 495.632 217.333 496.785 218.185C497.1 221.085 495.309 223.527 495.086 226.325C494.75 226.07 494.383 225.826 493.987 225.582C491.728 226.477 486.538 222.865 485.154 222.53C479.65 223.995 481.522 223.547 480.789 225.297C481.807 225.968 482.733 226.64 483.71 227.332C484.147 227.973 484.585 228.604 484.992 229.245L486.131 229.326C486.131 229.479 486.131 229.784 486.08 229.936C485.724 229.936 485.317 229.886 484.9 229.875C483.394 229.031 481.654 228.471 480.474 227.128C479.293 225.785 477.421 225.775 475.813 225.796C474.908 227.994 474.439 230.347 474.43 232.724C476.035 232.606 477.648 232.779 479.192 233.233C480.85 233.782 482.438 232.816 484.045 232.602C483.374 235.125 483.872 238.055 482.193 240.243C482.346 240.792 482.448 241.352 482.57 241.911C482.855 243.804 485.175 243.946 486.508 244.831C488.06 243.699 489.929 243.083 491.85 243.071C490.947 245.195 489.907 247.258 488.736 249.247C489.122 249.791 489.537 250.314 489.978 250.814C490.863 250.58 491.921 250.712 492.582 250.061C492.979 249.181 493.289 248.264 493.508 247.324C493.915 248.81 493.305 250.305 493.376 251.811C493.63 252.574 494.058 253.276 494.322 254.029C493.724 254.574 493.092 255.08 492.43 255.545C491.958 254.404 491.267 253.367 490.395 252.493C489.667 252.861 489.004 253.346 488.431 253.927C487.658 253.795 486.874 253.683 486.05 253.581C486.579 255.056 487.2 256.491 487.769 257.946C488.7 257.346 489.768 256.996 490.873 256.929C489.794 262.443 491.585 262.555 488.207 263.806C488.553 264.325 488.868 264.824 489.163 265.373C488.268 264.936 487.403 264.437 486.528 263.918C485.065 264.707 483.461 265.198 481.807 265.363C479.945 265.485 478.754 267.001 477.33 268.069C477.614 269.087 478.286 270.053 478.144 271.122C477.365 272.427 476.888 273.891 476.75 275.405C477.614 275.354 478.49 275.273 479.314 275.201C478.571 277.938 478.215 280.889 476.424 283.188C475.783 282.832 474.938 282.649 474.552 281.926C474.135 281.418 474.033 280.522 473.31 280.339C473.056 280.96 472.812 281.611 472.547 282.262C470.919 282.313 469.942 280.868 468.528 280.329C467.846 281.072 467.164 281.896 466.004 281.52C462.952 285.945 466.004 287.268 463.165 289.923H461.995C461.843 290.391 461.629 290.88 461.415 291.378C463.745 291.592 464.926 293.83 466.981 294.634C467.409 293.963 467.826 293.311 468.243 292.681C468.63 293.371 468.902 294.12 469.047 294.899C468.548 295.845 467.907 296.72 467.388 297.676C465.984 297.676 464.56 297.676 463.115 297.737C463.491 299.579 463.959 301.39 464.468 303.191C465.302 303.038 466.137 302.906 466.93 302.794C467.348 303.811 467.734 304.757 468.101 305.744C469.169 306.121 470.207 306.528 471.224 306.965C471.465 307.338 471.682 307.725 471.876 308.125C471.601 309.239 471.261 310.337 470.858 311.411C469.963 313.497 470.288 315.817 469.729 317.994C469.352 319.276 470.197 320.354 470.889 321.331C470.765 321.833 470.615 322.329 470.441 322.816L471.55 322.705C471.725 322.169 472.007 321.674 472.38 321.25C472.753 320.827 473.208 320.484 473.717 320.242C474.031 321.576 474.192 322.942 474.196 324.312C472.558 324.163 470.912 324.136 469.271 324.231C466.971 325.055 469.891 329.623 463.725 327.944C462.25 326.489 460.856 324.943 459.36 323.498C459.146 322.705 458.933 321.911 458.709 321.117C457.933 321.168 457.154 321.168 456.379 321.117C455.918 319.922 455.644 318.662 455.564 317.383C454.79 318.032 454.129 318.806 453.611 319.673C452.586 318.855 451.4 318.262 450.131 317.933C450.802 319.52 451.962 321.067 451.545 322.878C451.382 323.641 452.502 323.651 452.909 324.027C453.672 323.457 454.415 322.918 455.168 322.41C455.509 322.73 455.831 323.07 456.134 323.427C456.246 323.946 456.328 324.444 456.389 324.994C455.836 326.62 455.19 328.213 454.455 329.765C454.681 330.926 455.001 332.066 455.412 333.174C453.519 332.858 453.112 333.51 452.125 333.031C450.283 332.258 448.533 331.2 446.508 330.925C446.724 330.4 447.088 329.949 447.556 329.627C448.024 329.305 448.576 329.127 449.144 329.114C449.286 328.331 449.388 327.558 449.5 326.774L448.879 326.276C448.43 326.581 447.961 326.857 447.475 327.1C446.834 326.754 446.213 326.296 445.562 325.889C445.369 326.51 445.125 327.141 444.87 327.761C444.372 327.252 443.802 326.744 443.252 326.255C443.802 325.238 444.382 324.221 444.992 323.254C444.372 323.081 443.771 322.908 443.1 322.766C442.418 321.646 443.72 320.853 444.239 320.008C444.707 319.673 445.145 319.337 445.542 318.991C445.043 318.615 444.524 318.238 443.965 317.872L441.634 317.75C441.573 318.045 441.451 318.625 441.38 318.92L440.363 319.296C440.88 320.283 441.159 321.377 441.177 322.491L439.956 322.613C440.354 323.392 440.846 324.12 441.421 324.78C441.471 325.27 441.494 325.763 441.492 326.255C441.085 326.591 440.668 326.947 440.21 327.273C439.742 326.255 439.375 325.116 438.857 324.078C437.839 324.221 438.165 325.747 437.839 326.5C436.638 326.011 435.478 325.431 434.298 324.841C434.065 325.971 433.763 327.086 433.392 328.178C436.801 328.27 439.325 330.986 441.156 333.591C440.678 334.496 440.19 335.412 439.66 336.318C436.608 334.283 433.718 330.742 435.499 339.604C436.079 339.818 436.659 340.031 437.178 340.255C437.096 340.886 436.964 341.537 436.832 342.188C437.381 342.681 437.803 343.299 438.063 343.989C437.344 344.897 436.565 345.757 435.733 346.563L436.262 347.458C436.262 348.73 436.262 350.002 436.343 351.274C435.265 351.416 434.166 351.609 433.067 351.833C433.067 350.419 434.084 348.964 433.667 347.58C432.715 347.892 431.922 348.564 431.459 349.452C430.808 348.873 430.126 348.323 429.424 347.784C429.2 347.184 428.966 346.594 428.702 346.003C428.081 346.003 427.196 346.451 426.829 345.678C426.697 344.66 426.738 343.643 426.677 342.626L424.591 343.073C423.654 342.58 422.587 342.392 421.538 342.534C421.538 343.267 421.538 344.009 421.538 344.752C421.929 344.938 422.309 345.145 422.678 345.373C423.553 347.611 425.944 348.639 428.03 349.442C427.521 351.721 428.091 354.041 428.193 356.33C428.937 355.774 429.572 355.084 430.065 354.295C430.879 354.407 431.652 354.55 432.416 354.702C432.484 356.715 432.223 358.726 431.642 360.654C431.398 359.954 431.224 359.232 431.123 358.497C429.762 358.687 428.376 358.594 427.053 358.223C427.15 359.239 427.129 360.263 426.992 361.275C427.379 361.468 427.745 361.651 428.071 361.855C428.104 362.494 428.077 363.134 427.989 363.768C427.542 364.449 426.666 364.297 425.954 364.459C425.095 363.332 424.367 362.11 423.787 360.817C423.054 359.169 421.151 358.477 420.521 356.747C419.88 356.086 419.238 355.404 418.597 354.713C418.547 354.356 418.424 353.695 418.374 353.309C417.778 353.734 417.128 354.076 416.44 354.326C415.148 353.197 414.619 351.274 412.96 350.602C413.408 351.873 413.408 353.259 412.96 354.529C413.795 354.906 414.629 355.262 415.433 355.638C415.586 356.129 415.708 356.628 415.799 357.134C415.386 358.007 415.105 358.936 414.965 359.891C416.458 359.897 417.949 359.986 419.432 360.156C419.432 360.919 419.432 361.702 419.432 362.475C418.537 363.205 417.603 363.884 416.634 364.51C417.615 366.089 418.685 367.611 419.839 369.068C419.839 369.628 419.839 370.187 419.839 370.757L421.701 370.686C421.538 372.493 421.62 374.314 421.945 376.099C423.349 376.099 424.733 376.038 426.107 375.997C425.945 376.774 425.682 377.527 425.323 378.235C424.204 378.5 423.105 378.836 421.965 379.151C422.037 379.7 422.077 380.25 422.098 380.809C422.871 380.648 423.633 380.433 424.377 380.168L424.988 380.819C424.988 381.094 425.038 381.644 425.069 381.928C426.025 382.02 426.951 382.132 427.867 382.295C427.45 383.312 427.033 384.452 425.883 384.869C425.883 384.238 425.883 383.597 425.802 382.976C425.14 383.337 424.436 383.614 423.705 383.801C423.156 383.617 422.607 383.322 422.037 383.068C420.51 383.356 418.932 383.204 417.488 382.63C416.847 382.295 416.288 382.844 415.697 383.109C415.016 382.742 414.253 382.03 413.398 382.437C413.001 383.455 414.13 383.943 414.7 384.533C414.161 385.021 413.622 385.55 413.042 385.998C412.424 385.436 411.675 385.038 410.864 384.838C409.073 383.739 407.059 383.068 405.237 381.979C405.237 382.305 405.135 382.997 405.105 383.282C407.303 385.886 405.848 385.489 405.593 387.168C406.108 387.932 406.76 388.595 407.516 389.122C407.394 389.925 407.303 390.739 407.16 391.563L405.41 392.276C405.269 392.851 405.079 393.412 404.84 393.954C404.973 393.435 405.085 392.937 405.176 392.438C404.891 392.377 404.576 392.316 404.22 392.276C403.588 392.632 402.899 392.876 402.185 392.998C401.065 391.492 401.218 389.661 401.462 387.911C398.308 386.955 400.109 388.064 398.817 385.937C398.338 385.734 397.86 385.52 397.311 385.337C397.311 383.78 397.311 382.234 397.311 380.677L396.354 380.891C396.14 381.104 395.723 381.542 395.52 381.766C394.675 381.084 393.943 380.27 393.098 379.578C392.976 380.952 392.864 382.325 392.61 383.648C393.332 383.648 394.034 383.699 394.706 383.739C394.706 384.401 394.706 385.062 394.614 385.774C394.886 386.196 395.13 386.634 395.347 387.087C396.456 387.748 397.524 388.47 398.583 389.183C398.635 389.649 398.652 390.118 398.633 390.587C398.064 390.821 397.473 391.055 396.863 391.35C396.517 392.367 398.013 392.459 398.572 392.967C398.83 393.934 399.028 394.916 399.163 395.908C399.572 396.206 399.962 396.529 400.333 396.874C400.663 396.412 401.1 396.036 401.607 395.777C402.113 395.519 402.674 395.385 403.243 395.389C403.345 395.969 403.426 396.549 403.477 397.149L405.095 397.23C405.125 397.752 405.125 398.275 405.095 398.797C403.965 399.316 402.775 399.733 401.655 400.354C401.757 401.188 402.001 402.002 402.164 402.826L404.128 402.653C404.332 404.261 404.627 405.868 404.759 407.486C402.724 406.194 400.455 407.964 398.654 408.971C396.619 407.842 397.636 407.252 395.174 409.46C394.156 407.73 394.889 405.716 395.662 404.047C394.472 404.025 393.296 404.305 392.243 404.861C391.49 404.281 390.717 403.732 389.923 403.172C389.923 401.656 389.974 400.12 390.005 398.634C388.682 399.164 388.682 400.73 388.234 401.9C387.037 401.488 385.793 401.228 384.53 401.127C385.11 402.938 386.565 404.373 386.637 406.347C383.686 405.96 384.673 407.232 380.531 402.134C379.921 401.28 378.69 401.473 377.754 401.117C376.461 400.944 375.668 399.815 374.833 398.919C374.304 399.062 373.602 399.56 373.215 398.818L374.365 398.085C374.915 397.322 376.268 396.203 374.935 395.521C373.934 395.75 372.91 395.866 371.882 395.867C370.753 393.293 370.153 394.677 372.137 390.556C369.776 381.867 372.045 388.521 371.811 377.33L370.661 377.401L369.98 378.418C369.98 376.923 369.339 374.888 370.763 373.86C370.874 374.687 370.938 375.519 370.956 376.353C371.659 376.302 372.33 376.272 372.991 376.261C372.991 377.615 372.991 378.978 373.083 380.331L374.67 379.853C374.774 378.772 374.989 377.705 375.311 376.668C375.841 376.882 376.329 377.096 376.807 377.32C376.858 374.267 376.075 371.215 376.512 368.081C376.946 367.882 377.322 367.576 377.605 367.191C377.888 366.807 378.069 366.357 378.13 365.884L376.573 366.403C375.556 366.22 374.538 366.057 373.521 365.935L372.92 365.192C373.276 364.388 373.612 363.595 373.938 362.811C374.448 362.399 374.921 361.943 375.352 361.448C374.62 361.336 373.826 361.244 373.032 361.173C372.737 360.614 372.432 360.064 372.116 359.505C371.384 358.223 372.259 356.747 371.872 355.435C371.388 353.31 371.115 351.143 371.058 348.964C371.912 348.302 372.731 347.596 373.51 346.848C373.378 347.967 373.185 349.076 372.961 350.175C373.551 349.961 374.07 349.758 374.599 349.544L376.512 349.646C375.612 348.264 375.122 346.655 375.098 345.006C377.408 345.8 377.275 348.435 377.804 350.389L378.659 351.009C379.321 349.412 378.659 347.774 378.344 346.207C378.462 345.757 378.537 345.297 378.568 344.833C378.191 344.142 377.347 343.887 376.705 343.429C376.38 342.916 376.024 342.423 375.637 341.954C375.853 341.668 376.05 341.369 376.227 341.059C376.156 340.682 376.024 339.929 375.953 339.553L378.222 339.604C377.767 338.051 377.427 336.466 377.204 334.863H378.598C380.074 336.44 379.951 338.719 380.857 340.57C381.485 338.99 381.777 337.295 381.712 335.595C382.882 336.094 383.655 335.198 384.296 334.374C383.048 333.917 381.678 333.917 380.43 334.374C378.273 333.357 376.95 331.149 374.62 330.386C375.241 328.522 375.391 326.533 375.057 324.597C372.951 323.173 371.353 320.609 371.801 317.994C371.928 316.208 371.805 314.414 371.435 312.663C373.185 309.804 372.32 310.058 377.784 309.61C377.442 308.215 377.424 306.76 377.733 305.358L376.349 305.744C374.935 303.842 374.63 304.727 373.602 305.185C373.602 304.91 373.531 304.361 373.5 304.086C373.195 303.801 372.869 303.526 372.483 303.252C372.927 301.952 373.247 300.613 373.439 299.253C372.101 298.886 370.676 299.008 369.42 299.599C368.789 299.599 368.148 299.599 367.466 299.599C367.841 300.824 368.545 301.922 369.501 302.773C369.308 303.506 369.054 304.238 368.82 304.981C369.206 305.401 369.485 305.908 369.632 306.459C369.779 307.01 369.79 307.589 369.664 308.145L367.945 308.756C366.847 308.271 365.714 307.87 364.556 307.555C364.495 308.278 364.414 309.01 364.292 309.753L365.492 309.936C366.116 310.672 366.697 311.443 367.232 312.246C367.717 311.93 368.264 311.721 368.836 311.633C369.408 311.546 369.992 311.581 370.549 311.737C370.812 312.749 370.918 313.796 370.865 314.84C369.698 315.158 368.571 315.609 367.507 316.183C367.446 317.109 367.507 318.035 367.385 318.971C366.032 318.055 364.831 316.844 365.095 315.054C363.749 314.037 362.166 313.379 360.496 313.141C359.479 312.266 358.604 311.177 357.21 310.872C357.881 312.296 358.899 313.314 359.611 314.575C359.544 315.413 359.421 316.246 359.245 317.068C363.416 317.282 362.541 316.926 365.289 319.052C365.289 319.337 365.289 319.917 365.289 320.202C362.552 321.921 359.234 321.484 356.131 321.87C356.042 321.412 355.923 320.96 355.775 320.517L353.74 321.484C353.027 321.128 352.305 320.792 351.521 320.466C351.521 321.351 351.521 322.257 351.43 323.162C351.114 323.61 350.789 324.068 350.473 324.556C351.471 324.828 352.494 324.991 353.526 325.045C353.898 326.872 354.926 328.501 356.416 329.623C354.523 329.277 352.753 330.03 351.074 330.834C352.091 335.453 350.992 332.93 354.208 336.674C353.038 337.935 353.119 339.787 352.173 341.191C351.155 339.441 350.972 337.121 349.029 336.104L348.489 335.015C347.146 335.432 346.586 337.05 345.233 337.447C342.577 337.884 340.379 336.43 338.243 337.518C337.551 337.02 336.838 336.501 336.116 336.073L334.244 336.307C334.153 334.721 333.928 333.145 333.572 331.597C335.119 332.034 336.625 332.716 338.283 332.502C338.416 331.261 338.874 330.071 338.965 328.84C338.477 328.026 337.256 328.056 336.411 327.71C335.105 328.476 333.646 328.945 332.137 329.084C331.247 327.5 330.262 325.971 329.187 324.505C328.016 324.486 326.86 324.766 325.829 325.319C323.529 324.424 321.067 324.77 318.655 324.475C318.594 323.924 318.502 323.377 318.38 322.837C319.388 321.74 320.588 320.836 321.921 320.171C325.076 318.899 323.6 316.865 324.974 313.589C326.042 314.301 327.101 314.993 328.169 315.623C328.607 314.731 328.876 313.765 328.963 312.775C329.98 312.398 330.927 312.062 331.914 311.757C331.914 310.526 331.914 309.295 331.914 308.074C333.46 306.222 336.696 305.449 336.543 302.611C334.702 303.028 333.491 304.645 331.812 305.408C331.758 304.221 331.471 303.056 330.967 301.98L330.286 302.112C329.512 303.241 329.828 304.829 329.136 306.07C328.946 305.553 328.729 305.047 328.484 304.554C326.796 304.533 325.112 304.739 323.478 305.164C321.382 304.778 319.316 304.147 317.21 303.72C315.521 303.129 313.72 303.974 311.98 303.475C309.936 302.875 307.821 302.55 305.692 302.509C304.491 298.744 303.809 301.41 302.812 295.702C303.345 295.692 303.862 295.519 304.293 295.206C304.724 294.893 305.049 294.456 305.224 293.952C305.312 294.326 305.512 294.663 305.798 294.92C306.083 295.176 306.44 295.339 306.821 295.387C307.878 293.361 308.515 291.143 308.693 288.865C308.795 289.232 309.009 289.944 309.121 290.3H310.525C311.753 288.972 313.207 287.873 314.819 287.054C314.881 286.425 314.908 285.794 314.9 285.162C313.771 284.775 312.601 284.409 311.451 283.982C311.398 283.357 311.31 282.735 311.186 282.12C311.492 281.703 311.787 281.296 312.041 280.889C313.216 281.092 314.402 281.232 315.592 281.306C315.674 279.525 314.208 278.457 312.896 277.531C313.405 275.598 314.931 274.042 314.717 271.925C314.127 271.925 313.272 271.488 312.814 272.129C312.135 273.274 311.355 274.357 310.484 275.364C310.463 274.204 310.306 273.049 310.016 271.925C307.554 268.944 302.436 269.89 301.571 269.677C298.762 268.659 300.187 267.642 291.558 266.686C291.653 265.364 292.053 264.082 292.728 262.941C293.42 263.308 294.153 263.643 294.763 263.959C295.679 262.148 295.099 262.016 295.964 253.541L297.297 253.327C297.847 252.9 298.315 252.482 298.864 252.075C299.407 252.513 300.054 252.803 300.741 252.919C301.429 253.035 302.135 252.972 302.792 252.737C302.873 252.055 302.904 251.373 302.924 250.702C304.023 249.298 305.417 247.65 304.532 245.788C303.335 245.663 302.125 245.752 300.96 246.052C299.444 246.592 297.704 246.459 296.33 247.426L295.771 246.459C293.817 246.612 292.403 248.107 290.683 248.972C290.683 248.189 290.683 247.426 290.744 246.663C291.224 246.339 291.758 246.104 292.321 245.971C292.627 245.696 292.901 245.422 293.145 245.157C293.206 244.046 293.349 242.94 293.573 241.85C294.804 242.135 296.035 242.369 297.236 242.613C297.826 242.105 298.406 241.596 298.966 241.169C297.745 234.718 300.36 235.583 296.992 234.606C296.066 234.189 295.476 235.278 294.784 235.746H293.573C293.238 235.125 292.801 234.564 292.281 234.087C291.673 234.064 291.067 234.165 290.5 234.383C290.887 233.976 291.233 233.589 291.517 233.192C291.517 231.924 291.517 230.652 291.517 229.377L292.393 228.665C292.393 227.434 292.393 226.192 292.393 224.961H291.233C291.039 224.219 290.815 223.486 290.571 222.753C289.554 222.937 288.119 222.438 287.346 223.354C287.234 224.147 287.234 224.961 287.071 225.765C286.755 226.253 286.053 226.202 285.524 226.457C285.467 228.033 285.194 229.595 284.71 231.096C284.252 232.826 285.483 234.362 285.972 235.929C284.598 235.603 283.041 235.349 282.075 234.159C280.864 234.22 279.572 234.159 279.144 232.785C278.508 232.4 277.759 232.24 277.021 232.332C276.282 232.425 275.596 232.763 275.074 233.294C275.552 235.329 276.529 237.211 277.048 239.246C278.092 239.481 279.149 239.657 280.213 239.775C281.81 241.352 283.571 242.736 285.158 244.313C284.079 244.628 282.97 244.964 281.871 245.33C282.065 246.347 282.258 247.304 282.522 248.27C282.136 249.074 281.749 249.878 281.332 250.692C281.23 250.458 281.047 250 280.955 249.766L279.714 249.573C278.127 247.416 274.504 248.637 273.904 247.06C272.734 246.98 271.559 247.007 270.393 247.141C269.997 247.734 269.754 248.416 269.685 249.126C269.616 249.836 269.723 250.552 269.997 251.211C270.668 251.262 271.319 251.323 271.92 251.394C272.357 252.116 272.795 252.849 273.171 253.602C273.955 253.49 274.687 253.388 275.41 253.266C276.183 253.856 276.946 254.456 277.689 255.046C277.252 256.908 277.689 259.045 276.56 260.693C275.901 260.114 275.13 259.676 274.295 259.407C273.46 259.137 272.579 259.042 271.706 259.126C271.706 259.808 271.706 260.5 271.706 261.161C272.205 261.497 272.724 261.832 273.12 262.178C273.12 262.484 273.12 263.104 273.12 263.42C272.246 263.416 271.373 263.467 270.505 263.572C269.986 264.691 269.59 265.872 269.02 266.981C268.511 266.614 268.002 266.248 267.432 265.892C267.275 264.754 266.967 263.642 266.517 262.585C265.56 262.585 264.593 262.585 263.596 262.585C259.526 257.915 257.349 260.266 256.911 260.479C256.911 260.703 256.992 261.161 257.023 261.385C258.936 262.962 257.511 265.943 258.804 267.774C259.994 267.693 261.154 267.388 262.304 267.225C261.958 267.672 261.531 268.14 261.134 268.598L259.964 268.741C259.9 269.204 259.808 269.662 259.689 270.114C260.024 270.553 260.336 271.008 260.625 271.478C261.5 272.098 262.345 272.729 263.189 273.36L261.877 273.533C261.867 273.993 261.823 274.452 261.744 274.906C266.171 277.043 263.352 277.185 267.361 276.412C267.401 277.433 267.493 278.452 267.636 279.464L266.435 280.004C266.422 281.172 266.736 282.321 267.341 283.32L268.745 283.381C269.111 285.08 269.406 286.79 269.62 288.519C269.213 289.201 268.796 289.913 268.389 290.625C267.163 291.332 265.845 291.863 264.471 292.202C264.035 291.456 263.663 290.673 263.362 289.862C264.38 287.97 266.272 288.051 263.82 284.287L262.752 284.409C262.426 284.748 262.087 285.087 261.734 285.426C261.734 284.195 261.734 282.964 261.734 281.743C260.288 281.664 258.838 281.743 257.41 281.977C257.492 280.618 257.427 279.253 257.216 277.908C256.667 277.226 255.69 277.429 254.886 277.257C254.304 276.508 253.77 275.723 253.289 274.906L252.352 274.805C252.214 274.198 252.041 273.6 251.834 273.014C250.47 273.014 249.086 273.014 247.692 273.014C247.489 273.472 247.265 273.94 247.01 274.418C245.786 273.755 244.526 273.161 243.235 272.637C242.808 272.861 242.36 273.126 241.892 273.401C241.892 275.11 243.368 276.087 244.477 277.134C244.07 277.623 243.642 278.152 243.205 278.62C243.205 278.945 243.205 279.586 243.205 279.902C245.148 280.522 247.275 280.136 249.157 280.777C249.391 281.448 249.595 282.12 249.799 282.812L250.704 283.208C252.129 283.163 253.538 283.515 254.774 284.226C252.281 284.796 249.687 283.208 247.316 284.45C248.452 286.052 249.008 287.993 248.893 289.954C248.348 289.491 247.716 289.143 247.035 288.928C246.354 288.713 245.636 288.636 244.924 288.702C243.907 288.865 243.215 288.072 242.523 287.451C241.26 287.136 239.967 286.959 238.667 286.922C237.232 285.111 235.268 285.396 230.13 285.101C229.79 286.255 229.84 287.488 230.272 288.611H231.371C232.468 289.57 233.337 290.763 233.915 292.101C235.394 292.057 236.848 291.71 238.188 291.083C238.616 292.182 238.901 293.617 240.285 293.81C240.753 293.423 241.19 293.037 241.617 292.66C241.933 293.403 242.228 294.146 242.493 294.899C243.253 295.3 243.941 295.826 244.528 296.455L246.186 296.16C246.945 295.276 247.886 294.564 248.944 294.074C249.066 296.262 247.926 304.757 251.599 304.045C252.617 303.577 252.617 302.316 252.943 301.42C253.289 300.22 254.713 300.016 255.659 299.497C255.252 300.515 254.713 301.451 254.388 302.488C257.247 308.349 255.558 307.738 258.112 308.715C258.376 307.789 258.61 306.884 258.824 305.968L260.381 305.612C260.778 303.455 260.106 300.677 262.131 299.202C262.324 301.237 261.256 303.079 261.439 305.093C261.541 310.18 261.388 311.004 259.262 311.482C256.911 312.032 254.683 313.121 252.241 313.253C250.472 313.451 248.775 314.06 247.285 315.033C248.14 318.086 248.852 316.274 250.877 320.68L252.505 320.588C252.81 320.273 253.095 319.968 253.34 319.673C253.624 320.334 253.838 321.005 254.082 321.708C255.325 322.204 256.538 322.771 257.715 323.407C257.806 324.058 257.888 324.719 257.929 325.38C258.407 325.594 258.855 325.808 259.282 326.021C259.121 327.097 258.83 328.149 258.417 329.155C256.728 329.155 256.189 327.527 255.558 326.245C254.921 326.288 254.289 326.376 253.665 326.51C252.932 327.375 251.63 331.505 246.654 329.867C245.591 330.268 244.463 330.472 243.327 330.467C241.373 331.805 239.881 333.713 239.053 335.931C238.229 336.124 237.405 336.277 236.52 336.44C236.011 338.159 237.415 339.492 238.046 340.988C228.369 347.194 230.567 342.28 227.168 341.476C225.133 340.53 222.864 341.669 220.789 340.865C219.719 340.403 218.545 340.238 217.39 340.387C215.467 340.815 213.472 340.245 211.529 340.662C210.121 341.424 208.647 342.054 207.123 342.544C205.383 345.047 202.117 343.877 199.563 344.081C198.321 351.263 197.365 349.788 203.969 351.559C204.394 352.394 204.962 353.148 205.648 353.787C206.38 355.079 206.228 356.839 207.571 357.775C207.697 358.297 207.782 358.827 207.825 359.362C208.375 359.952 208.843 360.583 209.362 361.204L208.476 362.038C208.176 361.72 207.853 361.424 207.51 361.153C207.269 360.785 206.989 360.443 206.675 360.135C205.979 360.215 205.295 360.383 204.64 360.634L204.884 361.916L204.121 362.191C203.501 360.461 201.852 359.555 200.499 358.436C198.067 358.67 197.039 359.342 194.801 356.859C193.947 356.517 193.061 356.265 192.155 356.106C191.327 355.373 190.774 354.379 190.588 353.288L189.571 353.186C189.204 352.668 188.818 352.169 188.411 351.64C186.376 351.152 184.931 349.453 182.824 349.147C181.807 348.008 180.565 346.817 178.856 347.112C178.856 347.407 178.693 348.018 178.642 348.323C178.052 348.7 177.462 349.086 176.821 349.473C176.149 348.14 177.584 347.173 178.001 346.024C178.764 345.424 179.517 344.823 180.291 344.274C180.579 343.384 180.793 342.472 180.932 341.547C179.385 341.547 177.828 341.629 176.261 341.629C175.529 340.255 174.928 338.688 173.555 337.803C173.746 337.477 173.912 337.137 174.053 336.786C175.071 336.358 175.997 335.941 176.963 335.555C176.78 334.248 176.261 333.01 175.457 331.963C176.896 330.88 178.394 329.878 179.945 328.962C179.548 328.066 179.11 327.181 178.632 326.316L177.085 326.367L176.404 327.11L174.44 327.69C174.521 326.164 173.046 323.987 174.694 322.959C174.694 322.735 174.694 322.298 174.755 322.084C174.257 322.084 173.738 322.084 173.158 322.084C173.331 321.168 173.88 319.917 172.568 319.591C172.903 319.337 173.209 319.093 173.483 318.849C173.483 318.554 173.483 317.953 173.483 317.658C174.084 317.851 174.654 318.055 175.193 318.248L175.864 319.011L176.882 318.95C176.882 318.625 176.984 317.933 177.014 317.658C177.767 317.658 178.49 317.658 179.171 317.658C179.171 317.414 179.1 316.936 179.07 316.692C178.276 315.979 177.503 315.227 176.719 314.484C176.424 313.69 176.078 312.917 175.702 312.154L176.465 311.544C176.518 310.243 176.664 308.947 176.902 307.667C176.396 307.332 175.971 306.889 175.656 306.37C175.341 305.851 175.145 305.269 175.081 304.666H177.615C177.344 303.846 176.978 303.061 176.526 302.326L177.543 301.766C177.468 301.321 177.227 300.921 176.868 300.647C176.509 300.373 176.059 300.246 175.61 300.291C175.61 300.026 175.61 299.507 175.61 299.273C174.979 299.202 174.307 299.162 173.626 299.05C173.226 298.347 172.885 297.612 172.608 296.852L175.732 297.422C175.508 296.343 175.315 295.255 175.152 294.166C177.065 294.38 178.947 294.736 180.85 294.776C180.85 293.627 180.85 292.477 180.85 291.338L179.243 291.388L179.161 290.503L177.584 290.422C176.812 289.899 176.072 289.332 175.366 288.723C174.664 288.723 173.911 288.723 173.158 288.804C173.158 287.716 172.232 287.461 171.285 287.329C171.285 287.105 171.285 286.647 171.285 286.413C171.139 286.392 170.991 286.4 170.848 286.438C170.705 286.475 170.571 286.541 170.454 286.631C170.338 286.721 170.24 286.834 170.168 286.963C170.096 287.091 170.05 287.233 170.034 287.38C170.563 284.378 170.95 286.423 170.848 284.083C171.092 283.3 171.326 282.517 171.489 281.733C170.99 281.224 170.471 280.716 169.932 280.187L170.746 279.006L169.729 278.722L171.764 277.704C171.799 277.274 171.799 276.842 171.764 276.412C170.687 275.804 169.709 275.035 168.864 274.133L170.675 273.858C170.573 272.403 169.271 272.21 168.05 272.21L167.358 273.126L165.974 273.258C166.208 274.031 166.718 274.69 167.409 275.11C167.124 275.476 166.808 275.842 166.452 276.219H164.417C164.417 276.504 164.417 277.063 164.468 277.338L165.363 278.009C165.372 278.689 165.345 279.368 165.282 280.044L166.198 280.115V281.387H164.956C164.796 281.911 164.602 282.424 164.376 282.924C162.668 282.773 160.97 282.528 159.289 282.191C159.289 282.893 159.35 283.595 159.289 284.307C158.024 284.433 156.77 284.644 155.534 284.938C154.589 285.981 153.874 287.212 153.438 288.55C152.919 288.967 152.42 289.394 151.789 289.811C151.993 288.998 152.156 288.214 152.319 287.41H149.714C149.714 287.756 149.714 288.428 149.714 288.784L148.371 288.733C148.453 289.891 148.644 291.039 148.94 292.162L147.597 292.213C147.436 292.639 147.253 293.057 147.048 293.464H145.603C145.328 294.085 145.023 294.705 144.697 295.316C144.514 294.542 144.27 293.779 144.026 293.006H142.377C142.204 293.922 142.041 294.838 141.889 295.763C143.1 296.587 144.28 298.297 145.898 297.422C145.898 297.625 145.898 298.042 145.898 298.256C148.574 297.859 147.852 297.524 150.599 298.256C150.599 298.795 150.68 299.334 150.68 299.884H151.627C151.773 299.15 152.173 298.491 152.756 298.022C153.387 298.673 154.028 299.284 154.669 299.884H155.687C155.741 299.312 155.764 298.738 155.758 298.164L157.447 298.103L157.528 296.974L158.546 296.567H159.563L158.108 297.106C158.739 298.317 159.584 298.419 160.713 298.755C160.54 299.049 160.343 299.328 160.123 299.589C158.088 297.93 158.088 299.65 159.045 300.952L158.302 301.054C158.302 300.616 158.302 299.752 158.363 299.314C157.432 299.452 156.552 299.826 155.809 300.403C155.872 301.062 155.889 301.725 155.86 302.387C155.433 302.153 154.936 302.08 154.46 302.181C153.984 302.282 153.56 302.55 153.265 302.936C153.112 303.77 152.888 304.615 152.756 305.48C153.556 305.801 154.426 305.906 155.28 305.785C154.387 306.203 153.535 306.704 152.736 307.281C152.766 306.704 152.766 306.127 152.736 305.551H150.914L151.576 306.568C150.1 307.86 150.558 310.109 150.426 311.879C149.826 313.141 148.93 314.504 149.683 315.949H148.828C148.91 316.193 149.052 316.671 149.134 316.915H148.472C148.472 319.001 148.238 321.209 149.419 323.02C148.696 323.162 147.913 323.325 147.15 323.508C146.988 323.11 146.801 322.723 146.59 322.348C145.211 322.05 143.786 322.026 142.398 322.277C142.398 323.641 142.459 325.004 142.398 326.347C143.039 326.734 143.639 327.141 144.219 327.547C143.527 328.209 142.825 328.88 142.072 329.531C142.088 330.099 142.065 330.667 142.001 331.231C142.418 331.597 142.794 331.963 143.151 332.34L144.015 331.739L144.595 332.543C144.107 332.981 143.578 333.387 143.1 333.886C143.1 334.822 143.222 335.758 143.242 336.704C141.645 337.895 142.438 340.296 140.77 341.435C140.271 342.107 139.06 342.727 139.487 343.735C140.149 345.556 142.337 344.518 143.72 344.406C143.177 345.9 143.206 347.542 143.802 349.015C142.255 348.903 139.355 349.442 137.066 345.281L135.845 345.179C135.367 344.213 135.025 343.186 134.827 342.127C134.136 341.758 133.376 341.537 132.595 341.475C131.814 341.414 131.029 341.515 130.289 341.771L130.208 342.961C129.394 343.592 128.539 344.213 127.694 344.844C127.42 344.284 127.094 343.745 126.768 343.195C127.044 342.199 127.215 341.176 127.277 340.143C126.809 340.072 126.259 340.021 125.761 339.96C125.168 339.538 124.497 339.237 123.787 339.075C123.033 338.25 122.329 337.38 121.681 336.47C121.506 335.857 121.292 335.255 121.04 334.669C119.686 334.323 118.577 333.387 117.244 332.919C116.702 334.478 116.76 336.183 117.407 337.701C117.946 339.177 117 340.682 117.295 342.188C117.753 342.992 118.313 343.704 118.862 344.477C118.646 344.958 118.583 345.493 118.684 346.011C118.784 346.528 119.042 347.002 119.422 347.367L120.673 347.438C120.724 348.455 120.755 349.473 120.775 350.49C121.376 350.504 121.965 350.323 122.454 349.975C122.944 349.626 123.308 349.129 123.492 348.557C125.161 348.923 125.1 349.127 126.229 349.371C125.13 349.9 120.124 351.538 121.935 356.605L124.357 356.239C124.835 356.574 125.293 356.91 125.73 357.256C125.802 357.49 125.954 357.958 126.025 358.182C126.981 358.444 127.958 358.614 128.946 358.691C127.46 360.38 127.531 362.689 127.643 364.795L130.024 364.348C128.671 366.901 126.066 369.028 126.28 372.192C126.717 372.531 127.135 372.894 127.531 373.28L128.111 373.23C128.549 372.873 128.946 372.528 129.332 372.212C129.414 372.975 129.414 373.748 129.424 374.522C129.785 374.871 130.125 375.241 130.442 375.631C131.072 375.478 131.642 375.346 132.202 375.193C132.426 374.176 132.7 373.158 132.996 372.202C134.293 373.967 135.427 375.847 136.384 377.818C137.269 377.686 138.093 377.554 138.918 377.381C138.918 378.398 138.918 379.344 138.918 380.331C136.822 380.331 134.725 380.331 132.609 380.453C130.065 383.058 131.195 381.471 130.238 384.92L132.436 385.673C131.897 387.502 132.027 389.464 132.802 391.207C129.2 396.162 130.96 395.46 131.978 398.624L133.535 398.105C133.535 399.347 134.552 399.794 135.57 400.14H136.587L138.45 400.7C138.943 399.964 139.535 399.3 140.21 398.726C139.691 401.727 140.108 400.293 134.705 405.268C133.829 405.356 132.996 405.691 132.304 406.235C131.204 405.534 130.062 404.902 128.885 404.342C128.706 403.849 128.498 403.367 128.264 402.897L127.369 403.081C125.425 402.216 122.963 401.89 121.162 403.294C118.781 404.749 115.311 406.275 115.352 409.531C116.17 409.765 116.964 410.079 117.722 410.467C118.218 411.421 118.623 412.419 118.933 413.448L120.236 413.509C120.124 414.67 120.124 415.838 120.236 416.999C120.886 417.923 121.717 418.705 122.678 419.298C122.898 419.689 123.091 420.093 123.258 420.509H124.631C124.631 420.794 124.57 421.364 124.56 421.648C122.393 419.858 119.279 419.766 117.376 417.579C115.83 417.579 114.273 417.579 112.706 417.579C112.48 416.999 112.077 416.505 111.555 416.167C111.033 415.83 110.417 415.665 109.796 415.697C109.796 415.412 109.796 414.862 109.796 414.598L111.536 414.038C111.373 413.234 111.231 412.431 111.027 411.627C110.315 411.35 109.547 411.245 108.787 411.321C108.026 411.397 107.295 411.651 106.652 412.064C105.451 410.545 104.808 408.659 104.83 406.723C104.23 406.184 103.63 405.644 102.999 405.095C102.602 405.248 102.154 405.41 101.717 405.624C101.625 406.245 101.584 406.896 101.483 407.537C101.015 407.972 100.607 408.468 100.272 409.012C100.129 410.03 101.452 410.396 101.981 411.047C101.554 412.186 100.75 413.143 100.251 414.282C101.36 415.239 102.632 415.941 103.772 416.816C103.06 418.026 102.225 419.217 102.449 420.723C103.884 420.723 104.779 419.593 105.827 418.851C106.692 418.098 107.771 418.851 108.666 419.024C107.995 421.394 103.874 425.769 105.746 428.638C106.53 429.869 106.255 431.355 106.458 432.708C107.596 433.416 108.79 434.029 110.03 434.539C110.34 436.106 110.564 437.689 110.701 439.28C109.236 442.333 105.359 442.444 102.48 443.248C101.859 444.53 102.48 445.649 103.385 446.575L104.728 446.677C104.65 447.365 104.517 448.045 104.332 448.712C103.36 448.279 102.332 447.984 101.279 447.837L100.689 448.773C98.9488 447.959 96.6187 448.02 95.7538 445.934C95.0619 445.568 94.3699 445.192 93.6271 444.856C93.739 446.27 93.8306 447.694 93.8408 449.129C91.7345 450.279 89.3535 450.787 87.1963 451.876C87.2008 452.741 87.5107 453.577 88.0714 454.236C88.1528 455.152 88.1833 456.078 88.1935 457.014H89.2111C89.5774 455.996 89.9538 454.979 90.3405 453.962L92.518 454.287C92.7215 454.979 92.8945 455.671 93.0268 456.322C93.6663 456.519 94.2445 456.877 94.706 457.362C95.1674 457.846 95.4967 458.441 95.6622 459.089C96.2218 459.089 96.7509 459.089 97.2394 459.161C97.5548 458.774 97.8499 458.408 98.1043 458.052C98.2976 459.15 98.4706 460.249 98.6233 461.358C99.2948 461.521 99.9664 461.674 100.587 461.847C101.033 460.404 101.609 459.004 102.307 457.665C102.132 459.209 101.819 460.735 101.371 462.223C95.998 463.149 95.7233 460.697 87.6644 463.444C85.2552 464.028 82.7683 464.224 80.2974 464.024C76.7971 463.302 73.256 464.716 69.7659 463.79C65.421 456.739 63.0502 460.259 59.4176 459.222C59.4176 458.886 59.3464 458.204 59.326 457.879C59.7738 456.81 60.1807 455.722 60.547 454.643C60.8599 454.938 61.1523 455.255 61.4222 455.59C61.6257 455.59 62.053 455.528 62.2667 455.508C63.5012 454.029 64.3849 452.29 64.8512 450.421C65.5264 451.591 66.6155 452.466 67.9039 452.873C68.3312 453.331 68.4635 454.196 69.1045 454.348C70.2442 454.704 70.814 453.463 71.5263 452.873C72.2831 451.253 72.8335 449.544 73.1645 447.786C73.8361 447.409 74.4669 447.043 75.0775 446.677C77.0108 447.857 78.0283 445.405 78.5778 443.971C78.2522 442.322 77.0922 440.918 76.5427 439.301L74.5687 439.87C74.2034 439.596 73.8191 439.348 73.4189 439.128C75.169 438.283 73.5003 433.359 73.2052 432.006C74.2987 431.736 75.411 431.549 76.5325 431.446C77.1605 432.053 77.9996 432.392 78.8729 432.392C78.9825 431.868 79.064 431.338 79.1171 430.805C80.4195 429.849 80.4602 428.282 80.3585 426.837L81.2946 426.095C81.1746 425.225 81.0081 424.362 80.796 423.51C79.2711 423.962 77.8082 424.601 76.4409 425.413C75.7082 425.004 74.8962 424.758 74.0599 424.691C72.9844 425.563 72.0774 426.625 71.3838 427.824C70.7021 425.596 69.9898 423.175 70.8852 420.896C71.4143 421.17 71.9027 421.465 72.3708 421.76C73.948 421.17 75.3318 422.401 76.8886 422.086C76.8886 421.221 76.8886 420.356 76.8886 419.512C78.0588 418.993 79.1883 418.494 80.2974 417.884C80.3449 417.029 80.3653 416.185 80.3585 415.351C79.3501 415.151 78.3308 415.012 77.3059 414.934C77.3059 414.649 77.1736 414.069 77.1227 413.784C76.2273 413.936 75.3319 414.109 74.3856 414.262L73.6936 415.005C73.1035 415.005 72.4827 415.005 71.8213 415.056C71.1963 416.049 70.3716 416.901 69.3996 417.558C67.8009 417.653 66.2244 417.979 64.719 418.525C64.7544 417.946 64.7544 417.365 64.719 416.785L66.1944 416.673C66.0621 415.564 64.953 414.689 65.4109 413.54C65.6959 411.905 65.5629 410.225 65.0242 408.656C66.5965 408.025 67.9928 407.023 69.0944 405.736C69.4532 406.055 69.793 406.395 70.1119 406.753C70.6105 406.753 71.0785 406.753 71.5059 406.753C72.6516 405.604 73.6528 404.32 74.4873 402.928C74.935 402.694 75.3522 402.47 75.7185 402.256C76.0296 401.727 76.4094 401.241 76.848 400.812C76.8939 400.165 76.8939 399.515 76.848 398.868C76.4918 398.492 76.095 398.116 75.688 397.739H74.1718C73.9011 398.146 73.5983 398.53 73.2662 398.889C72.2487 399.367 71.2312 398.746 70.3459 398.156H69.247C69.247 398.462 69.1351 399.082 69.0944 399.387H67.8937C67.5884 399.906 67.2424 400.405 66.8761 400.964L65.1158 401.595C64.5521 400.856 63.951 400.146 63.3148 399.469C63.0047 397.142 63.2167 394.775 63.9354 392.54L65.6958 392.021L65.6144 393.262C67.1611 393.985 68.7992 393.547 70.3459 393.171L70.4273 392.276C71.2573 391.794 71.9561 391.117 72.4624 390.302L73.3985 390.19C73.3985 389.478 73.3985 388.755 73.3985 388.053L72.0147 388.389C71.5873 388.257 71.1193 388.145 70.6207 388.043C70.4279 387.614 70.2104 387.196 69.9694 386.792H69.0129C68.7827 387.231 68.4953 387.638 68.1582 388.002C68.84 386.812 68.4533 385.51 68.2396 384.269L70.7326 383.648C71.1125 382.868 71.4788 382.095 71.8315 381.328C72.3912 380.962 72.8999 380.585 73.3985 380.209C73.4596 379.568 73.4901 378.937 73.5003 378.306C74.1492 378.449 74.7305 378.808 75.1487 379.324L76.1154 379.497C76.1154 379.853 76.2171 380.514 76.2476 380.921C77.351 380.485 78.405 379.932 79.3918 379.273C79.6462 378.876 79.8599 378.5 80.0532 378.123H81.8237C82.2213 377.599 82.7965 377.237 83.4416 377.106C84.0645 376.524 84.489 375.761 84.6552 374.925C84.8213 374.089 84.7207 373.222 84.3676 372.446C84.6932 371.734 85.0086 371.022 85.2833 370.32H86.9928C86.7995 369.567 86.596 368.824 86.3416 368.092C86.8097 368.315 87.2472 368.56 87.6542 368.804C88.0612 369.363 88.4581 369.923 88.8142 370.493C89.7935 370.306 90.729 369.937 91.5717 369.404C91.5717 369.16 91.6734 368.672 91.7141 368.387C92.4043 367.684 93.0468 366.936 93.6373 366.148C94.0138 365.924 94.3496 365.711 94.6548 365.507L95.9268 365.619C95.8148 363.411 96.8222 361.122 95.591 359.077H96.4253C96.461 358.566 96.461 358.052 96.4253 357.541C95.1432 357.388 93.851 357.154 92.5485 356.931C92.7622 356.066 92.9454 355.201 93.0777 354.336L94.2478 354.387C94.4615 353.543 94.6549 352.708 94.8075 351.884L93.79 351.772C93.79 351.457 93.8612 350.816 93.8917 350.5H92.8742C92.8742 350.246 92.8742 349.727 92.8742 349.483C91.9278 349.137 90.9612 348.771 89.9945 348.384L88.6412 348.954C88.6097 347.89 88.4802 346.83 88.2546 345.79H86.891C86.891 346.126 86.9419 346.807 86.9521 347.153C86.4128 346.919 85.8125 346.695 85.202 346.471C85.202 347.489 85.202 348.506 85.202 349.524C84.8662 349.157 84.4999 348.801 84.1132 348.445L82.9736 348.323C82.9736 348.008 82.9023 347.377 82.8819 347.051C82.4139 346.868 81.9255 346.685 81.3862 346.512C81.3862 346.787 81.3862 347.326 81.315 347.591L80.3788 347.479C80.3788 347.835 80.3788 348.496 80.3788 348.873L79.056 348.812C79.056 349.829 79.056 350.846 79.056 351.864C78.4353 351.864 77.7841 351.864 77.1024 351.864C77.4381 352.718 77.8045 353.553 78.2115 354.367C76.0565 354.22 73.8917 354.377 71.7807 354.835H70C69.5319 355.506 69.0536 356.188 68.555 356.869C67.2729 356.605 65.9604 356.361 64.6579 356.056C63.8744 358.538 64.6579 361.061 65.2888 363.473C65.767 363.635 66.2249 363.798 66.6319 363.971L67.2933 362.699C67.5273 363.625 67.0288 364.897 67.9039 365.568C69.6235 365.467 71.3024 365.06 72.9915 364.826C72.9915 364.47 72.8796 363.747 72.8389 363.391H73.8564C73.8795 364.329 73.7313 365.264 73.4189 366.148C72.7066 366.148 71.9536 366.087 71.1803 366.067C71.1803 366.362 71.1803 366.942 71.2312 367.237C71.7399 367.532 72.2487 367.827 72.6557 368.132L73.836 368.214C73.836 369.048 73.836 369.892 73.836 370.737L74.9452 370.808C75.5322 371.222 76.0654 371.707 76.5325 372.253L75.5862 372.782C75.5862 373.046 75.5862 373.596 75.5862 373.871H74.2431C74.3196 374.488 74.3603 375.11 74.3652 375.732C74.4669 376.078 74.701 376.75 74.8027 377.106C74.1389 376.286 73.4034 375.527 72.6049 374.837L71.9028 371.632C70.9504 371.686 70.0023 371.798 69.0638 371.968C69.0944 372.561 69.0944 373.155 69.0638 373.748L70.2849 373.86C69.6143 374.617 68.7835 375.215 67.8529 375.61C67.1 375.386 66.3368 375.193 65.5228 375.02C65.5228 374.227 65.5228 373.443 65.5228 372.66C64.6986 372.497 63.8439 372.314 62.979 372.121C63.1835 371.516 63.3567 370.901 63.4979 370.279C62.7551 370.401 61.9614 370.554 61.1779 370.706C61.1779 370.513 61.1779 370.116 61.1779 369.923C59.8655 369.811 58.5437 369.945 57.2808 370.32C57.3016 369.286 57.1573 368.256 56.8534 367.267H55.6731C55.6731 366.942 55.5611 366.301 55.5306 365.986L54.391 366.057C54.2383 366.443 54.0552 366.84 53.8517 367.237L52.6408 367.318C52.6408 368.051 52.6408 368.804 52.6408 369.557C51.3818 369.44 50.1146 369.44 48.8556 369.557C48.5543 370.043 48.3021 370.557 48.1026 371.093H50.0766V371.642H48.1535C48.3773 372.253 48.5605 372.873 48.7335 373.484L47.8889 373.382C47.8889 374.186 47.8889 375 47.8889 375.814H46.6272C46.3293 374.706 46.1217 373.577 46.0065 372.436L47.4615 372.324C47.1475 370.455 47.1475 368.547 47.4615 366.677C48.424 365.727 49.2005 364.606 49.751 363.371C49.3551 363.28 48.9542 363.212 48.5503 363.167C49.0892 362.325 49.4782 361.395 49.7001 360.42C49.2117 360.369 48.6826 360.329 48.1331 360.298C47.3102 359.349 46.358 358.52 45.3044 357.836C44.6226 357.785 43.89 357.765 43.1472 357.663C42.719 357.068 42.3347 356.442 41.9974 355.791C40.9839 355.194 40.0387 354.488 39.1788 353.685C39.0233 352.997 38.8331 352.318 38.609 351.65C39.5349 351.548 40.7255 351.904 41.1121 350.795C41.6005 350.795 42.0585 350.795 42.4757 350.795C42.6995 348.903 43.0149 347.031 43.0963 345.139C41.8024 344.772 40.4321 344.772 39.1381 345.139C38.8223 344.69 38.4826 344.259 38.1206 343.847C37.4286 344.05 36.7164 344.264 35.9838 344.528C35.882 344.294 35.6581 343.836 35.5462 343.602H34.4676C34.4676 343.928 34.4676 344.569 34.5185 344.894C33.7248 344.894 32.8905 344.894 32.0357 344.894C31.6084 344.274 31.1504 343.674 30.6722 343.073L29.1663 343.582C29.2017 343.02 29.2017 342.455 29.1663 341.893C28.627 341.537 28.0775 341.181 27.4771 340.876C27.4771 340.56 27.3957 339.919 27.3652 339.614C26.5003 339.787 25.6049 339.991 24.6993 340.225C24.2825 340.801 23.7857 341.315 23.2238 341.751C23.2238 341.364 23.0712 340.57 23.0305 340.174H21.6467C20.446 341.038 20.3341 342.656 19.1843 343.551C19.4081 344.111 19.5505 344.691 19.7337 345.261H18.9502C19.5302 346.278 20.4053 346.217 20.9039 345.434V346.39L19.632 346.98C19.3165 347.469 18.9604 347.998 18.6144 348.476C19.0799 348.626 19.5324 348.813 19.9677 349.035H18.5737L18.818 350.684C19.6116 350.684 20.3544 350.684 21.087 350.775C21.4432 351.182 21.7586 351.589 22.1046 351.996C21.5042 352.128 20.8225 352.25 20.1712 352.373C20.5477 352.047 21.4025 351.457 20.5681 351.101C20.0186 350.948 19.1436 350.389 18.6857 351.101C18.4198 350.366 18.0789 349.66 17.6681 348.995L17.5257 349.89C17.0169 349.371 16.9457 348.588 15.8569 348.7C16.1786 350.21 16.3693 351.745 16.4267 353.288C17.8411 353.726 16.8846 355.16 16.8948 356.167C16.9762 357.378 17.2509 358.558 17.3221 359.779C17.6809 360.138 18.0206 360.515 18.3397 360.909L19.5302 360.807C20.0186 360.481 20.4867 360.176 20.9039 359.881C21.1593 359.482 21.3904 359.067 21.5958 358.64C21.925 358.927 22.2376 359.233 22.5319 359.555C23 359.555 23.4274 359.555 23.814 359.606C24.16 359.23 24.4856 358.853 24.8316 358.497C25.0656 357.612 25.2691 356.727 25.4624 355.842C26.3579 355.516 27.2431 355.191 28.0877 354.824C28.5456 355.008 28.9627 355.201 29.3392 355.394C29.3392 355.679 29.4105 356.239 29.4308 356.524C29.9701 356.524 30.4484 356.524 30.9571 356.585C31.2014 355.974 31.415 355.374 31.588 354.784H34.9459C34.9459 355.109 35.0578 355.75 35.0883 356.076L34.0708 356.157C34.0708 356.462 34.0708 357.083 34.142 357.388C33.5519 357.226 32.9413 357.073 32.2799 356.941C31.9609 357.518 31.427 357.945 30.7943 358.131C30.4992 358.365 30.1634 358.599 29.7768 358.843C29.8123 359.501 29.8123 360.16 29.7768 360.817C30.2448 361.041 30.6824 361.255 31.0691 361.489C29.3901 362.119 29.268 364.093 28.0165 365.161C28.2547 365.628 28.3801 366.144 28.3828 366.667C28.0916 366.332 27.7789 366.016 27.4466 365.721L25.5235 365.67C25.6838 366.801 25.4152 367.952 24.7705 368.895C24.4449 369.791 24.1193 370.686 23.753 371.592C22.7083 371.383 21.6428 371.298 20.5783 371.337C20.7411 371.958 20.8428 372.589 20.9446 373.219C20.8433 374.292 20.5969 375.346 20.212 376.353L18.9197 376.933C17.0576 375.193 17.6477 375.549 14.1881 376.139V377.289C13.2622 377.289 12.2955 377.411 11.3288 377.543L7.62507 376.933C7.2791 377.421 6.89242 377.95 6.46506 378.418C6.46506 378.683 6.46506 379.212 6.46506 379.436C6.04448 379.28 5.58655 379.137 5.09135 379.008C4.73752 379.55 4.19258 379.939 3.56505 380.097C2.71032 380.484 1.92686 381.552 0.8788 381.216C0.207227 380.535 0.441255 379.456 0.237748 378.591C-0.42365 378.713 -1.12575 378.846 -1.79732 378.998C-2.13311 378.866 -2.49944 378.734 -2.89628 378.612C-3.09002 378.181 -3.32878 377.772 -3.60857 377.391C-4.09075 377.416 -4.57034 377.477 -5.04326 377.574C-5.72748 377.449 -6.34661 377.089 -6.79346 376.557C-8.73695 376.557 -10.7109 375.905 -12.6646 376.353C-13.1937 376.027 -13.6822 375.702 -14.3131 375.397C-14.2773 374.875 -14.2773 374.352 -14.3131 373.83H-12.5222C-12.3797 374.043 -12.0948 374.471 -11.9625 374.684H-10.599C-9.94781 374.003 -9.378 373.26 -9.72396 372.283C-9.60611 371.874 -9.52105 371.455 -9.46958 371.032C-10.1299 370.93 -10.7826 370.784 -11.4232 370.594C-11.5453 370.096 -11.6878 369.577 -11.8404 369.119L-12.6443 369.038C-14.313 366.779 -15.5748 368.285 -20.1435 369.251C-20.7235 370.157 -21.3239 371.062 -21.9853 371.958C-22.0235 371.313 -22.0982 370.671 -22.2091 370.035L-23.7863 370.126V420.804L-23.0435 421.628C-22.8603 422.584 -22.6873 423.551 -22.4838 424.507C-21.4663 424.721 -20.4488 424.884 -19.5025 425.026L-19.3804 426.044C-16.6635 426.797 -16.1141 428.831 -15.7071 430.917Z" fill="#557045"/>
</svg>
