<svg width="650" height="264" viewBox="0 0 650 264" fill="none" xmlns="http://www.w3.org/2000/svg">
<path d="M782.06 67.63C781.059 67.3889 780.029 67.2912 779 67.34C778.93 65.92 778.33 65.71 779 64.34H779.51V63.5C779.8 63.05 780.83 63.3 780.51 62.23L779.51 61.8V61H778L777.49 59.73H779V58H781C781.31 57.16 780.93 57.64 781.51 57.15V56.73L778.97 57.15L779.48 55.04H778V56.31L776.48 56.73C776.775 55.909 776.775 55.011 776.48 54.19L778.48 53.77V52.52H776.48V51.25L775.48 50.82C775.65 50.26 775.81 49.69 775.98 49.13L774.46 49.55L774.97 51.25C772.57 51.18 771.77 50.69 769.9 50.4C769.62 52.15 768.9 51.87 768.38 53.4H769.38V54.67C768.38 54.93 768.94 54.62 768.38 55.1C767.82 55.58 768.3 55.04 767.88 55.52C768.11 55.67 768.17 55.69 768.19 55.69C768.21 55.69 768.19 55.69 768.38 55.94V56.37L769.38 55.94C769.92 56.58 768.9 56.48 769.88 57.21V57.64H771.4V58.91H767.86V58.49H766.86C765.35 57.85 764.56 56.98 762.3 56.79L763.3 59.33C764.3 59.59 763.73 59.27 764.3 59.76H764.81V61H765.31V61.42H764.81V62.27H761.81V61.84H761.3V62.27H759.78L759.24 61C758.44 61.08 756.8 61.06 757.24 61.84L758.24 62.27L758.75 64.81C759.75 65.06 759.18 64.75 759.75 65.23H760.26C760.039 65.6237 759.684 65.9252 759.26 66.08C760.43 67.02 761.98 66.38 763.32 66.93C763.597 67.2709 763.936 67.556 764.32 67.77C764.352 68.6449 764.177 69.5151 763.81 70.31H758.75C758.92 71.16 759.08 72.01 759.25 72.86H759.76V75H760.27V75.43C758.27 75.43 757.27 75.27 756.21 74.58L755.71 73.73L753.71 74.16V73.73C752.9 73.07 753.33 73.47 754.22 72.89V71.19L752.7 72.04V72.46C751.48 73.17 750.09 73.25 749.15 74.16C748.464 74.1261 747.789 73.9808 747.15 73.73V72C746.15 71.74 746.72 72.06 746.15 71.57H745.64V72.85C745.52 73.02 744.92 73.2 744.64 73.69C743.965 73.5934 743.297 73.4531 742.64 73.27V73.69H741.64C741.33 74.69 741.1 74.62 740.64 75.39L734.05 76.23V75H732.53V74.58H732.02L734.02 71.19L735.02 70.77C734.91 70.3 734.02 69.59 734.52 68.65L735.52 68.23V66.92L738.05 65.22V64.37L739.05 63.95V61.83H739.55V61.41H739V61H739.5V60.15L740.5 59.73C740.67 59.3 740.83 58.88 741 58.46H740V59.3H739L736.46 62.3H734.94V61L736.94 59.73V58.88L738.94 57.61V56.33H738.43V55.9L736.43 56.33V55.9H735.93C736.1 54.78 736.26 53.65 736.43 52.52H737L737.51 51.25H738.01C738.08 50.65 737.82 51.36 737.51 50.82V49.55H737C736 51.32 735.18 51.28 734 52.55H733V54.24H732.49V54.66C731.19 55.04 731.27 53.91 730.97 53.82H729.45L728.94 52.55C729.689 52.5266 730.403 52.2233 730.94 51.7C731.32 51.39 732.6 48.92 732.46 48.31C732.46 48.31 731.57 47.82 731.95 47.04L732.95 46.62C733.12 45.91 733.28 45.2 733.45 44.5C731.45 44.5 729.85 44.5 728.89 43.65L727.89 43.23L728.4 41.11H725.4V40.69H724.89C725.122 40.196 725.464 39.7616 725.89 39.42V38.57C725.255 38.833 724.577 38.9755 723.89 38.99C724.06 38.15 724.22 37.3 724.39 36.45H723.89C723.559 35.9485 723.381 35.361 723.38 34.76C722 35.08 722.23 34.86 721.86 36.03C720.86 36.28 721.42 35.97 720.86 36.45H719.34V36H718.83C718.19 34.62 720.03 35 720.35 34.73V34.3C719.35 33.74 719.75 33.54 720.35 33.03C720.35 30.03 720.8 30.8 717.82 30.92C718.08 30.36 718.82 28.63 718.32 27.53L717.32 27.1L717.83 25.83C717.83 25.83 717.18 25.89 717.32 24.99H717.83V24.56H717.32V22H716.81V21.6L715.29 22.02C715.68 20.87 715.41 21.02 716.81 20.75V19.9C715.32 19.55 715.46 19.66 715.29 18.21C714.03 18.8 713.35 19.59 711.75 19.9C711.25 21.59 709.82 22.17 707.69 22.45V22C707.13 21.52 707.48 22 707.19 21.15C707.7 20.83 707.69 20.63 708.19 20.31V19.9H709.71L709.2 16.9L710.72 16.05C710.94 15.43 709.78 15.45 709.72 15.21C709.51 14.46 710.18 14.5 710.23 14.36C710.7 12.87 710 12.71 711.23 11.82V11.39L706.67 11.82V10.12H706L706.51 9.28H705.51L705 8.47L704 8.05C703 6.36 704.68 5.05 703.49 3.81V3.39H703C702.67 4.66 702.33 5.93 702 7.2C701 7.45 701.56 7.14 701 7.62C700.44 8.1 700.09 11.02 700.49 12.28C700.49 12.38 701.34 12.42 701 13.13H700.49C699.92 13.6 700.49 13.31 699.49 13.55L699 12.28H697.48V14C696.619 14.0081 695.763 13.866 694.95 13.58V14H694.44C694.829 14.7911 695.005 15.6701 694.95 16.55H692.95C692.64 15.7 693.02 16.18 692.44 15.7V15.28H691.94C692.253 16.2501 692.421 17.2609 692.44 18.28C691.755 18.2498 691.079 18.1079 690.44 17.86V18.28H689.93L689.42 19.55H689.93V20.82L691.45 21.67V22.94H691.96L691.45 24.21H690.94L691.94 27.21H692.44C692.73 28.42 691.5 28.21 691.44 28.48L691.95 30.18C689.81 30.1 689.81 29.92 688.95 28.91H688.44V26.68H687.93C687.63 25.84 688 26.32 687.43 25.83C686.91 27.94 685.64 28.83 685.43 30.92L688.43 31.34V32.61C686.964 33.2262 685.611 34.0848 684.43 35.15H682.43V34.73H681.92V33.46C680.903 33.4839 679.889 33.3386 678.92 33.03V31.76L679.92 31.34C680.72 30.27 680.68 29.46 681.92 28.8V28L680.92 27.58C680.52 26.58 682.44 24.94 682.92 24.58C682.86 22.38 682.74 22.93 681.92 21.58C680.4 21.88 680.81 22.27 680.4 22.43C678.83 23.04 678.56 22.14 677.4 23.27H675.4V22.85C674.83 22.49 675.32 22.91 674.89 22.43C675.525 22.1676 676.203 22.022 676.89 22L676.38 20.73H675.87L676.38 19.46H676.89V18.61H677.39C677.39 18.31 676.24 15.48 676.39 15.23H676.9V12.7L673.9 13.97V15.25H673.39V15.67H671.87C671.55 14.67 671.34 14.73 670.87 13.97H670.36C670.49 13.34 671.36 13.16 671.36 13.13V11.86C670.36 11.6 670.93 11.92 670.36 11.43H669.85C670.43 10.17 671.41 9.84 671.85 8.43H672.85C672.85 8.2 673.15 6.67 672.35 7.16V7.58H671.84C672.19 6.43 672.53 6.58 672.84 5.46C671.41 5.35 671 5.29 670.31 4.62C669.586 4.7358 668.9 5.02388 668.31 5.46V5.89H667.31L666.8 6.73H664.8V5.08H665.3L665.81 3.81H664.81C663.74 2.94 663.81 1.81 663.81 0C662.73 0.72 663.53 0.87 661.81 1.27C662.035 2.02268 662.373 2.73729 662.81 3.39C662.172 3.64334 661.496 3.7854 660.81 3.81V5.08H658.81C658.782 5.41896 658.677 5.74713 658.504 6.03985C658.331 6.33257 658.094 6.58221 657.81 6.77V7.2H656.29C655.99 8.04 656.36 7.56 655.79 8.05V8.47L653.25 8.05L653.76 13.55L654.76 13.97C655.53 14.92 654.88 15.15 654.76 16.52H653.76C653.36 16.67 653.63 17.69 652.24 17.36C651.9 16.94 651.56 16.52 651.24 16.09C650.24 15.62 650.65 16.53 649.72 15.67H649.21V17.36H649.72C649.77 19.15 649.97 19.57 651.72 19.9L652.23 23.29C650.45 23.58 650.23 24.29 649.23 22.87H648.72C648.724 23.4706 648.901 24.0573 649.23 24.56H649.74L649.23 27.56C651.29 28.05 650.23 28.42 651.76 29.25V30.52H651.26C650.68 31 651.26 30.7 650.26 30.95C649.56 30.2 650.14 31.11 649.26 30.52V30.1C647.88 29.1 646.85 27.91 644.7 27.56L645.21 29.25C645.21 29.3 644.52 29.43 644.7 30.1H645.21C645.54 31.51 645.88 32.92 646.21 34.33C644.78 34.2427 643.398 33.7843 642.2 33L641.7 32.16H640.18L639.67 31.31L637.67 30.89C637.5 30.46 637.34 30.04 637.17 29.62C636.284 29.0298 635.234 28.7325 634.17 28.77C634.383 29.647 634.928 30.4071 635.69 30.89V33H635.18V33.43C634.27 33.75 632.91 32.54 632.65 32.16H632.14C632.381 33.3119 632.716 34.4423 633.14 35.54L634.14 35.97C634.31 36.53 634.47 37.1 634.64 37.66L635.64 38.09C635.81 38.65 635.97 39.22 636.14 39.78C639.9 39.98 639.8 41.7 642.73 42.32V43.17C639.85 42.87 639.43 41.49 636.65 41.05C636.649 41.6905 636.784 42.3239 637.046 42.9084C637.308 43.4928 637.691 44.0149 638.17 44.44C638.172 45.1773 637.997 45.9043 637.66 46.56L636.14 46.98V46.56H634.6C634.27 46.13 633.93 45.71 633.6 45.29H632.6V44.86C631.09 44.13 629.6 43.86 628.54 42.74H628C627.88 43.65 627.4 44.48 628 45.74H628.5V46.59H629C630 47.59 630.38 47.72 630.52 49.59L626 48.7C625.51 47.16 624.47 47.16 623.47 46.16H623C623 46.82 623.51 49.16 623.51 49.16H623C623.035 49.7556 623.21 50.3345 623.51 50.85L626.51 51.28C626.98 52.73 627.58 52.36 628.03 53.82H629.55V54.24L628.55 54.66V55.09H628C627.487 54.3037 626.817 53.6316 626.032 53.1154C625.248 52.5993 624.365 52.2502 623.44 52.09L623 54.63L624.52 55.48L625 57.6H625.5V58H628V58.43H628.5C628.33 58.99 628.17 59.55 628 60.12L629.52 60.54V61.39C628.609 61.421 627.726 61.7163 626.98 62.24V62.66C626.1 62.89 623.79 61.34 623.44 60.97H623C622.69 61.81 623.07 61.33 622.49 61.81C622.72 64.44 623.69 64.81 626.04 65.63V66.47C624.477 66.5206 622.922 66.2341 621.48 65.63V65.2H619.96L619.45 64.35H617.93C616.71 63.68 617.99 62.83 615.4 62.24C615.66 64.07 616.54 65.45 616.92 67.32C617.92 67.57 617.36 67.26 617.92 67.74H618.43L617.88 69C620 69 620.56 68.74 621.43 69.85C621.75 70.39 622.05 69.68 621.94 70.27H621.43C621.047 71.3083 620.347 72.2002 619.43 72.82V73.24L616.9 72.82V72.39H614.37V72H613.37V71.57H610.37L609.87 70.73H608.35V70.3C607.725 70.006 607.04 69.8622 606.35 69.88L606.86 72.42H606.35V72.85H609.35C609.15 74.58 608.69 74.17 610.87 74.96L610.36 77.08L611.88 77.5V77.93H612.39L611.88 79.2H612.88V79.62C613.88 80.47 613.66 79.62 613.88 81.32H611.3V80.89H610.79C610.95 82.77 611.57 82.59 611.79 84.28H613.31C613.275 84.8742 613.104 85.4523 612.81 85.97C613.18 86.2065 613.517 86.4925 613.81 86.82L616.34 87.25C616.6 87.38 616.75 87.83 617.34 88.09L616.83 89.79L619.83 90.21L620.34 91.06C622.68 92.32 624.19 93.5 627.94 93.6C627.57 94.82 627.39 95 625.94 95.29V96.14H628.47V97C625.56 97.4 625.95 97.23 623.41 96.57H620.41V96.15H614.83C614.5 95.58 614.16 95.02 613.83 94.46L606.74 94V93.6C605.45 92.86 605.74 92.6 603.74 92.33V93.17H604.74V94.45H603.74V95.72C604.903 95.98 606.089 96.1207 607.28 96.14C607.11 96.56 606.95 96.99 606.78 97.41C603.22 97.41 600.93 96.74 599.68 94.87H598.68C599.26 95.87 600.96 97.53 599.68 98.68V99.1H601.68V99.53H602.19C602.6 100.26 601.82 100.19 601.68 100.37L602.19 101.65H604.72L605.23 104.19H607.76V105.46C608.745 105.216 609.775 105.216 610.76 105.46V107.57C611.33 107.94 610.84 107.57 611.27 108L614.27 108.85V109.27C615.85 109.65 616.27 108.46 617.27 108.42V108.85C618.27 109.1 617.7 108.79 618.27 109.27C617.706 109.436 617.187 109.727 616.75 110.12C615.407 110.09 614.069 109.946 612.75 109.69V111H609.2V111.85C608.2 112.1 608.76 111.79 608.2 112.27H607.69L608.69 113.54H609.2V114.39H609.71C610.57 115.53 609.22 115.19 611.23 115.66V116.93C612.23 117.19 611.66 116.87 612.23 117.36H612.74V117.78L611.22 118.2V116.93L608.68 117.36L608.18 116.51H606.66V116.93C605.983 116.911 605.318 116.751 604.706 116.46C604.095 116.169 603.551 115.753 603.11 115.24H602.6L603.11 116.93L605.11 117.36C605.28 117.78 605.44 118.2 605.61 118.63C604.981 118.881 604.449 119.326 604.09 119.9H601.56V120.74C600.18 121.07 600.41 120.84 600.04 122.01H598.52V121.59C596.88 121.23 596.61 120.65 596.52 119.05H596.02L593.48 122.44H591V122.86H590.49V122.44H588.49V122H588C587.54 121.25 588.35 120.68 588.51 120.31C587.51 120.56 588.07 120.25 587.51 120.73C585.33 120.64 585.8 120.47 584.51 119.89V119H583.51L584.02 117.31H582.5C582.86 116.08 583.04 115.9 584.5 115.61V115.19C585.6 114.85 586.25 116.02 586.5 116.46H588.5L587.5 115.19C588.305 114.795 589.159 114.509 590.04 114.34C590.37 113.49 590.71 112.65 591.04 111.8C593.04 111.35 592.63 110.53 594.59 110.11C594.724 109.567 594.971 109.059 595.316 108.62C595.66 108.18 596.095 107.819 596.59 107.56V106.3L595.07 106.73V107.15L590 106.3V105.46H588C588.34 104.74 589.57 102.77 589 101.65H588.5C587.921 101.088 587.565 100.335 587.5 99.53H588.5C589 98.96 589.5 98.4 590.02 97.83L591.54 97.41V96.56H589C589.028 96.221 589.133 95.8929 589.306 95.6002C589.479 95.3074 589.716 95.0578 590 94.87V94.45L585.94 94.87V94C587.41 93.69 587.62 93.55 587.94 92.31H588.45V91.46L585.45 92.31V91.9H585V89.79L588.55 90.63V89.79L584.49 88.09L585 85.55H585.51V83L586.51 82.58V79.2H585.51C585.03 80.97 583.87 81.3 582.97 82.59H581.97V81.32C581.4 80.95 581.89 81.37 581.46 80.89H579.46V79.62C580.095 79.8826 580.773 80.0282 581.46 80.05C581.29 79.34 581.13 78.63 580.96 77.93C581.62 77.7 580.82 77.76 581.46 77.5H582.98V77.08H583.49C583.15 76.23 582.81 75.39 582.49 74.54C584.74 73.8 586.92 73.26 587.55 71.15L585.02 71.57C585.3 70.1 585.53 70.78 585.02 69.46C585.655 69.1976 586.333 69.052 587.02 69.03C587.17 67.6 587.42 67.03 588.54 66.49V65.65L587.02 66.07C586.46 67.8 586.68 66.5 585.5 67.34V67.76H585C584 68.76 585.56 68.59 583.48 69.03V69.46L581.48 69.03C581.48 69.03 581.37 69.36 580.48 69.46V67.76C579.577 68.1986 578.865 68.9527 578.48 69.88L573.42 69.46C573.978 68.7199 574.324 67.8418 574.42 66.92C573.36 66.8 572.97 66.92 572.42 66.49V65.65L570.9 66.07C571.061 65.4183 571.409 64.8277 571.9 64.37H572.4V63.1H572.91V62.26L574.43 61.41V61C575.921 61.3656 577.458 61.5071 578.99 61.42V64H579.5C580.33 66.42 580.93 64.79 582.5 65.7V66.12H583.5C583.194 65.6034 583.019 65.0198 582.99 64.42C582.043 63.8814 581.036 63.4551 579.99 63.15V61.83H580.5L584.44 58V56.75C582.61 57.45 581.24 58.17 580.39 59.75C577.31 59.68 576.82 58.84 574.82 58.05C575.15 55.81 576.33 55.72 576.34 52.97H573.8V51.67H573.3C573.42 50.73 573.3 50.53 573.8 49.97H574.31V49.13H574.82V48.7C576.41 49.34 576.17 48.91 577.82 48.7V47.86H575.82L575.31 45.74H574.81V44.47H575.31C576.74 43.71 577.25 45.71 579.87 44.89V44.47H580.87V44.05L581.87 43.62V41.93L583.39 41.08C583.04 39.93 582.7 40.08 582.39 38.96C582.95 38.48 582.6 38.96 582.89 38.12C581.15 38.24 579.01 39.04 577.83 38.12C577.26 37.75 577.75 38.17 577.32 37.69C579.06 37 579.82 35.9 581.32 35.15V34.3C580.685 34.5626 580.007 34.7082 579.32 34.73V32.61H577.32V31.34C576.154 31.0801 574.965 30.9394 573.77 30.92V30.07H572.77V31.76H572.26L572.77 34.3H571.25C571.66 35.59 572.19 35.76 573.78 36C573.61 36.7 573.45 37.41 573.28 38.12L574.28 38.54V39.39H572.76V39C571.47 38.12 572.55 38 570.23 37.73C570.53 38.58 570.16 38.1 570.73 38.58V40.27H570.23V40.7C569.23 41.19 567.6 40.42 567.23 40.27C567.64 41.6 568.42 42.17 568.75 43.66C569.612 43.6543 570.468 43.7998 571.28 44.09V44.93C569.33 44.72 569.87 44.41 568.28 44.09C568.28 44.6743 568.418 45.2504 568.682 45.7716C568.946 46.2928 569.329 46.7445 569.8 47.09C569.49 47.93 569.87 47.45 569.29 47.94V48.36L567.77 47.94V48.36H566.77V47.94C564.77 47.94 562.99 48.08 562.21 47.09C561.71 46.46 562.37 45.83 561.7 45.4H560.7V44.97H559.18V44.55H558.18V44.13H557.67L557.16 44.97L555.64 44.55C555.64 46.17 555.74 46.32 554.12 46.67C554.47 47.23 555.38 47.44 555.12 48.36H554.61V48.78C554.61 48.84 555.36 48.95 555.12 49.63C555.04 49.86 553.73 49.76 554.12 50.9L555.12 51.33C555.29 52.17 555.45 53.02 555.62 53.87H556.62C556.79 54.57 556.95 55.28 557.12 55.98H555.6C555.43 56.41 555.27 56.83 555.1 57.25C557.15 57.75 556.1 58.11 557.63 58.95V59.8C556.489 59.6889 555.389 59.3185 554.413 58.7171C553.437 58.1157 552.612 57.2992 552 56.33H550.5C551.02 57.76 551.11 57.13 552.02 58.02H552.52V59.72C552.75 60.11 553.17 59.72 553.52 60.99H551L552 66.07C552.14 66.33 552.66 66.07 553 67.34C552.43 67.82 552.78 67.34 552.49 68.19H553.49C553.66 68.61 553.82 69.03 553.99 69.46H553.49C553.492 70.1941 553.317 70.918 552.98 71.57H549.43C548.72 69.45 546.49 69.27 545.89 66.92C544.89 66.66 545.45 66.92 544.89 66.49H544.39C544.32 69.1 544.26 71.27 545.91 72.42L544.91 73.69H541.91C541.74 74.4 541.58 75.1 541.41 75.81H542.41C542.46 77.43 542.31 77.58 543.93 77.93V78.77C544.93 79.03 544.37 78.77 544.93 79.2C545.93 79.45 545.37 79.14 545.93 79.62C545.47 79.77 543.44 80.56 542.38 80.05V79.62H541.87C542.05 81.7 542.95 81.72 543.39 83.43L546.39 84.28V86H547L547.51 87.28C548.63 87.17 548.87 87.28 549.51 86.85V86.4H550.51V86H551.51L551 87.25C551 87.25 551.79 87.43 551.51 88.09C551.246 88.1947 551.015 88.3674 550.839 88.5904C550.663 88.8134 550.55 89.0789 550.51 89.36C548.68 89.02 548 88.5 545.44 88.52C545.22 87.16 545.12 86.85 543.92 86.4H542.92C542.23 85.98 542.92 85.32 542.41 84.7L540.89 84.28V83.86C540.32 84.34 540.67 83.86 540.38 84.7H539.88C539.67 85.18 540.67 86.51 540.88 86.82H541.39V88.52C539.08 88.41 539.22 87.92 537.84 87.25V87.67H537.33L540.88 91.9H541.88V93.17H541.38V93.6C543.53 93.38 545.97 92.72 547.46 94.02C548.171 94.1859 548.847 94.4735 549.46 94.87V96.14C550.796 96.4156 552.156 96.5563 553.52 96.56C553.17 97.72 552.83 97.56 552.52 98.68H554.52V99.1C555.382 99.0943 556.238 99.2398 557.05 99.53C556.693 100.106 556.16 100.551 555.53 100.8C556.02 102.25 556.18 101.59 557.05 102.49L555.53 102.92V102.49H555.03V102.92C554.423 103.325 553.744 103.611 553.03 103.76V102.49C551.857 102.705 550.654 102.705 549.48 102.49V102.07H549V100C545.06 100.63 546 100 543.42 98.73C543.048 99.5228 542.876 100.395 542.92 101.27C541.955 101.142 541.061 100.695 540.38 100H539.88C540.05 99.58 540.21 99.15 540.38 98.73L537.38 99.15C536.89 98.63 535.76 98.33 535.38 97.88V97H534.87C534.18 96.38 534.62 96.42 533.35 96.15C533.47 98.15 534.02 99.5 535.35 100.38H536.35L536.86 101.66H537.86C537.634 102.048 537.281 102.345 536.86 102.5L537.36 103.35L539.9 102.93V102.08H540.9V103.35H543.43V104.62H543.94C544.31 105.09 545.39 106.11 546.47 105.89C546.58 105.89 546.64 105.18 547.47 105.47C547.758 105.8 548.096 106.083 548.47 106.31C548.175 107.134 548.175 108.036 548.47 108.86C547.47 108.69 547.47 108.44 547.47 108.43H544.93V108H543.93V107.57H542.41L541.9 106.73H540.9V106.3L539.38 105.88C539.36 107.166 539.189 108.444 538.87 109.69C535.87 109.15 534.33 107.42 531.27 107.15C531.335 107.599 531.507 108.027 531.771 108.396C532.036 108.765 532.385 109.064 532.79 109.27V109.69H534.79C535.29 109.95 535.22 110.83 536.31 111.39V112.66C537.675 112.863 539.027 113.143 540.36 113.5L540.87 114.35C541.469 114.699 542.135 114.917 542.825 114.989C543.514 115.062 544.211 114.987 544.87 114.77V117.32C542.288 117.27 539.728 116.842 537.27 116.05V115.62L534.27 115.2V114.77L532.27 113.5V112.23H531.76V111.81H531.25V112.66C530.211 112.335 529.207 111.909 528.25 111.39V110.54C526.55 110.49 526.4 110.54 525.72 109.69H525.21L525.72 112.69C525.72 112.77 525.05 112.84 525.21 113.53H525.72V115.23H526.23V116.92H525.72L526.23 118.62C524.13 118.62 523.63 118.45 523.23 119.89H527.28V120.73H526.28V121.58H527.28V123.7C526.854 123.852 526.499 124.155 526.28 124.55C525.556 124.427 524.871 124.136 524.28 123.7V123.28H523.28V122.85L521.76 123.28V122.85L518.76 122C518.93 120.59 519.09 119.18 519.26 117.77L520.26 117.35V116.92H517.72C517.55 116.5 517.39 116.08 517.22 115.65H515.22V115.23H514.71L515.22 113.53H513.7V111H512.7V110.16H510.7V108.89C512.31 108.55 512.56 108.33 512.7 106.77H511.7C512.123 105.73 512.631 104.726 513.22 103.77H512.22V105H510.7C511.19 103.55 511.35 104.21 512.22 103.31C511.585 103.047 510.907 102.905 510.22 102.89V101.62H511.22V100.77C511.43 100.38 512.66 100.52 512.22 99.5H511.71V96.5C511.14 96.86 511.63 96.5 511.21 96.93L509.69 97.35V99.47L505.13 100.74V102.01H504.62C504.278 102.335 504.011 102.73 503.839 103.169C503.666 103.608 503.591 104.079 503.62 104.55H502.62C501.92 106.7 499.62 107.69 498.57 109.63C497.4 109.8 496.65 110.3 495.02 110.06C494.986 109.964 494.932 109.875 494.863 109.8C494.793 109.726 494.708 109.666 494.614 109.626C494.52 109.585 494.419 109.565 494.317 109.566C494.214 109.566 494.113 109.588 494.02 109.63V110.06C491.19 110.73 493.49 110.65 492.5 112.17H491.99C491.49 112.62 491.14 113.214 490.99 113.87L488.46 114.29V114.71H487.95V115.99H487.44V116.41C486.711 116.303 486.022 116.011 485.44 115.56V115.14L482.9 114.71V114.29C481.16 113.08 482.75 113.87 481.9 112.6L480.9 112.17V111.33H480.39L479.88 109.21C480.59 109.377 481.267 109.665 481.88 110.06C482.22 109.49 482.56 108.93 482.88 108.36H483.88C484.19 107.36 484.41 107.43 484.88 106.67H487.41L487.92 107.51C488.777 107.729 489.671 107.768 490.543 107.623C491.416 107.478 492.249 107.154 492.99 106.67C493.56 106.31 493.07 106.67 493.49 106.24C492.852 105.987 492.176 105.845 491.49 105.82V105C492.85 104.77 493.39 104.57 494.02 103.73H494.53C494.6 103.08 493.17 102.73 493.01 102.46V101.62L495.54 101.19C495.6 99.77 495.54 99.64 496.54 99.07C496.104 98.6779 495.584 98.3906 495.02 98.23C495.865 97.5068 496.913 97.0631 498.02 96.96C497.76 96.5 497.08 96.22 497.02 96.11C497.304 94.3578 497.815 92.6501 498.54 91.03C497.97 90.66 498.46 91.03 498.03 90.6C497.127 90.657 496.254 90.9501 495.5 91.45L494.99 92.72H495.5V93.57H492.97C492.54 96.43 490.26 96.72 489.97 99.5C486.66 99.64 488.06 100.36 486.42 101.62V102.04C486.054 101.798 485.718 101.512 485.42 101.19H482.6C482.3 100.35 482.67 100.83 482.1 100.34V100H480.58V99.58C478.02 99.8 477.93 101.04 478.04 103.39L474.5 102.54V102.97H472C471.8 102.89 471.31 101.81 470.48 101.7C469.98 102.08 470.54 102.07 469.48 102.12C469.48 100.26 469.34 99.81 467.96 99.12C467.38 98.65 467.96 98.94 466.96 98.7L465.96 99.97H465.46C465.55 100.34 466.46 100.97 465.96 101.67H465.46V102.09C464.46 102.53 463.33 101.8 462.92 101.67V102.51H461.4V102.09H460.9C460.585 101.12 460.413 100.11 460.39 99.09H458.39V97.41H457.89V97H457.38L457.89 101.23C457.8 101.52 456.78 101.42 456.89 102.08H457.4C457.74 103.35 458.08 104.62 458.4 105.89H459.4V107.16L457.88 107.58V105.89H456.36C456.53 107.58 456.69 109.28 456.86 110.97L458.86 111.82C460.15 113.63 457.57 113.08 460.86 114.36C460.29 116.09 460.63 114.85 459.34 115.63C458.95 115.86 459.03 116.18 458.34 116.48V118.6H456.34V119.87L454.82 120.71V121.14H454.31V120.71H453.31C453.77 120.49 453.23 116.87 453.81 115.63H453.31V115.21H452.8C452.46 116.06 452.12 116.9 451.8 117.75H451.29L450.29 119.02C448.72 118.65 448.39 118.02 447.29 117.33V116.9H445.77L445.26 114.78H443.74L443.23 113.51H441.71V113.94H441.21V111.4H439.69V111L438.17 110.58C438.28 108.51 438.49 108.93 438.17 107.19C438.594 107.034 438.948 106.733 439.17 106.34H440.17C440.38 104.69 440.99 104.46 441.69 103.34H440.69V102.07C442.07 101.75 441.84 101.97 442.21 100.8H442.72C443.04 100.01 442.42 100.2 442.21 99.95V99.53C441.588 99.8317 440.901 99.976 440.21 99.95V99.53H439.71C439.98 97.93 440.45 97.83 441.23 96.53H441.73C442.6 94.91 441.85 94.12 441.73 92.3H440C439.601 91.353 439.429 90.3254 439.5 89.3L438 88.94L437.49 85.94L436 85.55V86.4H435.49V86.82H436C436.33 88.26 435.7 89.2 435.49 90.21H434V89.36H433.5V91.06H432.5C432.528 91.399 432.633 91.7271 432.806 92.0199C432.979 92.3126 433.216 92.5622 433.5 92.75C433.19 93.6 433.57 93.12 432.99 93.6C432.22 94.05 431.05 93.26 430.46 92.33H429.46C429.69 92.89 430.2 93.05 429.97 94.02H429.46V96.56H429.97V98.26H430.48V99.1L431.48 99.53L431.99 103.34H432.49C432.978 103.796 433.325 104.383 433.49 105.03C434.19 105.85 432.35 107.86 431.97 109.27L427.38 108L426.87 107.15H425.87L425.36 105.88H424.85C424.06 105.13 424.27 104.93 422.85 104.61V106.73C422.85 106.84 423.54 106.86 423.35 107.57H422.85V108.85L421.85 109.27C420.99 110.47 420.85 111.61 420.85 113.5H418.85V114.35H419.36C419.51 115.06 418.88 115.09 418.85 115.2V117.74C417.29 117.37 416.96 116.74 415.85 116.05V115.62H414.2C414.28 117.21 414.48 119.22 415.2 120.28L416.2 120.7V122.4L417.2 122.82L417.71 124.94L419.23 125.79L418.72 126.63L420.24 127.06V128.33H420.75V128.75H422.27V130.87C421.7 131.23 422.19 130.81 421.76 131.29H419.23C419.54 132.29 419.76 132.22 420.23 132.99H423.23V133.83C421.4 134.18 421.02 134.89 419.69 135.53V136.8H417.15L416.65 135.95H415.65L414.65 134.68H413.65V134.26L412.13 133.41V133C411.73 132.5 412.13 133 411.62 132.57V131.73L409.09 132.15C408.09 130.83 406.14 130.91 405.54 129.15H404.02V130.43L402.5 130C402.16 129.15 401.82 128.31 401.5 127.46H401V124.92L399.48 124.07V123.65C399.1 123.14 399.48 123.65 398.97 123.23V122.8H397.97V122C396.14 121.61 396.89 121.25 394.42 121.16C394.56 122.36 394.63 122.7 395.42 123.28C394.7 125.58 394.59 124.18 392.88 124.97L392.38 125.82H390.9V126.24H390.39C389.7 127.83 390.1 126.59 390.39 127.93L389.39 128.36C388.93 129.36 389.67 130.36 389.89 130.9L388.37 131.32V133C387.425 132.457 386.418 132.03 385.37 131.73L385.88 134.27H386.39C386.72 136.53 387.06 138.78 387.39 141.04C386.16 141.022 384.948 140.735 383.84 140.2C383.41 140.67 383.91 140.26 383.34 140.62C383.75 141.98 384.49 142.24 385.87 142.74V143.58H383.87C383.7 143.16 383.54 142.74 383.37 142.31C382.62 141.5 381.47 141.19 380.83 140.2H380.33C380.5 141.2 380.66 142.2 380.83 143.2L381.83 143.62L381.32 144.9L385.37 146.59C385.01 147.163 384.478 147.608 383.85 147.86V148.71C383.98 148.83 385.08 147.91 385.85 148.28L386.36 149.55C386.86 149.84 387.36 150.12 387.88 150.4V150.82C386.423 150.861 384.994 150.414 383.82 149.55H383.32L382.81 150.82C381.98 151.19 379.03 150.21 378.81 149.98H377.29C377.529 150.626 377.931 151.199 378.456 151.644C378.982 152.089 379.614 152.391 380.29 152.52V153.37L383.29 153.79V154.64H385.29V155.91C383.84 155.91 382.54 155.99 381.75 155.48L381.24 154.64C380.24 154.05 380.49 154.84 379.72 153.79H377.72V154.21H377.22C377.39 154.64 377.55 155.06 377.72 155.48L374.72 155.06V155.91C375.49 157.07 376.4 156.06 376.72 158.45H379.25C379.08 158.87 378.92 159.3 378.75 159.72H379.25V160.57C378.387 160.591 377.528 160.445 376.72 160.14V159.72C375.99 159.51 375.99 160.48 375.72 160.57C374.48 160.92 371.6 159.68 371.16 159.3H370.65V158C369.688 157.872 368.797 157.425 368.12 156.73H367.61V155.46C366.82 155.46 364.06 155.04 364.06 155.04V155.46H362.54V155H362V152.46H361.49V152.04C360.91 151.86 359.34 152.7 358.96 152.88V153.31C357.94 153.494 356.887 153.344 355.96 152.88V152.46H355.45V152.88H353.45V151.2C352.07 151.49 352.31 151.77 350.92 152.05L351.43 149.05C352.57 149.05 353.43 148.97 353.96 149.47V150.32C354.38 150.74 354.96 150.61 355.48 151.17H357C356.52 150.41 356.28 150.51 356 149.47C356.638 149.217 357.314 149.075 358 149.05V147.78H359.52V146.09H360.52L360.01 144.39H361.01V143.12H363.01V142.7H363.52V143.12L365.52 143.54V144C367.05 144.45 368.17 143.38 369.07 143.57V144H370.07V144.42L372.61 144.85V144.42H374.61C374.18 143.94 374.68 144.36 374.11 144C373.918 143.631 373.632 143.319 373.281 143.096C372.93 142.873 372.526 142.747 372.11 142.73V141.88L369.11 141.46C368.68 140.98 369.18 141.39 368.6 141.03V138.92L370.12 138.49V136.37L366.58 137.22V137.65H365.58V138.07L362.58 137.65V136L358.58 135.58C358.81 132.38 359.52 134.35 361.11 133.04C360.94 132.61 360.78 132.19 360.61 131.77L362.13 131.34L364.13 127.95H364.64V126.26H363C363 123.87 363.74 122.85 365.53 122.02V121.6H360.5V120.75H361.5V120.33C359.79 120.33 359.65 120.33 358.97 121.18H356.97V120.75C356.32 119.98 357.79 118.75 358.97 118.21V117.79H355.97C356.58 115.93 358.44 115.41 358.97 113.55H357.45C357.62 112.14 357.78 110.73 357.95 109.32H356.95L356.44 107.2H355.94V108.47H355.43V108.9H353.91L353.4 110.17H352.9V111.44L351.38 112.28V113.55H350.87C350.558 113.924 350.172 114.23 349.737 114.448C349.302 114.667 348.826 114.793 348.34 114.82C348.51 115.95 348.67 117.08 348.84 118.21C345.84 117.61 346.66 116.21 343.27 116.1V117.79C342.7 118.15 343.19 117.73 342.76 118.21H341.76V119H339.23V118.58H338.72C339.02 119.79 339.92 120.58 339.72 121.96H339.22V122.39H339.72C340.137 123.332 340.312 124.363 340.23 125.39C341.61 125.72 341.38 125.49 341.75 126.66C340.75 126.41 341.31 126.72 340.75 126.24C340.065 126.27 339.389 126.412 338.75 126.66L339.26 128.36H339.76V128.78H339.26C339.36 129.78 339.53 129.61 340.26 130.05C339.49 132.05 339.8 130.48 338.26 131.32V131.75C337.86 131.959 337.514 132.259 337.25 132.625C336.986 132.991 336.812 133.414 336.74 133.86C335.879 133.868 335.023 133.726 334.21 133.44V132.17H334.72V130.9L333.2 131.32L332.69 132.17L328.13 131.32L327.62 132.17H326V132.59C325.276 133.15 324.385 133.449 323.47 133.44L322.96 131.32H322.46C322.63 130.76 322.79 130.19 322.96 129.63H320.96C321.13 128.78 321.29 127.93 321.46 127.09H321V126.66H321.5L322.01 125.39L321.01 124.97V124.12H322.01C322.31 123.28 321.94 123.76 322.52 123.28V122.85H324L324.5 122H327.5C327.66 120.12 328.28 120.3 328.5 118.62C327.324 118.788 326.253 119.391 325.5 120.31H323V119.89C321.7 119 322.8 118.89 320.47 118.62V116.92H319V114.38H319.51V113.96L321.03 114.38V113.96H322.55C322.98 113.48 322.48 113.89 323.05 113.53C323.018 112.387 322.85 111.253 322.55 110.15H320.55V110.57L319 111L318.49 110.16C317.81 109.9 317.05 109.93 316.49 109.73C316.07 107.73 316.07 108.03 316.99 106.34H315.99L316.5 104.23H317V103.38L318 102.96L317.49 102.11C317.8 101.76 318.13 101.86 318.49 101.26L316.97 100.84C316.97 98.51 315.77 95.52 314.97 94.91V94.49H314.46V96.18C312.7 96.49 311.99 97.18 310.41 97.45C310.58 98.01 310.74 98.58 310.91 99.14L309.39 99.57C309.54 101.8 310.48 102.87 310.91 104.65H309.39V103.8H308.89L305.89 100.8C305.45 100.32 305.95 100.73 305.38 100.37C305.091 101.099 304.552 101.701 303.86 102.07C304.155 102.396 304.491 102.682 304.86 102.92C305.54 104.02 304.94 104.84 304.86 106.3H303.86C303.66 107.24 302.86 108.3 303.35 109.69H303.86V112.69H304.37L303.86 115.23L304.86 115.65V116.92C305.86 117.18 305.3 116.86 305.86 117.35H306.36V118.62H307.36C307.16 120.12 306.64 120.62 306.36 122H304.36C303.95 120.72 303.41 120.55 301.82 120.31C301.65 119.31 301.49 118.31 301.32 117.31H300.81C300.51 117.042 300.266 116.716 300.094 116.352C299.923 115.987 299.826 115.592 299.81 115.19H298.81L299.32 117.73H298.81V120.73H299.32V121.16H300.84C300.805 121.756 300.63 122.335 300.33 122.85L301.85 123.28V124.55H299.85V125.82C299.944 125.892 300.049 125.949 300.16 125.99C300.16 125.99 300.16 125.99 300.35 126.24H302.35V127.51C300.98 128.17 301.43 128.59 299.35 128.78C299.998 129.801 300.861 130.668 301.88 131.32C301.71 131.75 301.55 132.17 301.38 132.59H294.28C294.096 132.802 293.854 132.956 293.584 133.032C293.314 133.108 293.028 133.104 292.76 133.02V132.59H291.24V133.86C291.95 134.027 292.627 134.315 293.24 134.71V136.4H290.71C290.21 135.88 289.07 135.57 288.71 135.13C287.71 133.99 288.15 133.43 286.18 133.02V133.86H285.67L286 136H286.5C286.691 136.37 286.977 136.682 287.328 136.905C287.68 137.129 288.084 137.254 288.5 137.27C288.79 139.03 289.56 138.75 290.02 140.27H291.54V141C290.54 141.26 291.1 140.95 290.54 141.43L289.02 141.85C289.245 142.603 289.583 143.317 290.02 143.97H289.51V144.39C287.78 144 288.21 143.49 286.51 143.12C286.825 144.09 286.997 145.1 287.02 146.12L289.02 146.54V148.23H288.51C288.35 148.55 287.6 150.59 288 151.23H288.51C288.569 152.256 288.395 153.281 288 154.23H286.48V153.81C284.63 153.81 283.14 153.81 282.48 152.96V151.69H282C281.43 151.22 282 151.51 281 151.27C280.691 151.782 280.515 152.363 280.49 152.96L278.49 152.54C278.456 151.666 278.627 150.796 278.99 150L277.47 149.57C277.3 149.15 277.14 148.73 276.97 148.3C276.97 148.3 277.67 148.11 277.47 147.46H276.97V145.76H277.47V145.34C276.9 144.62 276.47 145.8 275.95 144.07H274.43V143.22H277.43V142.8C278 142.44 277.51 142.85 277.94 142.37L274.94 141.1V140.26C274.51 139.49 273.8 139.34 272.94 138.99V138.14C272.079 138.143 271.224 138.001 270.41 137.72V136.87H267.88V135.17L270.41 134.75V134.33H273.41V134.75C275.1 135.03 276.79 133.75 277.41 133.06C278.41 132.8 277.85 133.06 278.41 132.63C275.41 132.11 273.35 131.3 269.29 131.36V129.24H269.79V128.82H271.31L271.82 127.55C271.39 127.42 270.25 126.69 269.29 127.13V127.55C268.274 127.571 267.261 127.43 266.29 127.13V125.01C267.29 124.75 266.72 125.07 267.29 124.59H267.8C267.118 123.132 266.776 121.539 266.8 119.93H267.8C268.16 119.66 266.32 119.17 266.28 119.08C265.96 118.49 266.78 118.23 266.78 118.23C266.78 117.63 266.2 117.63 265.78 117.39L266.29 115.27H264.77V114.84L261.22 115.27V116.96C260.794 117.112 260.439 117.415 260.22 117.81H259.22C259.335 118.727 259.679 119.601 260.22 120.35L257.22 121.2V121.62L255.7 122.47C255.87 123.6 256.03 124.73 256.2 125.86H256.71V126.7H257.22C257.39 127.13 257.55 127.55 257.72 127.97L254.72 128.4C253.998 129.844 253.654 131.447 253.72 133.06C251 132.92 251.17 132.21 249.16 131.79V132.63L247.64 133.06C247.78 133.717 248.131 134.311 248.64 134.75H249C250 135.91 249.58 136.47 251.53 136.87C251.53 138.63 251.64 139.87 250.53 140.68L249 141C248.66 141.63 249.51 141.85 249.51 141.85L249 143.12H244.44C244.78 144.39 245.12 145.66 245.44 146.93H241.39C240.56 147.35 241.31 148.45 240.88 149.05C240.32 149.85 236.88 150.62 235.31 150.74C235.532 151.133 235.886 151.434 236.31 151.59V152.02C234.983 152.402 233.629 152.683 232.26 152.86C232.88 153.76 233.43 153.78 233.78 154.98H234.78V155.83L237.78 156.25V156.67C239.86 156.2 238.37 156.48 239.3 155.4C239.58 155.08 239.96 155.15 240.3 154.56H241.3V156.25C240.73 156.61 241.22 156.19 240.79 156.67H239.79C239.871 157.26 240.043 157.833 240.3 158.37H239.79V158.79L241.79 160.06V161.76C242.04 162.18 242.44 161.76 242.79 163.03C242.14 163.47 242.24 163.75 241.79 164.3H241.28V165.57L239.76 165.99L238.76 167.26H236.22V166.84H235.72C234.92 168.08 236.43 169.39 236.22 170.23H235.72C234.62 173.1 233.72 173.34 230.65 174.46L230.14 177L231.14 177.43V178.27C229.52 178.62 228.87 179.39 227.59 179.97L228.1 181.24L232.66 180.39V182.09H231.3C230.63 183.55 230.87 184.25 229.3 185.09V185.51L227.3 185.09C227.13 185.51 226.97 185.94 226.8 186.36L225.8 186.78C225.63 187.63 225.47 188.48 225.3 189.33L224.3 189.75C224.01 190.48 224.77 190.48 224.81 190.6V193.14L223.29 193.56V194H222.29L221.78 194.85H220.26V195.28H219.26V195.7L215.2 196.12C214.87 196.55 214.53 196.97 214.2 197.39C212.6 197.9 212.52 196.66 212.2 196.55H209.2C209.03 196.97 208.87 197.39 208.7 197.82C207.7 198.07 208.26 197.76 207.7 198.24C205.1 198.19 205.14 197.69 203.65 196.97V195.7C204.65 195.95 204.08 195.64 204.65 196.12C205.556 196.07 206.433 195.78 207.19 195.28V193.58L210.19 193.16V193.58H212.72C212.72 193.58 212.72 193.85 213.72 194V190.62L220.82 189.77V188.92H219.82C219.89 185.67 221.19 185.92 222.82 184.26H223.82V183.84C221.82 183.92 221.28 183.94 220.27 184.69L219.76 185.53L218.24 185.96L217.74 186.8H216.74L216.24 187.65C214.37 188.46 213.94 187.19 212.18 187.65V188.08H211.18V188.5H209.66V188.92H208V189.35H207V189.77H200.9C200.846 189.029 201.021 188.289 201.4 187.65H201.91L201.4 183H199.4V182.58C198.02 182.26 198.24 182.48 197.88 181.31C197.31 180.83 197.66 181.31 197.37 180.46H197.88V180H199.4V179.57H199.9V178.3C200.9 178.05 200.34 178.36 200.9 177.88H201.4C200.92 177.12 200.67 177.22 200.4 176.19L202.93 175.76V174.92H199.39C198.9 176.46 197.86 176.46 196.85 177.46H195.85V178.3H194.33L193.82 179.15C192.46 180.017 190.872 180.459 189.26 180.42C189.37 178.36 189.58 178.77 189.26 177.03C193.73 177.03 191.37 176.56 192.26 174.03C192.26 174.03 192.65 174.03 192.77 173.18H194.77V172.76L192.23 172.33C192.47 169.72 192.55 171.15 193.75 169.79H194.26C194.49 169.32 193.09 167.44 193.75 166.41L195.27 165.98L195.78 164.71L196.78 164.29V162.17H197.29C198.36 161.09 198.47 161.99 198.81 160.05C196.87 160.05 196.69 159.97 196.28 161.32C194.912 161.531 193.557 161.814 192.22 162.17V162.59C191.352 163.219 190.289 163.52 189.22 163.44C189.49 160.78 190.32 161.53 191.76 160.05H192.26V158.78C192.77 158.5 193.26 158.22 193.78 157.93V156.7L194.78 156.28V155L195.78 154.58V152.46C197.78 152.46 198.95 152.46 199.83 151.61H200.34V151.19H196.79V149.49C194.69 149.75 194.59 150.4 193.25 151.19V151.61H189.7V152.88L188.18 152.46C188.07 149.93 188.28 149.11 191.18 149.07V148.65H189.18C189.57 147.49 189.3 147.65 190.7 147.38V147L187.16 147.43V146.58H185.16C185.465 147.093 185.64 147.674 185.67 148.27C186.48 148.565 187.338 148.711 188.2 148.7L187.69 149.97H186.2C186.424 150.469 186.767 150.906 187.2 151.24C187.162 151.835 186.988 152.413 186.69 152.93C185.492 152.978 184.294 152.836 183.14 152.51V150.39L185.68 149.97V148.7L183.14 148.27V147H184.66V146.58H185.17V146.16H182.64V144.46H185.17V145.31H186.69L186.2 144H183.67V142.73H184.18V142.3H182.66V143.57H180.12L179.62 142.73H176.62C176.79 142.02 176.95 141.32 177.12 140.61H176.62L176.11 139.34H176.62V138.92H174.62V138.49H174L174.51 140.61H174V141.46H173L173.51 143.57C172.325 143.534 171.141 143.679 170 144V144.42L173.55 145.27C173.128 146.311 172.619 147.314 172.03 148.27H169.49V147H170.49V146.58H169V147.43C167.06 146.95 168.3 147.34 167.48 146.16H167V144.89H166.49L165.99 144.04C165.19 143.56 164.81 144.04 163.99 143.19H163.48C163.72 145.1 164.79 145.94 166.48 146.58C166.31 147.29 166.15 147.99 165.98 148.7H166.98V149.97H166.47V150.39H169C169.17 150.81 169.33 151.24 169.5 151.66H163.93V152.93C162.764 153.215 161.546 153.215 160.38 152.93C160.05 152.09 159.71 151.24 159.38 150.39H158.38V149.54C157.374 148.728 156.123 148.28 154.83 148.27V148.7H153.83V149.12C152.6 149.45 151.9 148.66 151.29 148.7C151.12 149.12 150.96 149.54 150.79 149.97L149.27 150.39L148.76 151.24H147.76V151.66H145.76C145.865 151.079 146.036 150.512 146.27 149.97H145.76V148.7H146.27V148.27H147.79C147.89 145.92 148.79 145.85 149.31 144.04H147.7L147.19 144.89C146.06 145.73 145.6 146.37 143.64 146.58C143.47 147 143.3 147.43 143.14 147.85L138.07 149.12C138.07 148.12 137.89 147.01 138.58 146.58H140.1C140.6 145.87 141.1 145.17 141.62 144.46H143.14C143.21 142.46 143.79 141.79 144.14 140.23H145.14V138.96C143.38 139.35 143.25 140.06 141.09 140.23V141.5C139.529 141.95 138.125 142.831 137.04 144.04C136.134 143.983 135.258 143.69 134.5 143.19V141.5H136.5V141H137.01C136.648 140.513 136.468 139.916 136.5 139.31C138.78 139.05 137.97 138.57 140.55 138.46C140.94 137.31 140.67 137.46 142.07 137.19V136.34L139.07 136.77V135.5L143.63 132.96V131.26C142.63 131.52 143.2 131.2 142.63 131.69C141.944 131.656 141.269 131.511 140.63 131.26C140.33 130.42 140.7 130.9 140.13 130.42V128.3H140.63C141.52 127.21 142.01 127.21 142.15 125.3C140.1 125.48 139.01 126.3 138.61 127.84C136.55 128.32 137.3 129 134.55 129.11C134.83 127.01 135.64 126.26 136.55 124.88V124.03H137.06C137.56 123.584 137.91 122.993 138.06 122.34C139.06 122.08 138.49 122.4 139.06 121.91H139.57V120.7H138.05V120.28L134.5 120.7L135.01 119.43H134.5C134.12 118.28 134.38 118.43 132.98 118.16C132.64 119.01 132.31 119.86 131.98 120.7C129.35 120.54 129.47 119.87 126.41 119.86V121.55H125.9V122H126.41C127.26 123 127.34 122 127.93 123.7C128.803 123.886 129.652 124.171 130.46 124.55V125.39L129.46 125.82C129.07 126.98 130.46 126.99 130.46 127.09L129.95 128.36H129.45C129.61 128.78 129.78 129.2 129.95 129.63H127.42V129.2H126.42C125.74 128.36 125.06 127.51 124.42 126.66H123.91V127.51L124.91 127.93C125.25 128.71 124.4 129.2 124.4 129.2L124.91 131.75C122.91 131.5 123.15 131.23 121.91 130.48V130H119.37V129.58L117.37 129.15C117.94 130.89 117.59 129.65 118.89 130.43C119.27 130.66 119.19 130.97 119.89 131.27C119.5 132.42 119.77 132.27 118.37 132.54C119.122 133.462 120.193 134.068 121.37 134.24C121.06 135.08 121.44 134.6 120.86 135.08C120.92 137.2 121.78 137.74 123.86 138.08C124.19 139.08 124.01 138.87 124.86 139.35C124.822 139.945 124.648 140.523 124.35 141.04H122.35C121.65 141.17 122.56 141.55 121.85 141.47V141H120.85V139.73C118.7 139.56 118.15 138.81 117.85 137.19H116.33V138.46H115.33C115.622 138.789 115.958 139.075 116.33 139.31V141L118.33 141.85C118.64 142.37 117.6 144.27 118.33 145.66H118.84V146.51L119.84 146.93L119.33 150.32L118.33 150.74C118.12 151.38 119.22 151.32 119.33 151.59V152.44L117.33 152.02V150.74C115.74 150.4 115.06 149.74 113.27 149.47V150.74C112.27 151 112.84 150.69 112.27 151.17H111.76V151.59L113.28 152.02C113.11 152.44 112.94 152.86 112.78 153.29C111.36 153.13 111.25 153.29 110.78 152.44V151.59H110.27V151.17H108.75L109.26 154.17H108.75C108.37 155.37 107.85 155.39 107.23 156.29H106.23V154.6L107.23 154.17V153.33C106.706 153.394 106.203 153.581 105.764 153.874C105.325 154.168 104.96 154.56 104.7 155.02C103.839 155.023 102.984 154.881 102.17 154.6C101.837 153.501 101.665 152.359 101.66 151.21H100.14C99.76 152.4 99.23 152.42 98.62 153.33H97.62C97.23 152.17 97.5 152.33 96.1 152.06C95.52 151.58 96.1 151.87 95.1 151.63C93.98 152.78 92.03 153.34 91.05 154.63H90.05V154.2C89.85 153.95 89.24 154.2 89.54 153.36L91.54 152.51V152.09C92.04 151.8 92.54 151.52 93.06 151.24C92.68 149.99 91.95 150.45 93.56 149.54V149.12C92.8749 149.15 92.1994 149.292 91.56 149.54C91.2123 148.892 91.0368 148.165 91.05 147.43H92.05L94.05 143.61H95.05V141.92H95.56V141C95.1345 141.152 94.779 141.455 94.56 141.85C93.3619 141.898 92.1638 141.756 91.01 141.43C91.0538 140.413 91.2252 139.405 91.52 138.43H90V137.16C89 136.91 89.56 137.22 89 136.74H88.5C87.83 135.93 88.09 133.01 88.5 132.08H89L89.51 130.81L87.99 130.39V126.15H87.48C87.31 125.73 87.14 125.3 86.98 124.88L84.44 124.46C84.2 123.53 84.12 123.26 83.44 122.76V122.34H82.93V123.19L80.4 124.46L79.89 129.11H77.89V130.81H77.38L77.89 135.47H76.89V136.31L73.35 135.89C73.0516 136.845 72.5306 137.716 71.83 138.43H71.32L71.83 140.97H71.32C71.83 142.97 72.32 144.97 72.84 146.9H71.32L71.83 149.44H70.31V149.02H69.31L68.31 146.48L67.31 146.06V145.21H64.6C64.3 146.05 64.67 145.57 64.1 146.06C64.25 147.01 64.1 147.17 64.6 147.75H65.11V148.6L66.11 149.02C66.82 150.45 65.11 150.95 65.11 151.14C64.91 151.78 65.99 151.71 66.11 151.99V152.83C67.33 153.14 67.48 152.9 67.63 154.1H67.13C67.29 154.53 67.46 154.95 67.63 155.37C68.63 155.63 68.07 155.31 68.63 155.8H69.13C68.96 156.22 68.79 156.64 68.63 157.07L71.16 157.49V159.61L66.6 158.76C66.41 157.13 65.79 156.54 64.07 156.22L63.56 154.1H63.05L63.56 152.41C61.72 152.06 61.34 151.35 60.01 150.71C59.67 149.02 59.34 147.33 59.01 145.63C59.34 144.7 60.22 143.84 60.53 142.63H58.53V144L55.53 143.57V143.15H55V142.73C55.47 142.4 57.2 142.37 57.53 141.88C57.67 141.67 56.53 140.58 57.02 139.76H57.53C58.0095 139.297 58.355 138.713 58.53 138.07C59.53 137.81 58.97 138.13 59.53 137.65H60.03V136H60.54V135.58C59.6177 135.806 58.7527 136.221 58 136.8V137.22H56C56.1053 136.639 56.2764 136.072 56.51 135.53H56V131.29C55.0967 131.729 54.3853 132.483 54 133.41H52C52.16 132.7 52.33 132 52.5 131.29C51.8652 131.027 51.187 130.885 50.5 130.87L49.99 127.87H50.5V123.64C49.274 123.933 48.0837 124.359 46.95 124.91L46.44 126.18L43.91 127.87V128.3H42.39V128.72L40.87 128.3C41.17 126.59 41.5 126.85 42.39 125.76H42.9L42.39 122.37H39.86V122H39.35L39.86 119.89L44.42 118.62V118.19L42.42 117.77V118.19L39.89 118.62C39.45 118.14 39.95 118.55 39.38 118.19V116.92L40.9 116.08V115.23H41.41V114.38H41.91L42.42 113.11C42.66 112.81 43.14 113.11 42.93 112.26L41.93 111.84C41.33 110.7 41.85 108.44 40.93 107.6V107.18C39.62 106.82 39.38 108.25 38.93 108.45H37.93L38.44 105.91H37.44V104.22H35.92V103.37L33.39 103.79C33.78 104.94 33.51 104.79 34.91 105.06C35.029 105.641 35.1996 106.21 35.42 106.76H34.91V108C34.34 108.36 34.83 107.94 34.4 108.42L27.82 108C28.29 109.45 28.89 109.09 29.34 110.54L26.8 110.12C27.19 111.27 26.92 111.12 28.32 111.39C28.02 112.23 28.39 111.75 27.82 112.23V112.66C27.1982 112.356 26.5117 112.209 25.82 112.23C26.12 113.08 25.75 112.6 26.33 113.08C25.72 115.08 25.62 114.47 23.79 114.35C24.93 117.17 21.28 120.14 24.3 122.4C24.2669 122.996 24.0921 123.575 23.79 124.09C22.59 124.03 21.89 124.15 21.26 123.67V122.82L19.74 123.25C20.08 124.37 20.41 125.5 20.74 126.63H21C22 127.63 22.78 127.9 23 129.63H24.52L24.01 130.9C23.01 131.15 23.57 130.84 23.01 131.32H21.01L20.5 130.48L18.5 130.05C17.82 129.35 17.14 128.64 16.5 127.93L15.5 127.51V126.66H15C14.3 126.04 14.74 126.11 13.48 125.82L12.97 127.09H13.48V127.93H14.48V129.63H16C15.72 130.69 14.26 131.89 15 133.44L16 133.86V134.71C15 134.46 15.57 134.77 15 134.29C13.8 135.1 13.08 136.84 12.47 138.1C11.454 138.121 10.4411 137.98 9.47 137.68C9.34 137.2 8.47001 135.42 8.96001 134.68H9.47V134.26L6.47 133.83C6.37 131.21 6.97 130.39 9.47 130.02V129.6H8.96001V127.9H8.45V127.48L6.45 127.9V128.33H4.92999V128.75L2.92999 128.33L3.44 123.25H1.92C1.95747 122.653 2.12833 122.072 2.42 121.55C1.45073 121.199 0.38927 121.199 -0.580002 121.55V122H-1.58V122.43H-4.3V124.12H-5.3L-4.78999 126.24C-6.63999 126.39 -6.95 126.57 -7.32 127.93H-10.32C-10.16 128.64 -9.99 129.35 -9.82 130.05H-8.82V131.75H-8.32V132.17H-7.81V131.75C-6.81 131.89 -7.34 131.75 -6.81 132.17H-4.27V132.59H-4.78V133H-6.3V133.42H-7.3V133.84H-5.78V134.27C-4.58 135.17 -5.5 135.32 -3.25 135.54V136.81C-3.91 137.16 -3.86 137.1 -4.25 137.66H-5.77V138.5H-7.29V137.23C-7.86 136.87 -7.37 137.29 -7.8 136.81C-9.74 136.87 -10.49 137.18 -11.35 138.08C-11.4443 138.152 -11.5488 138.209 -11.66 138.25C-11.66 138.25 -11.66 138.25 -11.85 138.5L-9.85 138.93V140.2H-6.85C-7.2 141.35 -7.53 141.15 -7.85 142.31C-6.47 142.64 -6.7 142.41 -6.33 143.58H-7.33V144.43H-8.33V144.86H-8.83V144.43H-11.4C-11.9 142.09 -11.5 142.59 -10.89 140.62C-12.26 140.86 -12.8 141.05 -13.42 141.89L-15.96 141.47V143.58C-16.921 143.717 -17.8101 144.167 -18.49 144.86H-19V145.28C-17.94 146.1 -18.06 144.82 -17.48 146.55H-19V146.13C-20.07 145.38 -19.3 145.28 -21 144.86C-21.49 143.31 -22.53 143.31 -23.54 142.31H-24.04C-23.71 143.41 -23.53 143.53 -22.52 144.01C-23.1119 145.388 -23.6195 146.801 -24.04 148.24L-25.56 148.67V149.09H-26.56V149.51C-28.29 149.93 -28.19 148.77 -28.56 148.67C-29.64 148.38 -30 148.93 -30.56 149.09C-30.9935 147.869 -31.1672 146.572 -31.07 145.28C-30.07 145.02 -30.63 145.34 -30.07 144.86C-29.51 144.38 -30 144.91 -29.57 144.43H-30.57C-30.27 143.59 -30.64 144.07 -30.06 143.58V143.16L-32.6 143.58V144.43L-35.13 144.86V146.55C-35.79 146.9 -35.74 146.84 -36.13 147.4H-39.13V146.13H-38.13V145.7H-38.64C-38.81 145.28 -38.98 144.86 -39.14 144.43L-37.62 144.01C-37.5934 143.669 -37.4895 143.339 -37.3162 143.045C-37.1429 142.75 -36.9048 142.499 -36.62 142.31V141.89L-41.18 142.74L-40.67 140.62L-41.67 140.2C-42.4962 139.242 -43.0245 138.064 -43.19 136.81H-44.19C-44.1577 135.424 -43.6731 134.086 -42.81 133H-43.32C-43.75 132.52 -43.25 132.93 -43.82 132.57C-44.8369 134.369 -45.1908 136.467 -44.82 138.5H-45.82V139.35H-43.82V142.35C-45.93 142.25 -46.2 141.8 -47.88 141.51C-47.8707 142.11 -47.6941 142.695 -47.37 143.2H-46.86L-47.37 145.32H-46.37V147.86H-46.87V148.28C-47.62 148.51 -50.25 146.87 -50.93 146.59C-51.36 147.07 -50.86 146.66 -51.43 147.01L-51.94 148.28L-50.94 148.71V149.55L-49.42 150.4V150.82L-47.42 151.25C-46.97 151.53 -47.02 152.13 -46.42 152.52V153.37C-47.1124 153.399 -47.8008 153.251 -48.42 152.94V152.52H-49.42V152.1L-52.42 151.67V151.25H-52.92C-52.75 152.51 -52.92 152.41 -51.92 152.94V154.21C-52.8891 153.902 -53.9035 153.759 -54.92 153.79V155H-56.49V155.42L-54.97 155.85V157.12H-54.46C-54.1525 157.382 -53.9044 157.707 -53.732 158.072C-53.5596 158.438 -53.4668 158.836 -53.46 159.24C-52.46 159.49 -53.03 159.18 -52.46 159.66H-51.95V160.93H-53.45C-52.913 161.453 -52.1995 161.757 -51.45 161.78C-51.1 162.93 -50.77 162.78 -50.45 163.89L-51.97 164.32L-51.46 166.44H-50.96C-50.89 166.677 -50.9012 166.931 -50.9917 167.161C-51.0823 167.391 -51.2471 167.584 -51.46 167.71C-51.3 167.99 -51.13 168.27 -50.96 168.55H-51.46C-52.04 169.03 -51.46 168.73 -52.46 168.98C-52.99 168.42 -53.35 168.54 -53.98 168.13V167.71H-55L-56 166.44H-57V166L-60 165.58C-60.55 165.35 -59.91 165.02 -61.52 164.73L-61 169H-60.49L-61 171.53L-59.48 172.37C-59.01 173.28 -59.97 173.56 -59.99 174.07H-59.48L-58.97 175.34C-60.21 175.46 -60.56 175.85 -61.97 175.34V174.92H-62.97L-63.97 173.65L-65.97 173.22V172.8H-67.97C-68.6956 172.789 -69.4056 172.587 -70.0286 172.215C-70.6517 171.843 -71.166 171.314 -71.52 170.68H-73.21C-72.95 171.28 -72.56 171.38 -72.7 172.37H-73.21V172.8H-72.7C-72.54 173.22 -72.37 173.65 -72.2 174.07H-71.2C-70.61 176.19 -68.76 176.69 -68.2 178.73C-67.3287 178.917 -66.4804 179.199 -65.67 179.57C-65.1154 180.482 -64.7736 181.508 -64.67 182.57C-66.0292 182.541 -67.3837 182.4 -68.72 182.15C-69.06 181.09 -68.97 181.44 -69.72 180.88V180.45H-70.72V180H-72.2L-72.7 179.15H-74.22V178.73C-75.93 178.78 -76.08 178.73 -76.76 179.57C-77.33 179.94 -76.84 179.57 -77.26 180L-74.73 180.42C-74.6 183.58 -74.11 182.19 -71.73 182.96V183.39H-70.21V183.81H-69.7C-70.191 184.553 -70.8852 185.14 -71.7 185.5C-70.59 186.5 -68.88 186.28 -67.7 185.93V186.77C-68.7 187.03 -68.13 186.72 -68.7 187.2H-69.7L-69.2 188.05C-67.6969 188.335 -66.1699 188.476 -64.64 188.47V189.74H-65.14V190.16L-61.6 189.74C-61.95 190.89 -62.28 190.74 -62.6 191.86L-61.08 192.28L-61.59 193.55H-62.59V194H-63.59C-64.47 194.38 -66.91 195.84 -68.66 195.28L-69.17 194.43H-72.17C-72.34 193.72 -72.51 193.02 -72.67 192.31L-76.22 192.73L-76.73 191.46H-79.73C-79.8206 190.433 -79.645 189.4 -79.22 188.46H-78.71V187.2H-78.21C-77.78 186.6 -77.83 186.47 -77.7 185.5C-79.07 185.74 -79.61 185.94 -80.23 186.77C-83.23 186.83 -84.51 186.06 -83.78 184.23C-84.6978 184.202 -85.5954 184.503 -86.31 185.08V185.5H-87.31V185.93H-87.81C-87.65 186.35 -87.48 186.77 -87.31 187.2H-90.31C-89.31 188.92 -89.65 188.2 -89.8 190.59H-91.45V191H-92V192.27C-93.228 192.249 -94.4364 191.959 -95.54 191.42V192.27C-93.62 192.77 -94.69 192.74 -93.54 193.54V194H-90.54V194.43L-94 195.67C-95.65 197.32 -94.19 198.43 -97.55 199.06C-98.13 199.53 -97.55 199.24 -98.55 199.48C-99.42 198.58 -99.6 199.25 -100.07 197.79C-101.59 197.93 -101.46 197.79 -102.07 198.63C-103.086 198.656 -104.1 198.514 -105.07 198.21C-105.07 196.01 -104.7 195.56 -102.54 195.21C-102.435 194.417 -102.086 193.676 -101.54 193.09L-100.02 192.66V190.12C-99.0972 189.878 -98.2354 189.445 -97.49 188.85V188.43H-95.49C-95.8008 187.915 -95.9762 187.331 -96 186.73C-93.79 186.49 -94.65 186.09 -92.45 185.89L-92.96 184.19H-92.45V183.77C-96.06 183.7 -97.45 184.3 -98.53 186.31C-99.33 186.31 -102.08 185.89 -102.08 185.89V186.31C-102.941 186.313 -103.796 186.171 -104.61 185.89V184.19L-101.61 183.77C-101.257 182.242 -101.089 180.678 -101.11 179.11H-99.59L-99.08 174.45H-97.08V174.03H-96.58C-97.43 172.74 -96.22 172.35 -96.07 170.64C-98.57 170.72 -98.56 171.28 -100.63 171.49C-101.04 173.02 -101.9 173.34 -102.63 174.49H-103.63V175.34C-105.63 175.68 -106.69 176.43 -108.7 176.61C-108.36 175.55 -108.41 175.93 -107.7 175.34V174.92H-106.7L-107.21 174.07C-105.74 172.68 -104.85 173.41 -104.67 170.68H-102.14L-102.65 169.41C-102.65 169.35 -101.88 169 -101.65 168.56H-100.65V167.29H-99V166.87H-98.49C-98.8651 166.229 -99.0425 165.491 -99 164.75H-97.48V164.33H-97C-96.84 163.48 -96.67 162.63 -96.5 161.79C-97.21 161.71 -98.5 161.79 -97.5 161.36L-98.01 160.52C-100.68 160.61 -101.01 161.41 -102.57 162.21L-104.09 162.63V163.48L-105.09 163.9V164.33L-108.09 164.75L-109.09 166.02H-110.09C-110.96 166.7 -110.31 167.02 -110.09 167.72H-113.09L-112.09 165.17L-110.57 164.33L-111.08 163.48C-109.96 163.31 -109.08 162.77 -107.53 163.06V163.48H-107.03V163.06H-106.03V162.21H-107.66C-107.42 160.34 -106.54 159.59 -106.14 157.97C-109.24 158.26 -110.71 159.26 -114.25 159.25V157.55H-112.73L-111.73 156.28H-110.73V155.86L-109.21 155.01V153.74H-107.21V153.32H-107.71V152.89C-109.82 153.57 -111.07 154.45 -113.79 154.59L-114.3 155.86H-115.77V153.32H-114.77C-114.94 152.75 -115.11 152.19 -115.27 151.62H-114.77L-114.26 149.5C-113.02 149.5 -111.81 149.63 -111.26 149.08L-111.77 148.23L-108.77 146.12V145.69C-110.17 145.91 -111.14 146.11 -111.77 146.96C-112.455 146.93 -113.131 146.788 -113.77 146.54C-113.67 145.45 -113.77 145.07 -113.27 144.42H-112.76L-112.25 141.88L-111.25 141.46V138.92C-113.53 139.17 -112.72 139.65 -115.3 139.76V138.49H-114.3V138.07C-115.59 138.07 -114.54 134.91 -114.3 134.68V134.26C-115.162 134.266 -116.018 134.12 -116.83 133.83C-117.45 134.73 -118 134.75 -118.35 135.95C-119.713 135.979 -121.07 136.119 -122.41 136.37V137.22H-120.89C-120.46 137.7 -120.96 137.29 -120.38 137.65V138.49L-121.38 138.92C-121.154 139.464 -120.986 140.031 -120.88 140.61C-121.88 140.86 -121.31 140.55 -121.88 141.03H-122.39V142.3C-123.93 142.01 -124.14 141.59 -125.93 141.46C-125.45 143.03 -124.24 143.62 -123.4 144.85H-121.88L-121.37 146.12C-121.95 146.48 -121.45 146.06 -121.88 146.54L-128.47 145.27C-128.22 146.9 -127.84 146.45 -127.47 147.81L-128.99 148.23V149.08L-129.99 149.5V149.93H-131.48V150.35L-133 151.2C-132.43 152.88 -131.21 152.91 -131 155.01H-132C-131.918 155.571 -131.69 156.102 -131.339 156.547C-130.988 156.993 -130.527 157.339 -130 157.55L-130.5 158.4L-133 158V360H782.06V97.88V93.17V91.9H781.56V91.48H782.08V73.88C781.78 73.76 781.78 73.57 781.56 72.88H782.08L782.06 67.63ZM734.42 64V64.42H733.42L734.42 63.15H734.92C735.24 63.89 734.63 63.71 734.42 64ZM732.9 57.6L734.42 58.02C734.11 58.87 734.49 58.39 733.91 58.87C733.33 59.35 733.91 59.05 732.91 59.29V58.87H732.4L732.9 57.6ZM591 107.57V108H593.53C593.05 108.76 592.81 108.66 592.53 109.69L589.53 110.12V110.54L588.01 110.12L588.52 108.85H588V108.42C588.48 108.23 590.15 107.21 591 107.57ZM583.91 104.19H584.41C585.332 103.19 586.603 102.582 587.96 102.49V103.76L585.96 104.61V105C585.337 104.702 584.651 104.558 583.96 104.58L583.91 104.19ZM577.32 41.08H578.84V41.5C579.84 41.76 579.28 41.5 579.84 41.93C578.872 42.2448 577.857 42.3869 576.84 42.35L577.32 41.08ZM360 124.52L362 124.94V125.79H360V124.52ZM352.4 138.52L353.92 138.1L353.4 136H354.92C355.141 136.394 355.496 136.695 355.92 136.85C355.549 137.913 355.038 138.922 354.4 139.85H352.4V138.52ZM191.28 152.52L192.8 152.1V152.94H191.28V152.52ZM-105.13 187.62H-103.13V188.05C-103.768 188.303 -104.444 188.445 -105.13 188.47V187.62ZM-128.44 183.39H-130C-129.711 183.058 -129.374 182.772 -129 182.54V180.85H-128.49V180.42H-126.92C-127.293 181.473 -127.804 182.472 -128.44 183.39V183.39ZM-125.91 177.46H-127.43V175.76L-125.43 175.34L-125.91 177.46ZM-128.44 152.05V150.77H-126.44V151.2C-125.44 151.45 -126.01 151.14 -125.44 151.62C-126.408 151.933 -127.423 152.079 -128.44 152.05V152.05ZM-116.28 177.88H-116.79C-117.36 178.36 -116.79 178.06 -117.79 178.3C-118.093 177.786 -118.268 177.206 -118.3 176.61H-116.3L-116.28 177.88ZM-108.68 178.73V179.15H-110.68V179.57H-111.18C-111.141 178.977 -110.97 178.399 -110.68 177.88H-108.14C-108.48 178.73 -108.1 178.25 -108.68 178.73ZM-75.75 197.36C-76.6113 197.368 -77.4675 197.226 -78.28 196.94V196.09H-75.75V197.36ZM-70.68 204.14V202.87C-69.68 203.12 -70.24 202.81 -69.68 203.29C-68.68 203.55 -69.24 203.23 -68.68 203.72C-69.3183 203.971 -69.9945 204.113 -70.68 204.14V204.14ZM-45.35 167.72H-46.87V167.29H-47.37V166H-45.37L-44.86 167.27C-45.41 167.66 -44.92 167.24 -45.35 167.72V167.72ZM-44.35 158.4V158.82L-45.87 158.4V157.55H-44.35V158H-43.85C-44.26 158.45 -43.76 158 -44.33 158.4H-44.35ZM-37.77 178.3H-42.31V176.61H-39.31C-38.9509 177.184 -38.4186 177.629 -37.79 177.88L-37.77 178.3ZM-27.63 152.47H-23.63L-24.14 149.93H-23.63V148.23C-22.63 147.98 -23.19 148.29 -22.63 147.81C-21.614 147.789 -20.6011 147.93 -19.63 148.23C-19.6552 148.571 -19.7584 148.902 -19.9318 149.197C-20.1052 149.491 -20.3441 149.742 -20.63 149.93V150.35H-19L-18.49 151.2H-17.99V151.62L-16.99 152.05V153.32H-16.49C-16.65 153.74 -16.82 154.16 -16.99 154.59L-23.58 153.74V155.43H-26.58V154.59C-27.58 154.33 -27.01 154.65 -27.58 154.16H-28.09L-27.63 152.47ZM-35.23 168.56C-33.7008 168.578 -32.1756 168.722 -30.67 168.99V169.83C-32.1992 169.821 -33.7248 169.68 -35.23 169.41V168.56ZM-32.7 177.46L-35.21 177C-35.64 176.53 -35.14 176.94 -35.72 176.58V174.89C-34.04 174.52 -33.64 174.03 -31.16 174.04C-30.81 175.19 -30.47 175.04 -30.16 176.16L-32.16 176.58L-32.7 177.46ZM-30.17 182.96V181.27C-27.94 181.2 -27.09 181.02 -26.62 182.54C-27.7781 182.812 -28.9608 182.966 -30.15 183L-30.17 182.96ZM-25.61 163.48V163.9H-27.13C-26.82 163.06 -27.2 163.54 -26.62 163.06V162.63H-25.1C-25.38 163.48 -25 163 -25.59 163.48H-25.61ZM-19 158H-20V158.43C-20.72 158.43 -19.8 158.1 -20.51 158H-22.51V157.16H-24.03V155.89C-21.91 155.89 -21.35 156.15 -20.48 155.04C-19.6191 155.037 -18.7637 155.179 -17.95 155.46C-18.1 157.26 -18.3 156.87 -19 158ZM-15.45 161C-16.1349 160.969 -16.8103 160.827 -17.45 160.58V158.4H-16.45V157.55H-14.45L-13.94 158.82H-13.44C-13.93 160.4 -14.48 160 -15.45 160.94V161ZM-12.92 145.75C-13.49 146.23 -12.92 145.93 -13.92 146.18C-14.31 145.75 -14.54 145.76 -14.92 145.33H-15.42V144H-13.9C-13.5404 144.573 -13.0082 145.018 -12.38 145.27C-12.84 145.75 -12.34 145.34 -12.92 145.69V145.75ZM-2.78999 144H-4.78999V141.88L-2.25999 142.3L-2.78999 144ZM0.210007 136.37V136.8C-0.593542 136.48 -1.45578 136.333 -2.32001 136.37V133.37H-1.81C-1.64 132.95 -1.47 132.52 -1.31 132.1C-0.401785 132.147 0.476386 132.441 1.23 132.95V134.64H1.73C1.44 135.78 1.26 135.9 0.25 136.37H0.210007ZM3.75999 132.14V131.72H5.28V133H3.28C3.6 132.14 3.22 132.62 3.8 132.14H3.75999ZM3.75999 146.14H2.24001V144.87H3.75999V146.14ZM6.75999 138.94C6.18999 139.41 6.75999 139.12 5.75999 139.36V138.94H5.25L5.75999 137.24L7.75999 136.82C7.71999 138 7.64 138.34 6.84 138.92L6.75999 138.94ZM14.36 154.61H13.36C12.93 154.13 13.43 154.54 12.85 154.18V152.49C13.7234 152.306 14.5724 152.02 15.38 151.64C15.82 152.12 15.32 151.71 15.89 152.07C15.69 153.83 15.24 153.42 14.44 154.59L14.36 154.61ZM14.87 150.37C15.87 150.63 15.3 150.31 15.87 150.79C15 150.52 15.53 150.83 15 150.35L14.87 150.37ZM22 134.68H20.48V133H23.01C22.74 134 22.52 133.92 22 134.68ZM28.59 132.14V133.83C28.02 134.2 28.51 133.78 28.08 134.26C27.1764 134.205 26.3036 133.912 25.55 133.41V132.14H28.59ZM26.05 141.46L29.05 141.03V142.3C28.48 142.67 28.98 142.25 28.55 142.73C27.6849 142.734 26.8255 142.589 26.01 142.3L26.05 141.46ZM25.55 127.46C26.27 127.96 26.89 127.94 26.05 128.73H25.55V128.31H25.04L25.55 127.46ZM29.55 145.67H28.55V146.1C27.29 146.99 28.31 147.1 26.01 147.37C25.86 145.48 25.24 145.67 25.01 143.98L29.57 144.83L29.55 145.67ZM29.55 140.59L27.02 140.17V139.32L29.02 138.9C29.2416 139.291 29.5966 139.589 30.02 139.74L29.55 140.59ZM38.67 133.39C37.67 133.65 38.24 133.33 37.67 133.81H37.16V132.54L39.16 132.12L38.67 133.39ZM39.18 130L36.64 129.58V128.73H39.18V130ZM49.82 131.7C49.2586 131.867 48.74 132.153 48.3 132.54C47.1019 132.588 45.9039 132.446 44.75 132.12C44.7246 131.246 44.899 130.377 45.26 129.58C47.74 129.58 48.14 130.08 49.82 130.43V131.7ZM56.4 163.04C56.03 164.23 55.5 164.25 54.88 165.15C53.7186 165.419 52.5319 165.563 51.34 165.58V164.31C51.98 163.86 51.85 163.51 52.34 163.04L53.34 162.61L53.85 161.34H54.85V160.5H56.37L56.88 163.04H56.4ZM85.79 180.4H83.79V178.71H85.79C85.8645 178.787 85.9314 178.87 85.99 178.96C86.0991 179.005 86.203 179.062 86.3 179.13L85.79 180.4ZM89.84 171.08C88.84 171.34 89.41 171.08 88.84 171.51C88.27 171.94 88.76 171.45 88.33 171.93H89.33C89.1042 172.683 88.7672 173.397 88.33 174.05L86.81 174.47C86.65 174.19 86.48 173.91 86.31 173.63H85.8C86.56 172.35 85.92 171.77 85.8 170.24C86.8 169.98 86.24 170.3 86.8 169.81C87.8169 169.786 88.8307 169.931 89.8 170.24L89.84 171.08ZM95.42 155.84H93.42C93.3622 154.814 93.5366 153.789 93.93 152.84L96.93 153.27C96.69 154.59 96.11 154.92 95.51 155.86L95.42 155.84ZM123.79 148.21H122.27V147.37L123.79 147.79V148.21ZM131.39 169.81H130V169H131.52L131.39 169.81ZM134.39 149.06H131.39V147.79C132.406 147.769 133.419 147.91 134.39 148.21V149.06ZM148.58 153.72V154.14H150.58C151.651 153.543 152.656 152.836 153.58 152.03H154.09V154.57L153.09 154.99V157.53C152.277 157.826 151.415 157.968 150.55 157.95C150.39 158.38 150.22 158.8 150.05 159.23H148.53V158.8H148.02C147.45 157.4 149.1 157.89 149.54 157.53V157.11L148.02 156.68C147.68 155.84 147.35 154.99 147.02 154.14L148.58 153.72ZM153.14 165.58V166H152.63V166.43C150.68 166.22 151.22 165.91 149.63 165.58V164.31C151.01 164.63 150.78 164.41 151.15 165.58H153.14ZM145.03 170.66V170.24L143.51 169.81V168.12H144.02V167.7L147.56 167.27V166.85H148.07V167.27H149.07L149.58 169.39L147.58 169.81C147.37 170 146.72 171.36 145.16 170.68L145.03 170.66ZM156.18 178.28H155.67V178.71H152.67V180C151.51 179.92 149.26 179.65 148.62 179.15H148.11V177.88C150.63 177.88 151.32 177.5 152.16 176.19C153.79 176.54 153.91 177.01 156.22 177.03L156.18 178.28ZM178.6 147C177.915 146.968 177.24 146.826 176.6 146.58V144.89L179.6 145.31C179.3 146.3 179.08 146.2 178.6 147ZM184.17 166.49V165.21L188.73 164.37V164.79H189.24C188.25 166.17 187 166.51 184.17 166.45V166.49ZM195.32 185.12C195.71 183.97 195.44 184.12 196.84 183.85C196.45 185 196.72 184.78 195.32 185.08V185.12ZM198.87 199.52C198.29 199.05 198.87 199.34 197.87 199.1V197.4H200.41V197.83H200.91C200.59 198.83 200.77 198.62 199.91 199.1C199.31 199.53 199.89 199.24 198.87 199.48V199.52ZM203.93 209.69H200.93C200.77 208.98 200.6 208.27 200.43 207.57C201.065 207.307 201.743 207.162 202.43 207.14L202.94 208.84H203.94L203.93 209.69ZM210.01 206.69L207.48 206.27V204.57C208.229 204.593 208.943 204.897 209.48 205.42H209.98L210.01 206.69ZM224.2 203.3C223.69 204.39 223.46 205.76 222.68 206.69L221.68 207.11C221 207.82 220.33 208.53 219.68 209.23C218.62 209.89 219.16 208.8 218.16 210.08C217.299 210.083 216.444 209.941 215.63 209.66L215.12 207.11L218.12 206.69V206.27H218.63V203.27H219.13V202.85L218.13 202.43V201.58H217.62C217.16 201 217.25 200.84 217.12 199.88C218.82 200.075 220.509 200.359 222.18 200.73V200.31C223.62 199.43 222.09 199.38 224.72 199.04C225.06 200.45 225.39 201.86 225.72 203.27L224.2 203.3ZM241.43 180C239.43 180.45 239.84 181.27 237.88 181.69V183.81C236.975 183.764 236.099 183.47 235.35 182.96C235.307 181.943 235.136 180.935 234.84 179.96C236.57 179.86 237.4 179.77 238.39 179.11C238.56 178.83 238.73 178.55 238.89 178.26H240.41V177.84C241.156 177.279 242.067 176.984 243 177C242.53 178.37 241.78 178.57 241.43 180ZM246 157.55H243.46V156.28L244.98 155.86C245.56 155.38 244.98 155.68 245.98 155.43V155.86H246.48C246.133 156.353 245.964 156.949 246 157.55ZM246 154.16V153.74H245.49L246 152.47H247.52C247.95 152.95 247.45 152.54 248.02 152.89C247.69 153.32 247.35 153.74 247.02 154.16H246ZM248 185.5C248.31 184.66 247.93 185.14 248.51 184.66C249.09 184.18 248.51 184.48 249.51 184.23L250.02 185.5H248ZM251.55 154.59V155H249.55C250.04 155.76 250.28 155.66 250.55 156.69L248.55 156.27V155C250.05 154.52 249.12 155.07 249.06 153.73C249.63 153.37 249.14 153.79 249.56 153.31L252.1 153.73C251.76 154.59 252.14 154.1 251.56 154.59H251.55ZM255.1 142.73C254.53 142.37 255.02 142.78 254.59 142.3C253.21 141.98 253.44 142.2 253.07 141.03C254.07 140.78 253.51 141.09 254.07 140.61H254.58C254.89 141.46 254.51 140.98 255.09 141.46L255.1 142.73ZM261.18 149.93C260.61 150.29 261.1 149.87 260.67 150.35H259.67V148.23H261.19L261.18 149.93ZM271.31 154.59C274.38 154.74 273.1 155.3 274.86 156.28V157.13H272.86V156.28C271.86 156.03 272.42 156.34 271.86 155.86H271.35L271.31 154.59ZM265.23 152.47V151.2H265.74V150.77H267.26C267.83 152.03 267.18 151.25 268.78 151.2C269.081 151.715 269.253 152.294 269.28 152.89H268.28V153.74H266.76V152.47H265.23ZM280.43 194.82V196.09H279.92C279.35 196.57 279.92 196.27 278.92 196.52C278.485 196.125 277.965 195.834 277.4 195.67V194C278.4 193.75 277.84 194.06 278.4 193.58H279.92V194H280.43L279.92 194.85L280.43 194.82ZM282.43 173.65L276.85 172.8C276.69 172.37 276.52 171.95 276.35 171.53H276.85V171.1C275.51 171.1 272.69 171.58 272.29 171.53V171.1H270.77C270.457 170.13 270.289 169.119 270.27 168.1L268.75 167.68L268.24 165.98H270.24V163.9H270.74V163.48H270.24V162.63H269.73V161.36H269.22C269.218 160.626 269.393 159.902 269.73 159.25C271.31 159.25 273.48 159.04 274.29 159.67H274.8C274.28 160.34 274.64 160.77 274.29 161.79H273.78V162.21H274.29V164.33H274.8C275.288 164.786 275.635 165.373 275.8 166.02H273.27C273.81 167.66 274.79 167.35 275.27 169.02H273.75V170.29H276.29C276.46 170.57 276.63 170.85 276.79 171.13L281.86 171.56V172H282.37L282.43 173.65ZM282.43 160.52V163.06L280.91 162.63V160.94H279.39V160.52H278.88V158L280.88 157.58C281.49 158.48 282.04 158.5 282.4 159.7H282.9C283.3 160.45 282.68 160.27 282.47 160.52H282.43ZM289.52 181.69H287V180H289.53L289.52 181.69ZM301.72 147L300.72 147.43C300.29 146.95 300.79 147.36 300.21 147C300.25 146.405 300.424 145.827 300.72 145.31L302.24 145.73L301.72 147ZM304.72 141.07L302.19 141.5V141H300.67V140.58H300.16L299.65 141.43C297.52 141.2 298.01 140.83 296.65 140.16C296.65 137.25 297.04 137.55 298.17 135.92L300.71 135.5C300.88 136.06 301.05 136.63 301.21 137.19H302.73C302.35 138.34 302.61 138.19 301.21 138.46V139.31C302.05 139.37 302.21 139.73 302.21 139.73C302.77 139.83 303.21 138.85 304.21 139.31V139.73H304.72V141.07ZM306.24 168.18H305.24C305.54 167.34 305.17 167.82 305.74 167.33V166.91H306.74L306.24 168.18ZM310.8 116.93H310.29C309.65 117.2 310.5 117.45 309.79 117.36V116.93C308.94 116.45 309.08 116.68 308.79 115.66H310.79L310.8 116.93ZM311.31 112.27L308.77 111.85V111C309.635 110.994 310.495 111.139 311.31 111.43V112.27ZM314.85 161.83H314.35C314.387 161.233 314.558 160.652 314.85 160.13H316.85C316.55 160.98 316.92 160.5 316.34 160.98V161.4H314.82L314.85 161.83ZM317.85 163.52L315.32 163.1C315.63 162.25 315.25 162.73 315.83 162.25V161.83C316.54 161.993 317.217 162.277 317.83 162.67L317.85 163.52ZM317.35 133.03H319.35V134.3H317.83C317.77 133.83 317.6 133.41 317.43 133L317.35 133.03ZM319 155V153.31H319.5V152.88H321C321.16 154.77 321.78 154.58 322 156.27C319.86 156.06 320.34 155.68 319 155ZM325.58 189.31H324V188.04H325.52L325.58 189.31ZM325.08 162.2H326.6V162.62C326.328 162.754 326.018 162.786 325.724 162.711C325.431 162.635 325.174 162.458 325 162.21L325.08 162.2ZM329.13 168.13H327.13C326.75 166.98 327.01 167.13 325.61 166.86V165.6H326.61C326.78 165.88 326.95 166.16 327.11 166.45C327.8 166.63 327.22 166.3 327.62 166.02C328.312 165.996 328.999 166.144 329.62 166.45L329.13 168.13ZM329.64 150.34C328.33 150.71 328.09 149.28 327.64 149.07H326.64V147H325V146.58C322.18 145.93 324 145.89 323 144.46L322 144.04V143.61C321.64 143.1 322 143.61 321.49 143.19C320.98 142.77 321.58 143.1 320.98 142.77L321.49 139.38C320.49 139.13 321.05 139.44 320.49 138.96H320C319.68 138.17 320.3 138.36 320.51 138.11C321.3 137.43 320.82 137.79 321.51 138.53C322.414 138.484 323.288 138.194 324.04 137.69C325.17 137.01 327.84 138.77 329.11 139.38L329.62 141.5L328.62 141.92V145.31L329.62 145.73L329.11 147H329.62C330.2 147.72 329.93 147.59 331.14 147.85V149.54L329.62 149.97L329.64 150.34ZM332.17 161.78V163.47H330.17V161.35H331.69V161.78H332.17ZM332.68 192.27V192.69C331.994 192.663 331.318 192.521 330.68 192.27V191.42H332.2V191.85C333.2 192.1 332.64 191.79 333.2 192.27H332.68ZM333.68 170.27C329.82 169.88 331.97 168.13 330.13 166.46V165.18H330.64V164.76H331.15V165.18C334.38 166.05 331.47 166.05 332.67 167.73L334.67 168.57C334.17 169.32 333.93 169.22 333.64 170.26L333.68 170.27ZM332.16 158.83C333.16 159.09 332.6 158.77 333.16 159.26C332.12 159 332.7 159.3 332.12 158.82L332.16 158.83ZM336.72 159.68V160.1H336.21L336.72 158.83H337.23C337.51 159.61 336.89 159.42 336.68 159.67L336.72 159.68ZM337.72 144.01L333.15 141.01V139.74C331.02 139.52 331.51 139.14 330.15 138.47C330.194 137.876 330.368 137.299 330.66 136.78C332.106 136.189 333.658 135.9 335.22 135.93C335.02 137.83 334.61 137.76 335.73 139.32L336.73 139.74C337.24 140.74 335.37 141.35 337.73 142.74L337.72 144.01ZM343.29 119.87C343.72 120.35 343.22 119.93 343.8 120.29C343.49 121.14 343.86 120.66 343.29 121.14C343.216 121.217 343.149 121.3 343.09 121.39C342.981 121.435 342.877 121.492 342.78 121.56L341.78 119.87H343.29ZM342.78 132.15C342.4 132.92 342.11 132.49 342.78 133V133.42H344.3V134.69C343.73 135.05 344.22 134.63 343.8 135.11C341.49 135.01 341.63 134.51 340.25 133.84L339.74 131.73C341 131.73 342.06 131.64 342.76 132.14L342.78 132.15ZM341.78 163.91L340.26 164.34V163.49H341.78V163.91ZM347.35 149.51L344.82 149.94C345.043 150.44 345.387 150.876 345.82 151.21V151.63H344.82C343.73 149.37 344.82 150.18 342.82 149.51C342.862 148.916 343.036 148.338 343.33 147.82C345.12 147.98 345.79 148.42 347.38 148.67L347.35 149.51ZM349.89 143.58C348.692 143.628 347.494 143.487 346.34 143.16C346.03 142.32 346.41 142.8 345.83 142.31C346.1 140.53 346.55 140.94 347.35 139.77H348.35C348.73 140.93 348.47 140.77 349.87 141.04L349.89 143.58ZM353.43 166.46V164.76C354.81 165.08 354.58 164.86 354.95 166.03C353.95 166.29 354.51 165.97 353.95 166.46H353.43ZM356.43 169.46H354.43V168.19C354.88 168.32 355.53 168.99 356.43 168.61V168.19H357L356.43 169.46ZM358.43 165.65C357.794 165.911 357.117 166.053 356.43 166.07V165.22H358.43V165.65ZM356.43 161.41V161.84L354.91 161.41V160.14C357.22 160.08 357.33 159.63 358.97 159.3C359.13 159.86 359.3 160.42 359.47 160.99L356.43 161.41ZM367.58 169.88C366.564 169.906 365.55 169.764 364.58 169.46V168.19H365.09V167.77L368.09 168.61L367.58 169.88ZM379.74 159.72H381.26C380.87 160.87 381.14 160.72 379.74 160.99V159.72ZM376.74 164.38H378.74V165.22L376.2 165.65L376.74 164.38ZM371.17 161.38L372.69 161.81V162.23H371.17V161.38ZM373.17 168.16V169.43H372.17C371.86 168.59 372.24 169.07 371.66 168.58V168.16H373.17ZM381.79 191.45C379.95 191.03 379.79 190.12 377.73 189.76V188.49C379.22 188.74 381.05 189.26 381.79 190.18C382.79 190.44 382.22 190.12 382.79 190.61C382.363 190.749 382.003 191.041 381.78 191.43L381.79 191.45ZM384.32 172.39C383.75 172.76 384.24 172.34 383.81 172.82C382.494 173.092 381.154 173.233 379.81 173.24L379.3 174.51H378.8C377.99 175.93 379.55 175.66 377.28 176.21V176.63L375.28 176.21C375.46 174.78 375.65 174.63 376.8 174.09V173.67L371.73 173.24C371.56 172.39 371.39 171.55 371.23 170.7C372.39 170.54 375.52 170.14 377.31 170.7V171.12H378.31L378.82 171.97H380.34V172.39C381.07 172.39 381.77 171.73 382.87 171.55V170.7C380.92 170.49 381.46 170.18 379.87 169.85L379.36 167.74L377.36 167.31V166.89C377.784 166.734 378.138 166.433 378.36 166.04C379.66 166.16 381.81 166.72 382.36 167.31C382.91 167.9 381.87 167.75 383.36 168.58V170.7H384.36L384.32 172.39ZM402 144.85C401.138 144.856 400.282 144.71 399.47 144.42V142.73C400.636 142.991 401.825 143.131 403.02 143.15C402.74 144.18 402.52 144.08 402 144.85ZM404 141.03C402.471 141.021 400.945 140.88 399.44 140.61C399.44 138.41 399.62 138.96 400.44 137.61C403.08 137.61 402.44 137.76 403.99 138.45L404 141.03ZM430.35 139.76C429.35 139.51 429.91 139.82 429.35 139.34C428.79 138.86 429.14 139.34 428.85 138.49L430.37 138.07L430.35 139.76ZM430.85 114.35C429.989 114.353 429.134 114.211 428.32 113.93C428.01 113.08 428.39 113.56 427.81 113.08C427.848 112.485 428.022 111.907 428.32 111.39H429.84L429.33 112.66C430.04 112.824 430.716 113.108 431.33 113.5L430.85 114.35ZM459.23 197.35L456.23 196.93V195.66C456.323 195.592 456.424 195.535 456.53 195.49C456.59 195.402 456.657 195.318 456.73 195.24C457.636 195.29 458.513 195.58 459.27 196.08L459.23 197.35ZM455.17 157.12L455.68 155.85C456.546 155.753 457.422 155.899 458.21 156.27V156.69C459.51 157.43 459.21 156.25 459.73 157.96L455.17 157.12ZM489.17 128.32L488.66 129.59C486.32 129.59 485.96 129.12 485.66 127.47C487.47 127.88 486.72 128.24 489.19 128.33L489.17 128.32ZM485.62 131.32L489.17 131.75V132.17H489.68V133.44H490.18C490.06 134.38 490.18 134.58 489.68 135.13H489.17V136H488.66C488.09 136.48 488.66 136.18 487.66 136.42V136H487.15L487.66 135.15H487.15C486.57 134.44 486.84 134.57 485.63 134.31C485.82 132.46 486 132.92 485.64 131.29L485.62 131.32ZM471 164.75H469.48V163.48L471 163.9V164.75ZM470 110.96C471.343 110.99 472.681 111.134 474 111.39V112.66H474.51V113.08C472.83 113.08 472.22 112.98 471.51 112.23C470.08 111.91 470.3 112.13 469.94 111L470 110.96ZM473.54 119.43H475.54V119H476C475.51 118.33 475.85 117.88 475.49 116.88H475V116.46H475.51V116.04C475.51 116.04 474.61 115.84 475 115.19H475.51V114.76L477.51 115.61L478.51 114.34C477.874 114.079 477.197 113.937 476.51 113.92C477.02 113.35 477.51 112.79 478.03 112.22H480.03L480.54 114.76H480.03V115.61H479.52C478.99 116.61 480.03 116.08 479.02 116.88V117.31C477.96 117.62 477.8 116.83 477.5 116.46H476.5C477.2 117.46 478.15 118.08 478.5 119.46H477V119.89H477.51C477.646 121.239 477.291 122.592 476.51 123.7H473C473.14 122.26 473.31 120.85 473.48 119.43H473.54ZM480.13 133.83C479.784 134.482 479.608 135.212 479.62 135.95L477.09 135.53V134.26H478.61V133.83H480.13ZM477.13 148.66L475.61 149.08V147.81C476.61 148.07 476.05 147.75 476.61 148.23H477L477.13 148.66ZM480.13 154.59H478.61V152.89C479.61 153.15 479.05 152.83 479.61 153.32H480.12L480.13 154.59ZM481.13 152.47C481.52 151.32 481.25 151.47 482.65 151.2C482.21 152.35 482.48 152.16 481.08 152.47H481.13ZM493.29 141.88C490.74 142.06 488.46 142.72 487.21 144C486.307 143.943 485.434 143.65 484.68 143.15V142.3C483.41 142.47 479.6 144.15 479.11 144V143.57C478.245 143.579 477.386 143.437 476.57 143.15L477.08 140.61C478.98 140.31 482.27 140.03 484.17 139.76L484.68 138.07L487.68 137.65C488.15 139.1 488.76 138.73 489.2 140.19C490.516 140.462 491.856 140.603 493.2 140.61L493.29 141.88ZM497.3 136H495.3V135.58H494.79V136C492.66 135.78 493.14 135.4 491.79 134.73V133.88L493.31 133.46V130.92H494.83V131.34C495.847 131.316 496.861 131.461 497.83 131.77C497.928 133.201 497.748 134.637 497.3 136V136ZM500.84 134.31V133C502.22 133.32 502 133.1 502.36 134.27L500.84 134.31ZM506.42 116.52L505.42 116.94V119C505.42 119 505.11 118.92 504.92 119.85C503.92 120.1 504.48 119.79 503.92 120.27H503.42C503.58 121.27 503.75 122.27 503.92 123.27L502.4 123.69V124.54C501.95 125.13 501.2 124.61 500.4 124.96V125.38C498.95 126.04 497.73 126.38 496.85 127.5H494.85V127.08C493.57 126.34 493.85 126.08 491.85 125.81L492.36 123.27L491.36 122.84V122H493.89V121.16L494.89 120.73C494.72 120.31 494.55 119.89 494.39 119.46C494.83 119.29 496.31 118.46 496.92 118.62V119H498.44C497.28 116.94 497.16 114.1 500.44 113.49C501.01 113.97 500.44 113.68 501.44 113.92C501.82 115.07 501.56 114.92 502.96 115.19C503.34 114.04 503.08 114.19 504.48 113.92V111.8L508.03 112.65C507.84 114.69 507.52 115.39 506.42 116.47V116.52ZM515 160.94C514.095 160.894 513.219 160.6 512.47 160.09C512.77 159.25 512.4 159.73 512.97 159.25V158.82H513.48C514.48 159.71 512.93 159.6 515 160.09V160.94ZM544.39 127.06V127.9L542.87 128.33V127.9C542.29 127.54 542.79 127.96 542.36 127.48C543.014 127.21 543.713 127.067 544.42 127.06H544.39ZM531.72 123.25H532.23V122.82H533.75V125.36C533.04 125.196 532.364 124.912 531.75 124.52L531.72 123.25ZM531.21 116.89V117.74H529.69C529.52 117.32 529.35 116.89 529.19 116.47L531.21 116.89ZM528.68 120.7H530.2V122.4C529.2 122.14 529.76 122.46 529.2 121.97H528.69L528.68 120.7ZM517.53 128.7H519.05L519.56 129.97H518.04V130.4H517.53V128.7ZM519.05 163.85C518.234 164.213 517.54 164.803 517.05 165.55H516.05V163.43H519.05V163.85ZM515.51 137.17V136L518.51 134.73V133.88H519.01C519.88 132.57 520.01 130.83 520.01 128.8L521.53 128.38C521.86 127.95 522.2 127.53 522.53 127.11C522.623 127.068 522.723 127.046 522.825 127.044C522.927 127.043 523.028 127.063 523.122 127.102C523.215 127.141 523.3 127.2 523.37 127.273C523.441 127.347 523.495 127.434 523.53 127.53L525.53 127.11V127.53H526.04L525.53 128.8H523.53V129.65H526.07C526.37 128.8 526 129.28 526.57 128.8V128.38H527.08C527.66 129.09 527.39 128.97 528.6 129.22C527.32 131.13 525.6 132.56 525.05 135.15C522.62 135.24 521.79 135.5 520.49 136.42L519.99 137.27L515.51 137.17ZM525.64 155.38H524.12V153.69H524.63V153.27H525.63C525.17 154.65 525.39 154 525.67 155.43L525.64 155.38ZM524.12 152.84C522.59 153.19 522.38 153.63 522.12 154.96H521.12C521.09 153.813 520.918 152.675 520.61 151.57C521.12 151.29 521.61 151.01 522.13 150.72V150.3C522.84 150.467 523.517 150.755 524.13 151.15L524.12 152.84ZM527.12 162.16C527.06 164.56 526.04 165.16 523.07 165.16C523.287 165.557 523.643 165.86 524.07 166.01C523.45 166.91 522.9 166.93 522.55 168.13C521.98 167.77 522.47 168.19 522.04 167.71L520.52 167.28C520.68 166.28 520.61 166.2 521.03 165.59H521.54V163.47H522.04V162.62H522.55C523.03 162 522.99 161.62 523.06 160.51L524.58 160.08V160.93L527.11 160.51L526.6 162.2L527.12 162.16ZM530.12 165.55H529.12V165.12H528.61V163.43H530.61V163.85H531.11C530.93 164.93 530.71 164.84 530.23 165.6L530.12 165.55ZM535.19 152.84H534.68V153.27H533.16V154.11H532.16V154.54C532.77 154.54 533 155.72 532.66 156.23H532.16C532.73 156.71 532.16 156.41 533.16 156.65C532.85 157.5 533.23 157.02 532.65 157.5V158L531.65 157.58V157.16H531.14V157.58C528.3 157.58 528.14 157.08 526.58 156.31C526.41 155.18 526.24 154.05 526.08 152.92C527.68 153.27 529.23 153.92 531.14 154.19C530.76 152.94 530.32 153.19 530.14 151.65C531.865 151.654 533.578 151.941 535.21 152.5L535.19 152.84ZM546.33 138.02H545.83V138.44H545.32V138.02H543.32L543.83 139.29H544.83C544.66 140.56 544.49 141.83 544.33 143.1H543.82C543.328 143.557 542.981 144.148 542.82 144.8H541.3V144.37H540.79C541.13 145.64 541.46 146.91 541.79 148.18L537.23 147.34V147H536.73V145.73C534.88 145.73 534.4 145.8 533.73 144.89C532.01 145.04 532.09 144.89 531.73 146.16H530.73C530.22 145.94 528.01 143.16 528.19 142.34H528.7V141.92H527.7C527.342 143.111 526.831 144.25 526.18 145.31L524.66 145.73C524.433 145.233 524.09 144.797 523.66 144.46L524.17 142.34C525.17 142.09 524.61 142.4 525.17 141.92C526.17 141.67 525.61 141.98 526.17 141.5C525.534 141.24 524.857 141.094 524.17 141.07C524.51 140.23 524.84 139.38 525.17 138.53L524.17 138.11V137.26H525.69L525.18 135.57L526.18 135.14C526.73 134.25 525.65 134.67 526.68 133.87C528.89 131.18 529.68 133.87 531.75 133.03C532.42 132.18 533.1 131.33 533.75 130.49H534.75C534.41 131.33 534.07 132.18 533.75 133.03H533.24C533.148 133.267 533.149 133.53 533.244 133.766C533.338 134.002 533.519 134.193 533.75 134.3L533.24 135.57H532.73V136.41H532.23V137.26C533.468 136.531 534.501 135.498 535.23 134.26V133.41H535.73L536.73 132.14H537.73V131.72H538.73C538.44 133.47 537.68 133.19 537.21 134.72L539.75 134.3C539.91 133.73 540.08 133.17 540.25 132.6L542.79 133.03V134.3L546.33 134.72V138.02ZM549.88 116.42L547.88 117.27V116.84H546.88V115.2H546.37C546.411 114.602 546.585 114.021 546.88 113.5H548.4V113.93H549V115.2H550L549.88 116.42ZM554.95 136.32H554.44V136.75H554V136.32C552.48 135.39 553.05 135.94 553.5 134.63C554.35 135.12 554.2 134.89 554.5 135.9C554.86 136.49 555.17 135.78 555.06 136.37L554.95 136.32ZM567.11 54.16C567.27 55.01 567.44 55.85 567.61 56.7H565.61C565.425 55.4517 564.899 54.2787 564.09 53.31L565.61 52.89V54.16H567.11ZM564.57 69.83V70.25L563.05 70.68C563.17 68.85 563.37 69.24 564.05 68.14C565.245 68.0922 566.44 68.2339 567.59 68.56V70.3L565.59 70.73C565.529 70.5197 565.412 70.3297 565.252 70.1802C565.091 70.0306 564.894 69.9269 564.68 69.88L564.57 69.83ZM565.57 72.37C565.18 73.52 565.44 73.37 564.05 73.64C564.56 72.54 564.3 72.73 565.7 72.42L565.57 72.37ZM562.02 62.63L563.02 63.05V63.48H562.52V64H562.01L562.02 62.63ZM561.02 61.36V59.72H562.54V61L561.02 61.36ZM564.02 49.92V51.2H563.51C562.93 51.67 563.51 51.38 562.51 51.62C561.685 50.7887 560.647 50.2006 559.51 49.92L559 47.81C561.37 48.37 561.63 49.72 564.18 50L564.02 49.92ZM552.52 63.53V62.68L555.52 62.26V63.53H552.52ZM545.94 77.08V76.66H545.43V75H548.43V76.27C547.09 76.53 547.32 76.81 545.94 77.08V77.08ZM551 83C550.365 83.263 549.687 83.4055 549 83.42V82.16C549.635 82.4226 550.313 82.5682 551 82.59V83ZM548 77.92L548.51 76.65C549.198 76.6525 549.879 76.7954 550.51 77.07V77.49L553.04 77.07V77.49L556.04 77.92V79.2C555.404 78.9399 554.727 78.7943 554.04 78.77V79.62H552.04V78.35C549.33 78.73 550.27 78.42 548 77.93V77.92ZM553.58 91.92V91.08H552V90.65H551.49V89.36L552.49 88.94C552.32 88.23 552.15 87.53 551.99 86.82C552.56 86.46 552.06 86.88 552.49 86.4C554.93 86.5 554.94 86.7 557.05 86.4C556.75 87.24 557.12 86.76 556.55 87.25C556.72 88.51 556.55 88.41 557.55 88.94C557.512 89.535 557.338 90.1133 557.04 90.63H555.04C554.67 91.79 554.93 91.6 553.54 91.9L553.58 91.92ZM558.6 97L556.6 97.42V98.27H555.08C555.67 96.55 556.08 97.42 557.08 96.15H558.6V97ZM559.6 57.61H559.09V57.18C558.24 56.7 558.38 56.93 558.09 55.91C558.799 56.0821 559.474 56.3692 560.09 56.76V57.18H559.59L559.6 57.61ZM560.1 66.5H561.62V67.35H560.1V66.5ZM561.1 71.58C562.1 71.84 561.53 71.58 562.1 72.01H562.61L562.1 72.86H560.58L561.1 71.58ZM561.1 81.75V80.9H562.62V81.33L561.1 81.75ZM562.62 91.07C561.62 90.81 562.18 91.13 561.62 90.64H561.12V89.36H562.12L562.62 91.07ZM563.12 135.54H561.6V135.11H561.1V133.84H562.62V134.27H563.12V135.54ZM567.68 129.61L565.68 130.03V128.34H568.21L567.68 129.61ZM568.19 115.21C567.19 115.46 567.75 115.15 567.19 115.63H565.7V115.21H566.2V113.51H566.71V113.09L568.71 113.51L568.19 115.21ZM565.66 112.21V111H566.66V112.27L565.66 112.21ZM569.2 102.05H568.7V102.47H569.2V102.9C568.63 103.26 569.12 102.84 568.7 103.32C565.85 103.19 563.83 102.43 561.6 102.05V100.8H562.6L563.1 101.65L566.1 101.22V101.65H566.61V101.22C567.46 100.74 567.31 100.97 567.61 99.95L569.13 100.37L569.2 102.05ZM568.7 52.92H566.7V52.5C566.13 52.02 566.48 52.5 566.19 51.65C566.826 51.3894 567.503 51.247 568.19 51.23V50.4L569.71 50.82C569.55 52.19 569.29 52.06 568.74 52.94L568.7 52.92ZM580.35 119.84L580.86 121.95H581.36C581.06 122.8 581.43 122.32 580.86 122.8V123.23C579.64 123.6 579.69 122.47 578.86 122.38V122.8H575.31C575.42 121.28 576.06 120.16 575.31 119.41V118.14H575.82V117.72C576.72 117.33 577.4 118.01 577.82 118.14C577.98 117.72 578.15 117.3 578.32 116.87H579.32L578.81 119.41L580.35 119.84ZM578.83 128.31C578.38 129.31 578.18 130.62 577.31 131.31V131.74C576.08 132.1 576.25 131.06 575.79 130.89H574.79V130H576.31V128.73L578.31 127.88V128.31H578.83ZM578.83 99.93H577.31V99.1H578.83V99.93ZM571.74 76.21C572.137 75.2623 572.308 74.2352 572.24 73.21H573.24C573.55 74.27 573.5 73.91 574.24 74.48V75H575.24V75.43L576.76 75.85V76.27C577.318 76.0945 577.835 75.8089 578.28 75.43H579.8C579.63 75.85 579.46 76.27 579.3 76.7C577.3 77.15 576.59 77.96 573.72 77.97C573.55 77.4 573.38 76.84 573.22 76.27L571.74 76.21ZM573.74 102.05C574.05 101.2 573.67 101.68 574.25 101.2V100.78C574.6 100.67 576.99 101.55 578.3 101.63C578.13 102.47 577.96 103.32 577.8 104.17H578.8V106.71C578.17 106.958 577.636 107.404 577.28 107.98H576.77V106.71C575.753 106.734 574.739 106.589 573.77 106.28C573.93 104.28 574.68 104.08 574.77 102.05H573.74ZM574.74 132.97C575.31 132.61 574.81 132.97 575.24 132.54C576.105 132.536 576.965 132.681 577.78 132.97L577.27 135.08H575.75C575.48 134 575.14 134.15 574.82 133L574.74 132.97ZM579.3 142.71V142.28H578.79V140.59C577.929 140.593 577.074 140.451 576.26 140.17C576.297 139.573 576.468 138.992 576.76 138.47L580.82 137.63C581.54 138.92 582.27 139.51 582.34 141.44C580.68 141.85 581.11 142.36 579.38 142.73L579.3 142.71ZM595.51 123.65C596.08 123.29 595.59 123.71 596.02 123.23H597.54V123.65H597.03C596.64 124.8 596.91 124.65 595.51 124.92V123.65ZM590.44 151.65H589V152.08C587.69 151.8 587.55 151.64 587 150.8C586.43 150.32 586.78 150.8 586.49 149.96C587.155 149.381 587.675 148.655 588.01 147.84C590.39 148.39 588.64 148.2 589.53 149.53H590C590.16 149.96 590.33 150.38 590.5 150.8C591.07 151.17 590.58 150.75 591.01 151.23C590.37 151.43 591.17 151.37 590.52 151.62L590.44 151.65ZM598.55 141.49H598.04V141.91L596.52 141.49C596.35 141.77 596.18 142.05 596.02 142.33C594.22 142.95 591.81 141.33 590.44 141.06C590.27 140.36 590.1 139.65 589.94 138.95H589.43V138.52H588C588.36 139.66 588.82 139.84 589.52 140.64H590V142.33H590.5C590.2 143.18 590.57 142.7 590 143.18V143.6L586.45 142.76L585.94 143.6H584.42V142.3H586C585.62 141.15 585.88 141.3 584.48 141.03V138.03C583.1 137.71 583.33 137.93 582.96 136.76C583.67 136.593 584.347 136.305 584.96 135.91V135.49H585.47V135.06L583.47 135.49V135.06H582.96V133.37H583.96C584.09 132.37 584.02 132.27 584.46 131.68H585V130.83H585.51L585 129.13H585.51C586.08 128.66 585.51 128.95 586.51 128.71C587.07 129.71 587.7 130.09 588.03 131.25H588.54C589.03 132.25 587.76 132.19 587.54 132.52L588.05 133.79H587.54V134.22C586.07 134.67 586.44 133.45 586.02 132.95H585.52V133.37H584.52C585.01 134.13 585.24 134.03 585.52 135.06H587.52V136.33L590 136V133.88H591C591.3 133.04 590.93 133.52 591.51 133.04V132.61H592.01V133.88L593.53 134.73V135.58H594.04V136C594.599 135.823 595.116 135.534 595.56 135.15H597.08V135.58H597.59C598.59 137.02 596.88 138.06 598.59 139.39L598.55 141.49ZM608.68 136.4C607.68 137 603.08 134.13 601.59 133.4V133.82H601.08L601.59 135.09H599.06V133.82H598.06C597.89 133.26 597.72 132.69 597.56 132.13L596.04 131.71V130C596.38 129.26 598.41 128.61 598.04 127.46L597.04 127.04V126.61C597.61 126.25 597.12 126.67 597.55 126.19H600.55V126.61H601.05C600.88 127.04 600.71 127.46 600.55 127.88C601.92 128.21 601.7 127.99 602.07 129.15H604.07V130.43H606.61V132.12H607.61C607.86 133.33 608.2 134.82 609.13 135.51C609 136.37 609.34 135.89 608.76 136.37L608.68 136.4ZM608.68 124.12C606.46 124.06 605.91 123.62 605.14 122.43C604.57 121.95 604.92 122.43 604.63 121.58C605.2 121.1 604.84 121.58 605.14 120.73H607.67C608.252 121.274 608.93 121.704 609.67 122C609.58 123.34 609.32 123.21 608.76 124.09L608.68 124.12ZM623 113.5H621.48V112.23L623 112.66V113.5ZM634.1 64C633.43 64.41 631.87 64 630.04 64V63.1L634.6 62.26V62.68H635.11C634.78 63.68 635 63.47 634.1 64ZM646.76 57.65C648.17 57.91 648.16 58.46 648.28 58.5C650.98 59.38 651.7 56.18 652.84 59.77H653.35C653.67 60.55 653.05 60.37 652.84 60.61V61C651.67 60.51 648.22 60.92 647.27 60.15H646.76C647.54 59.18 646.86 59 646.76 57.6V57.65ZM642.76 43.65C643.953 43.615 645.141 43.4745 646.31 43.23V44.5C645.74 44.86 646.23 44.44 645.8 44.92C644.784 44.9414 643.771 44.7996 642.8 44.5L642.76 43.65ZM641.19 64C641.19 64 639.19 63.94 640.19 63.58H640.69V63.1C641.69 63.36 641.13 63.05 641.69 63.53C641.13 63.89 641.62 63.47 641.19 64ZM643.19 58.92H642.68C642.1 59.39 642.68 59.1 641.68 59.34V58.92C641.11 58.44 641.46 58.92 641.17 58.07C641.805 57.8072 642.483 57.6648 643.17 57.65L643.19 58.92ZM643.69 48.75C640.88 48.84 639.12 48.95 638.12 47.48C637.55 47.12 638.04 47.54 637.61 47.06H638.12V46.64C639.885 47.3968 641.772 47.8271 643.69 47.91V48.75ZM645.69 63.15C645.99 64 645.62 63.52 646.2 64V64.42H644.68L644.17 63.15H645.69ZM647.69 81.37H646.69V80.52H647.69V81.37ZM648.69 68.66C647.69 68.92 648.25 68.6 647.69 69.08C645.5 68.99 645.97 68.82 644.69 68.24V66.07L648.69 65.65V68.66ZM653.76 80.52H652.24V80.1C651.67 79.62 652.02 80.1 651.73 79.25C652.365 78.9876 653.043 78.842 653.73 78.82L653.76 80.52ZM657.3 60.19H657.81C658.39 59.48 658.12 59.6 659.33 59.34C659.02 60.19 659.4 59.71 658.82 60.19V60.61H657.4L657.3 60.19ZM660.3 64.85C659.3 65.1 659.87 64.79 659.3 65.27H658.79V64L660.31 63.58L660.3 64.85ZM669.93 14.85V16.12H668.41V15.28C669.41 15.02 668.84 15.33 669.41 14.85H669.93ZM667.4 11.46H667.9V11L668.9 11.42V11.85C668.78 11.83 667 12.1 667.54 11.43L667.4 11.46ZM672.1 58H670.1V57.6C668.21 57.18 668.73 56.72 667.57 55.9C667.76 54.54 668.02 54.67 668.57 53.79H670.09L669.58 56.33L672.12 56.75L672.1 58ZM674.63 57.58H673.63V56.73H674.13V57.15H674.64L674.63 57.58ZM676.63 26.24V26.66H675.11V25.81L677.11 25.39C676.86 26.26 677.23 25.78 676.66 26.26L676.63 26.24ZM693.85 52.5C693.85 52.5 691.85 52.44 692.85 52.07H693.36V51.65C694.36 51.9 693.79 51.59 694.36 52.07C693.82 52.46 694.31 52 693.88 52.52L693.85 52.5ZM700 56.33H695.95V55.48C694.95 55.23 695.51 55.54 694.95 55.06C694.63 54.52 694.32 55.23 694.44 54.63H694.95C695.11 54.35 695.28 54.07 695.45 53.79H696.97V54.63H698.49V54.21H700V54.63H700.51C700.153 55.1227 699.973 55.722 700 56.33V56.33ZM701 37.27L699 37.69V36.42L701.53 36C701.31 36.42 701.14 36.85 701 37.27V37.27ZM707.08 39.39V39.81H706.57C706.06 38.4 705.57 36.99 705.05 35.57H706.57V36H707.08V38.54H707.58C707.26 39.39 707.63 38.9 707.06 39.39H707.08ZM710.62 30.07C712.62 29.68 712.83 28.77 714.68 28.37V27.1C715.25 26.74 714.75 27.16 715.18 26.68H716.7C716.05 27.85 715.34 28.45 715.18 30.07L713.66 30.49V32.19H711.13L710.62 30.07ZM718.73 45.32L718.2 47L716.68 47.85C716.79 48.46 717.16 48.54 717.19 49.54C716.505 49.5715 715.83 49.7133 715.19 49.96C715.02 49.54 714.85 49.12 714.69 48.69L713.17 47.85L713.67 47H712.67L712.16 44.46C713.124 44.2662 714.016 43.8068 714.733 43.1336C715.45 42.4604 715.965 41.6002 716.22 40.65H715.22V39.8C717.07 39.95 717.38 40.13 717.76 41.49H718.76L719.27 45.31L718.73 45.32ZM725.82 42.32H727.34V43.17H725.8L725.82 42.32ZM728.36 62.65L726.36 63.07L726.87 61.38H728.39L728.36 62.65ZM729.36 61.38L728.85 60.11C729.486 59.8494 730.163 59.707 730.85 59.69L731.36 61.38H729.36ZM741.52 100.38H739L738.49 99.11C739.76 98.53 740.07 97.98 742.04 97.84C742.34 98.69 741.97 98.21 742.54 98.69C742.21 99.71 742 99.61 741.51 100.37L741.52 100.38ZM740 81.74V80.89C740.802 81.2851 741.653 81.571 742.53 81.74V80.05C743.97 80.16 744.38 80.22 745.07 80.89H747.07C746.725 80.2376 746.553 79.5078 746.57 78.77L751.13 77.93V76.66L755.18 77.08C754.85 78.08 755.04 77.87 754.18 78.35C754.69 78.98 755.393 79.4259 756.18 79.62C755.99 80.99 755.72 80.86 755.18 81.74C753.18 81.53 753.77 81.22 752.18 80.89C752.48 81.74 752.11 81.26 752.69 81.74C752.37 82.74 752.15 82.67 751.69 83.43L746.07 83V83.42L744.07 83.85V83.42H742.55V83C741.09 82.69 741.07 82.25 740 81.74ZM756.72 98.26V98.68H755.2V99.53H754.2L753.69 100.37C752.02 100.84 752.08 99.67 751.69 99.53H748.69C747.53 99.17 746.75 98.18 745.15 97.83C744.99 95.95 744.37 96.13 744.15 94.45L746.15 94.02V93.6C747.451 94.0197 748.791 94.3046 750.15 94.45C750.768 95.6277 751.11 96.9306 751.15 98.26C752.15 98.51 751.58 98.2 752.15 98.68C754.25 98.44 753.91 97.8 755.7 97.41C756.27 96.94 755.7 97.23 756.7 96.99V97.41H757.21C756.91 98.26 757.29 97.78 756.71 98.26H756.72ZM760.27 101.26H758.27V99.53H758.78V99.1H760.3L760.27 101.26ZM760.27 80.93H759.27V79.62H760.27V80.93ZM764.83 114.81H763.3V113.5L764.82 113.08L764.83 114.81ZM768.36 72L766.84 71.57V71.15C765.973 70.9959 765.08 71.1442 764.31 71.57C764.58 69.73 765.31 70.06 766.31 69.03L769.85 70.73C769.27 71.44 769.54 71.32 768.33 71.57L768.36 72ZM769.36 112.23V112.66C769.112 112.552 768.859 112.459 768.6 112.38C768.6 112.04 768.7 111.62 768.76 111.09C769.109 111.246 769.48 111.348 769.86 111.39C769.58 112.23 770 111.75 769.38 112.23H769.36ZM768.84 110.23C768.84 110.23 768.84 110.23 768.84 110.15H770.36C770.41 110.27 770.46 110.39 770.5 110.51L768.84 110.23ZM780 105.46L779 105.35V104.19H777.48V103.34L775.68 103.64C775.61 103.54 775.53 103.45 775.46 103.34C774.89 102.98 775.38 103.4 774.95 102.92H775.46V102.49L777.46 103.34V102.92H780V105.46Z" fill="#557045"/>
</svg>
