<svg width="644" height="300" viewBox="0 0 644 300" fill="none" xmlns="http://www.w3.org/2000/svg">
<path d="M641.39 84.28V83.86L642.91 84.28V83.86H643.2V80.05H642.41V80.47L640.89 80.89C640.73 80.61 640.55 80.33 640.38 80.05C639.7 79.79 638.94 79.82 638.38 79.62C637.97 77.62 637.97 77.92 638.89 76.23H637.89C638.06 75.53 638.23 74.82 638.39 74.12H638.9V73.27L639.9 72.85C639.74 72.56 639.57 72.28 639.4 72C639.71 71.66 640.05 71.75 640.4 71.15L638.88 70.73C638.88 68.4 637.68 65.41 636.88 64.8V64.38H636.38V66.07C634.61 66.38 633.91 67.07 632.32 67.34C632.5 67.91 632.67 68.47 632.83 69.03L631.31 69.46C631.46 71.69 632.41 72.76 632.83 74.54H631.31V73.69H630.8L627.8 70.69C627.38 70.21 627.87 70.62 627.3 70.26C627.22 70.42 627.14 70.56 627.06 70.69H626.28C625.7 72.41 625.28 71.54 624.28 72.81H623.28V74.08C622.28 73.82 622.85 74.14 622.28 73.65H621.77C621.95 73.09 622.12 72.52 622.28 71.96H621.77V70.3C620.38 70.87 619.83 71.67 618.23 72V71.58H617.72C617.89 71.15 618.07 70.73 618.23 70.3H617.72V69.88L619.24 69.46V68.19H619.75C619.18 67.71 619.75 68.01 618.75 67.76V67.34L616.75 67.76C616.92 65.92 617.34 65.85 618.27 64.76H618.77V63.53H619.28C619.45 63.1 619.63 62.68 619.79 62.26L616.79 62.68C617.29 60.14 617.797 57.6 618.31 55.06H617.31C617.31 53.66 617.44 53.15 618.31 52.52V52.09C616.81 52.42 617.06 52.78 615.31 52.94C615.31 51.15 615.06 50.74 613.31 50.4V51.25C612.31 51.5 612.87 51.19 612.31 51.67H610.79V51.25H610C610.17 50.54 610.35 49.83 610.51 49.13L609.51 48.7C608.86 47.31 610.29 46.12 611.03 45.7V45.28L607.03 45.7C607.086 44.9574 606.908 44.2159 606.52 43.58H606.02V41.5H605.51C605.023 41.0429 604.676 40.4568 604.51 39.81C605.259 39.7866 605.973 39.4833 606.51 38.96H609V38.54H608.49C608.66 37.83 608.84 37.13 609 36.42C609.748 36.3993 610.461 36.0997 611 35.58H611.51C610.82 34.31 610.65 35.1 610.51 33.03C606.86 33.22 609.07 33.91 607.51 34.73H605.99V35.15C604.17 35.82 604.62 34.78 603.45 36.42H601.93C601.77 36.14 601.6 35.86 601.43 35.58L598.89 36C599.06 33.3 599.43 34.69 600.89 33.46H601.4V32.19H603.93C603.77 31.76 603.6 31.34 603.42 30.92C603.42 30.83 603.8 30.92 603.93 30.07H605.93V29.65H606.43C606.06 29.04 605.01 28.71 605.43 27.53H605.94V26.68H606.44C606.62 25.68 606.79 24.68 606.95 23.68H605.95C605.53 25.01 604.78 25.21 604.43 26.68L602.43 27.1V28.8C600.59 28.65 600.27 28.47 599.9 27.1C599.19 26.9358 598.514 26.6518 597.9 26.26V24.56H598.41C598.25 24.14 598.07 23.72 597.9 23.29C598.07 22.02 598.25 20.75 598.41 19.48C597.41 19.23 597.97 19.54 597.41 19.06C595.84 17.76 597.04 16.42 596.41 14.4C596.187 14.2843 596.013 14.0925 595.92 13.8595C595.826 13.6265 595.819 13.3677 595.9 13.13C595.9 13.02 596.66 13 596.41 12.28H595.9V11.43H595.4C594.96 10.85 595 10.7 594.89 9.74L591.89 10.59C591.73 9.88 591.56 9.18 591.38 8.47C591.38 8.47 592.06 8.28 591.89 7.62H591.38V6.35H590.88C590.45 5.75 590.5 5.63 590.37 4.66C589.31 5.17 589.28 5.66 587.84 5.93C588.01 7.2 588.18 8.47 588.34 9.74H587.84C587.68 10.59 587.5 11.43 587.33 12.28H587.84C588.431 13.3176 588.773 14.4779 588.84 15.67H585.29V15.25C584.389 14.6236 583.367 14.1912 582.29 13.98C582.46 14.98 582.39 15.06 582.8 15.67H583.31V17.79H583.81C584.155 18.1126 584.423 18.5079 584.596 18.9472C584.769 19.3866 584.842 19.8589 584.81 20.33L582.27 19.9V19.48C581.18 18.8 580.77 18.13 579.27 17.79C579.52 18.71 579.6 18.99 580.27 19.48C580.65 20.63 580.39 20.48 581.79 20.75C581.96 21.6 582.13 22.45 582.29 23.29C580.45 23.14 580.14 22.96 579.76 21.6L577.76 21.18V21.6H577.26C577.43 23.6 577.6 25.55 577.76 27.53H579.28C579.576 28.2519 580.113 28.849 580.8 29.22V30.92H580.3V31.34C578.23 30.87 579.71 31.15 578.78 30.07C578.5 29.75 578.13 29.81 577.78 29.22H577.28V30.92H577.78C577.62 31.76 577.45 32.61 577.28 33.46H573.5V33C572.5 33.85 572.42 35.45 572.5 37.24C571.04 36.93 570.83 36.79 570.5 35.55C569.12 35.25 569.36 34.97 567.97 34.7C568.141 35.7071 568.683 36.6135 569.49 37.24C569.18 38.09 569.56 37.6 568.98 38.09V38.51H567.46V37.66C566.46 37.92 567.02 37.6 566.46 38.09H565.95C566.12 38.51 566.3 38.93 566.46 39.36L567.46 39.78V40.63H567.97V41.05H567.46C567.63 41.76 567.81 42.46 567.97 43.17H566.97V45.29H567.48V47H566.97V47.42H565.45V48.7H564.45C564.29 49.41 564.12 50.12 563.94 50.82H563.44C563.61 52.52 563.78 54.21 563.94 55.9H564.94C564.66 57.83 563.94 58.51 563.94 60.99C563.38 61.35 563.87 60.93 563.44 61.41C560.93 61.8 560.97 61.8 558.88 60.99V61.41H558.37C558.306 62.436 558.48 63.4629 558.88 64.41H559.38C560.11 66.28 558.03 66.59 558.38 67.79L559.38 68.22V70.3L558.38 70.73C558.55 71.29 558.73 71.86 558.89 72.42C556 72.26 556.29 71.42 553.82 71.15C553.52 70.15 553.29 70.22 552.82 69.46C552.25 69.1 552.75 69.51 552.31 69.03H551.8C552 70.46 552.18 70.61 553.32 71.15C553.279 72.1669 553.111 73.1748 552.82 74.15C553.82 73.89 553.25 74.21 553.82 73.72H554.33V75L552.33 75.43V76.7H551.33C551.48 78.13 551.73 78.7 552.85 79.24C552.54 80.08 552.92 79.6 552.34 80.09V80.51H550.7C550.54 80.79 550.37 81.07 550.19 81.36H548.19V81.78L546.19 82.2V84.32C546.097 84.388 545.996 84.4451 545.89 84.49C545.829 84.5801 545.758 84.6639 545.68 84.74H544.68C544.27 86.17 543.4 86.6 541.68 86.86V84.28H542.19C542.03 83.28 541.85 82.28 541.68 81.28L540.16 81.7C539.817 81.0466 539.642 80.318 539.65 79.58H538C537.84 80.15 537.67 80.71 537.5 81.28H536.5C537.007 79.72 537.513 78.1667 538.02 76.62H538.53V74.54H539.04V73.69L540.04 73.27C540.39 72 540.72 70.73 541.04 69.46H540.04V67.34H539.04C538.7 67.76 538.37 68.19 538.04 68.61L536.04 68.19V64.8H535.53V64L534.53 63.58C534.7 62.45 534.87 61.32 535.03 60.19C533.934 60.75 532.721 61.0414 531.49 61.04C531.79 61.88 531.42 61.4 531.99 61.88C531.81 63.32 531.99 63.25 530.47 63.58C530.31 64.28 530.14 64.99 529.97 65.7C529.97 65.7 530.86 66.2 530.47 66.97L528.95 67.81V68.66H528.45V75H526.45V73.27H525.45V77.08L523.93 77.5C524.1 78.63 524.27 79.76 524.43 80.89C524.43 80.89 523.43 80.89 523.93 81.32H524.93V83.86H523.41V82.59H522.41V81.32H521.9V80.89C521.09 80.55 519.58 83.33 519.37 83.43H518.37C518.55 82.59 518.72 81.74 518.88 80.89H519.39C519.36 80.2555 519.158 79.6411 518.806 79.1126C518.454 78.5842 517.964 78.1615 517.39 77.89V77.5H516.88C516.4 78.15 515.88 78.22 515.36 78.78H514.86V81.32L513.86 81.74V86C511.81 86.49 512.86 86.85 511.33 87.69C511.17 89.0967 511 90.5067 510.82 91.92H511.33V92.77C510.76 93.13 511.26 92.77 510.82 93.2C509.917 93.143 509.044 92.8499 508.29 92.35V91.5H507.29C506.98 90.66 507.36 91.14 506.78 90.65V90.23C505.78 91.23 507.13 93.23 506.27 94.47H505.77V95.31H505.26V94.89L503.74 95.31V96.16H504.25C504.277 96.3388 504.24 96.5214 504.147 96.6764C504.054 96.8315 503.91 96.9494 503.74 97.01C503.65 97.95 504.25 97.85 504.25 97.85C504.46 98.48 505.73 105.73 507.14 113.95H505.77V112.68H506.27V112.25H504.75V113.52H502.22C502.06 113.24 501.89 112.96 501.71 112.68H498.71C498.89 111.97 499.06 111.27 499.22 110.56H498.71C498.55 110.14 498.38 109.71 498.21 109.29H498.71V108.87H496.71V108.44H496C496.17 109.15 496.35 109.85 496.51 110.56H496V111.41H495C495.17 112.11 495.34 112.82 495.5 113.52C494.305 113.48 493.111 113.626 491.96 113.95V114.37L495.5 115.22C495.086 116.264 494.577 117.268 493.98 118.22H491.45V116.95H492.45V116.53H490.93V117.38C489 116.9 490.24 117.29 489.41 116.11H488.91V114.84H488.4C488.24 114.55 488.07 114.27 487.89 113.99C487.1 113.51 486.72 113.99 485.89 113.14H485.38C485.61 115.05 486.69 115.89 488.38 116.53C488.22 117.24 488.05 117.94 487.87 118.65H488.87V119.92H488.36V120.34H490.89C491.07 120.76 491.24 121.19 491.4 121.61H485.83V122.88C484.664 123.165 483.446 123.165 482.28 122.88C481.95 122.04 481.61 121.19 481.28 120.34H480.28V119.49C479.277 118.68 478.029 118.233 476.74 118.22V118.65H475.74V119C474.52 119.33 473.83 118.55 473.21 118.58C473.05 119 472.88 119.42 472.7 119.85L471.18 120.27L470.68 121.12H469.68V121.54H467.68C467.784 120.96 467.952 120.393 468.18 119.85H467.68V118.58H468.18V118.15H469.7C469.82 115.8 470.76 115.73 471.22 113.92H469.7L469.2 114.77C468.07 115.61 467.61 116.25 465.65 116.46C465.49 116.88 465.32 117.31 465.14 117.73L460 119C460 118 459.82 116.9 460.5 116.46H462C462.51 115.75 463 115.05 463.52 114.34H465.04C465.12 112.34 465.7 111.67 466.04 110.11H467.04V108.84C465.28 109.23 465.15 109.94 462.99 110.11V111.38C461.428 111.836 460.023 112.715 458.93 113.92C458.027 113.863 457.154 113.57 456.4 113.07V111.38H458.4V111H458.9C458.55 110.508 458.375 109.913 458.4 109.31C460.69 109.05 459.87 108.57 462.4 108.46C462.79 107.31 462.52 107.46 463.92 107.19V106.34L460.92 106.77V105.5L465.48 102.96V101.26C464.48 101.52 465.04 101.2 464.48 101.69C463.794 101.661 463.118 101.515 462.48 101.26C462.18 100.42 462.55 100.9 461.97 100.42V98.26H462.48C463.37 97.17 463.86 97.17 464 95.26C462 95.44 460.86 96.26 460.45 97.8C458.45 98.28 459.16 98.96 456.45 99.07C456.73 96.97 457.54 96.22 458.45 94.84V94H458.95C459.453 93.5558 459.803 92.9645 459.95 92.31C460.95 92.05 460.38 92.37 460.95 91.88H461.46V90.63H460V90.21L456.45 90.63L456.96 89.36H456.45C456.07 88.21 456.33 88.36 454.93 88.09C454.6 88.94 454.26 89.79 453.93 90.63C451.3 90.47 451.42 89.8 448.35 89.79V91.48H447.85V91.9H448.35C449.21 92.9 449.29 91.9 449.87 93.6C450.747 93.7829 451.6 94.0682 452.41 94.45V95.29L451.41 95.72C451.03 96.88 452.41 96.89 452.41 96.99L451.9 98.26H451.39C451.57 98.68 451.74 99.1 451.9 99.53H449.37V99.1H448.37L446.37 96.56H445.86V97.41L446.86 97.83C447.21 98.61 446.36 99.1 446.36 99.1C446.53 99.95 446.7 100.8 446.86 101.65C444.86 101.4 445.11 101.13 443.86 100.38V100H441.33V99.58L439.33 99.15C439.91 100.89 439.57 99.65 440.85 100.43C441.24 100.66 441.17 100.97 441.85 101.27C441.46 102.43 441.73 102.27 440.33 102.54C441.084 103.459 442.154 104.065 443.33 104.24C443.02 105.08 443.4 104.6 442.82 105.08C442.88 107.2 443.73 107.74 445.82 108.08C446.15 109.08 445.96 108.87 446.82 109.35C446.785 109.944 446.614 110.522 446.32 111.04H444.32C443.62 111.17 444.52 111.55 443.81 111.47V111H442.81V109.73C440.66 109.56 440.1 108.81 439.81 107.19H438.29V108.46H437.29C437.582 108.789 437.918 109.075 438.29 109.31V111L440.29 111.85C440.6 112.38 439.56 114.27 440.29 115.66H440.79V116.51L441.79 116.93L441.28 120.32L440.28 120.74C440.07 121.38 441.17 121.32 441.28 121.59V122.44L439.28 122.02V120.7C437.7 120.36 437.01 119.7 435.23 119.43V120.7C434.23 120.96 434.79 120.7 434.23 121.13H433.72V121.55L435.24 121.98C435.08 122.4 434.91 122.82 434.73 123.25C433.33 123.09 433.21 123.25 432.73 122.4V121.55H432.22V121.13H430.7L431.21 124.13H430.7C430.33 125.33 429.8 125.35 429.18 126.25H428.18V124.56L429.18 124.13V123.29C428.655 123.353 428.152 123.539 427.713 123.832C427.273 124.126 426.909 124.519 426.65 124.98C425.786 124.982 424.927 124.84 424.11 124.56C423.786 123.459 423.617 122.318 423.61 121.17H422C421.62 122.36 421.1 122.38 420.48 123.29H419.48C419.1 122.13 419.36 122.29 417.96 122.02C417.4 121.54 417.96 121.84 416.96 121.59C415.84 122.74 413.89 123.3 412.91 124.59H411.91V124.16C411.72 123.91 411.11 124.16 411.41 123.32L413.41 122.47V122L414.93 121.15C414.56 119.9 413.83 120.36 415.44 119.45V119C414.755 119.031 414.08 119.173 413.44 119.42C413.101 118.769 412.929 118.044 412.94 117.31H413.94C414.62 116.04 415.3 114.77 415.94 113.49H416.94V111.8H417.45V111C417.031 111.163 416.678 111.462 416.45 111.85C415.255 111.897 414.061 111.755 412.91 111.43C412.956 110.414 413.124 109.406 413.41 108.43H411.89V107.16C410.89 106.91 411.46 107.22 410.89 106.74H410.38C409.72 105.93 409.98 103.01 410.38 102.08H410.89L411.4 100.81L409.88 100.39V96.14H409.37C409.21 95.72 409.04 95.29 408.86 94.87L406.33 94.45C406.305 94.1089 406.202 93.7782 406.028 93.4834C405.855 93.1887 405.616 92.9377 405.33 92.75V92.33H404.82V93.18L402.29 94.45L401.78 99.1H399.78V100.8H399.28C399.45 102.35 399.62 103.91 399.78 105.46H398.78V106.3L395.23 105.88C394.943 106.84 394.421 107.714 393.71 108.42H393.21C393.38 109.27 393.55 110.12 393.71 110.96H393.21C393.71 112.96 394.217 114.937 394.73 116.89H393.21C393.38 117.74 393.55 118.59 393.71 119.43H392.19V119H391.19C390.86 118.15 390.52 117.31 390.19 116.46L389.19 116.04V115.19H386.66C386.36 116.03 386.73 115.55 386.15 116.04C386.31 117.04 386.15 117.15 386.66 117.73H387.17V118.58L388.17 119C388.88 120.43 387.22 120.93 387.17 121.12C386.97 121.76 388.05 121.69 388.17 121.97V122.81C389.4 123.12 389.55 122.88 389.69 124.08H389.18C389.36 124.51 389.53 124.93 389.69 125.35C390.69 125.61 390.13 125.35 390.69 125.78H391.2C391.04 126.2 390.87 126.62 390.69 127.05L393.23 127.47V129.59L388.67 128.74C388.47 127.11 387.86 126.52 386.13 126.2C385.97 125.5 385.8 124.79 385.63 124.08H385L385.51 122.39C383.67 122.05 383.3 121.33 381.96 120.69C381.627 119.003 381.293 117.31 380.96 115.61C381.29 114.68 382.17 113.82 382.48 112.61H380.48V113.88L377.48 113.45V113.03H376.97V112.61C377.45 112.29 379.18 112.25 379.51 111.76C379.65 111.55 378.51 110.46 379 109.64H379.51C379.995 109.181 380.341 108.596 380.51 107.95C381.51 107.69 380.95 108.01 381.51 107.53H382V105.83H382.51V105.41C381.585 105.655 380.721 106.088 379.97 106.68V107.1H377.97C378.074 106.52 378.242 105.953 378.47 105.41H377.97V101.17C377.067 101.609 376.355 102.363 375.97 103.29H373.97C374.15 102.58 374.32 101.88 374.48 101.17C373.842 100.917 373.166 100.775 372.48 100.75C372.32 99.75 372.15 98.75 371.98 97.75H372.48V93.6C371.258 93.8948 370.071 94.3206 368.94 94.87L368.43 96.14L365.9 97.83V98.26H364.38V98.68L362.86 98.26C363.16 96.55 363.5 96.81 364.38 95.72H364.88C364.72 94.59 364.55 93.46 364.38 92.33H361.84V91.9H361.34C361.51 91.2 361.68 90.49 361.84 89.79L366.4 88.52V88.09L364.4 87.67V88.09L361.86 88.52C361.44 88.04 361.93 88.45 361.36 88.09V86.82L362.88 85.98V85.13H363.38V84.28H363.89L364.4 83.01C364.64 82.71 365.12 83.01 364.9 82.16L363.9 81.74C363.3 80.6 363.82 78.34 362.9 77.5V77.08C361.59 76.72 361.36 78.15 360.9 78.35H359.9C360.07 77.5 360.24 76.66 360.4 75.81H359.4V74.12H357.88V73.27L355.35 73.69C355.73 74.85 355.47 74.69 356.87 74.96C356.991 75.5392 357.158 76.1077 357.37 76.66H356.87V77.93C356.3 78.29 356.8 77.87 356.36 78.35L349.77 77.93C350.25 79.38 350.86 79.02 351.29 80.47L348.76 80.05C349.15 81.2 348.88 81.05 350.28 81.32C349.98 82.16 350.35 81.68 349.77 82.16V82.59C349.149 82.2836 348.462 82.1359 347.77 82.16C348.07 83.01 347.7 82.53 348.27 83.01C347.67 85.01 347.56 84.4 345.74 84.28C346.88 87.1 343.23 90.07 346.25 92.28C346.144 92.9061 345.887 93.4967 345.5 94C344.3 93.94 343.6 94.06 342.97 93.58V92.73L341.45 93.16C341.79 94.28 342.13 95.41 342.45 96.54H343C344 97.54 344.78 97.81 345 99.54H346.52C346.36 99.96 346.19 100.39 346.02 100.81C345.02 101.06 345.58 100.75 345.02 101.23H343.02L342.51 100.39L340.51 99.96L338.51 97.84L337.51 97.42V96.57H337.01C336.32 95.95 336.75 96.02 335.49 95.73L334.86 97H335.37V97.84H336.37V99.54H337.89C337.61 100.6 336.15 101.8 336.89 103.35L337.89 103.77V104.62C336.89 104.37 337.45 104.68 336.89 104.2C335.69 105.01 334.97 106.75 334.35 108.01C333.334 108.031 332.321 107.89 331.35 107.59C331.23 107.11 330.35 105.33 330.85 104.59H331.35V104.17L328.35 103.74C328.26 101.12 328.86 100.3 331.35 99.93V99.51H330.85V97.81H330.34V97.39L328.34 97.81V98.24H326.82V98.66L324.82 98.24C324.99 96.54 325.16 94.85 325.32 93.16H323.8C323.844 92.563 324.019 91.9829 324.31 91.46C323.341 91.1094 322.279 91.1094 321.31 91.46V91.88H320.31V92.31H317.77V94H316.77L317.28 96.12C315.43 96.27 315.12 96.45 314.74 97.81H311.74C311.92 98.52 312.09 99.23 312.25 99.93H313.25V101.63H313.76V102.05H314.27V101.63C315.27 101.77 314.73 101.63 315.27 102.05H317.8V102.47H317.3V102.9H315.78V103.32H314.78V103.74H316.3V104.17C317.51 105.07 316.59 105.17 318.84 105.44V106.71C318.421 106.873 318.068 107.172 317.84 107.56H316.32V108.4H314.8V107.13C314.24 106.77 314.73 107.19 314.3 106.71C312.36 106.77 311.61 107.08 310.75 107.98C310.657 108.048 310.556 108.105 310.45 108.15C310.389 108.24 310.318 108.324 310.24 108.4L312.24 108.83V110.1H315.24C314.9 111.25 314.56 111.05 314.24 112.21C315.61 112.54 315.39 112.32 315.76 113.48H314.76V114.33H313.76V114.76H313.25V114.33H310.72C310.21 111.99 310.62 112.49 311.23 110.52C309.86 110.76 309.32 110.96 308.69 111.79L306.16 111.37V113.48C305.198 113.615 304.309 114.065 303.63 114.76H303.12V115.18C304.18 116 304.06 114.72 304.64 116.45H303.12V116.03C302.05 115.28 302.82 115.18 301.12 114.76C300.64 113.21 299.6 113.21 298.59 112.21H298.08C298.42 113.31 298.6 113.43 299.6 113.91C299.021 115.293 298.514 116.705 298.08 118.14L296.56 118.57V119H295.56V119.42C293.84 119.84 293.93 118.68 293.56 118.58C292.49 118.29 292.13 118.85 291.56 119C291.127 117.779 290.953 116.482 291.05 115.19C292.05 114.93 291.49 115.25 292.05 114.77C292.61 114.29 292.13 114.77 292.56 114.34H291.56C291.86 113.5 291.49 113.98 292.06 113.49V113.07L289.53 113.49V114.34L287 114.77V116.46C286.581 116.623 286.228 116.922 286 117.31H283.83V116.04H283.94V115.61H283.84V114.08L284.4 113.92C284.65 113 284.73 112.72 285.4 112.22V111.8L283.87 112.08L284.38 92.32V91.9H283.88C283.42 91.15 284.23 90.58 284.38 90.21C283.38 90.46 283.95 90.15 283.38 90.63C281.2 90.54 281.67 90.37 280.38 89.79V88.94H279.38C279.55 88.38 279.72 87.81 279.88 87.25H278.36C278.74 86.02 278.91 85.84 280.36 85.55V85.13C281.45 84.79 282.11 85.96 282.36 86.4H284.36L283.36 85.13C284.162 84.7364 285.013 84.4506 285.89 84.28C286.24 83.43 286.57 82.59 286.89 81.74C288.84 81.29 288.48 80.47 290.43 80.05C290.567 79.5089 290.816 79.0026 291.16 78.5634C291.505 78.1242 291.937 77.762 292.43 77.5V76.23L290.91 76.66V77.08L285.84 76.23V75.39H283.84C284.18 74.67 285.42 72.7 284.84 71.58H284.33C283.754 71.0158 283.399 70.2636 283.33 69.46H284.33C284.84 68.89 285.33 68.33 285.85 67.76L287.37 67.34V66.49H284.7C284.94 65.57 285.02 65.29 285.7 64.8V64.38L281.65 64.8V64C283.12 63.69 283.33 63.55 283.65 62.31H284.15V61.46L281.15 62.31V61.88H280.65V59.72L284.19 60.56V59.72L280.14 58L280.65 55.46H281.15V52.94L282.15 52.52V49.13H281.15C280.68 50.9 279.52 51.23 278.62 52.52H277.62V51.25C277.05 50.88 277.55 51.25 277.11 50.82H275.11V49.55C275.746 49.8101 276.423 49.9557 277.11 49.98C276.95 49.27 276.78 48.56 276.6 47.86C277.26 47.63 276.46 47.69 277.11 47.43H278.63V47H279.14C278.8 46.15 278.47 45.31 278.14 44.46C280.4 43.72 282.58 43.18 283.21 41.07L280.68 41.49C280.96 40.02 281.19 40.7 280.68 39.38C281.316 39.1197 281.993 38.9741 282.68 38.95C282.84 37.52 283.09 36.95 284.2 36.41V35.57L282.68 35.99C282.13 37.72 282.35 36.42 281.16 37.26V37.68H280.66C279.66 38.68 281.22 38.51 279.14 38.95V39.38L277.14 38.95C277.14 38.95 277.03 39.28 276.14 39.38V37.68C275.237 38.1186 274.525 38.8727 274.14 39.8L269 39.39C269.557 38.6497 269.903 37.7717 270 36.85C268.94 36.73 268.56 36.85 268 36.42V35.58L266.48 36C266.645 35.3496 266.991 34.7598 267.48 34.3H268V33H268.51V32.16L270.03 31.31V30.89C271.521 31.2556 273.058 31.3971 274.59 31.31V33.85H275.09C275.92 36.27 276.53 34.64 278.09 35.55V36H279.09C278.779 35.4855 278.604 34.9006 278.58 34.3C277.633 33.7614 276.626 33.3351 275.58 33.03V31.76H276.09L280.09 27.95V26.68C278.27 27.38 276.89 28.1 276.09 29.68C273.01 29.61 272.52 28.77 270.51 27.98C270.86 25.74 272.03 25.65 272.03 22.9H269.5V21.6H269C269.12 20.66 269 20.46 269.51 19.9H270V19.06H270.5V18.63C272.1 19.27 271.86 18.84 273.5 18.63V17.79H271.5L271 15.67H270.49V14.4H271C272.43 13.64 273 15.64 275.56 14.82V14.4H276.56V14L277.56 13.57V11.86L279.08 11.01C278.73 9.86 278.4 10.01 278.08 8.89C278.65 8.41 278.31 8.89 278.59 8.05C276.85 8.17 274.71 8.97 273.52 8.05C272.96 7.68 273.45 8.05 273.02 7.62C274.76 6.93 275.52 5.83 277.07 5.08V4.23C276.435 4.49235 275.757 4.63801 275.07 4.66V2.54H273.07V1.27C271.897 1.00873 270.701 0.868002 269.5 0.85V0H268.5V1.69H268L268.51 4.23H267C267.41 5.52 267.95 5.69 269.53 5.93C269.37 6.63 269.2 7.34 269.02 8.05L270.02 8.47V9.32H268.5V8.89C267.21 8.01 268.29 7.89 265.96 7.62C266.27 8.47 265.89 7.99 266.47 8.47V10.16H266V10.59C265 11.08 263.38 10.31 263 10.16C263.42 11.49 264.2 12.06 264.52 13.55C265.366 13.5569 266.205 13.7091 267 14V14.84C265 14.63 265.59 14.32 264 14C263.998 14.5847 264.134 15.1616 264.398 15.6832C264.663 16.2048 265.047 16.6561 265.52 17C265.21 17.84 265.59 17.36 265.01 17.85V18.27L263.49 17.85V18.27H262.49V17.85C260.49 17.85 258.72 17.99 257.93 17C257.43 16.37 258.1 15.74 257.42 15.31H256.42V14.88H254.9V14.4H253.9V14H253.4L252.89 14.84L251.37 14.42C251.37 16.04 251.47 16.19 249.85 16.54C250.19 17.1 251.11 17.31 250.85 18.23H250.35V18.65C250.35 18.71 251.1 18.82 250.85 19.5C250.78 19.73 249.47 19.63 249.85 20.77L250.85 21.2C251.03 22.04 251.2 22.89 251.36 23.74H252.36C252.54 24.44 252.71 25.15 252.87 25.85H251.35C251.19 26.28 251.02 26.7 250.84 27.12C252.9 27.62 251.84 27.98 253.38 28.82V29.67C252.256 29.5578 251.171 29.1951 250.205 28.6084C249.24 28.0218 248.418 27.2261 247.8 26.28H246.28C246.81 27.71 246.9 27.08 247.8 27.97H248.31V29.67C248.54 30.06 248.96 29.67 249.31 30.94H246.7C247.04 32.6267 247.373 34.32 247.7 36.02C247.85 36.28 248.37 36.02 248.7 37.29C248.13 37.77 248.48 37.29 248.19 38.14H249.19C249.37 38.56 249.54 38.98 249.7 39.41H249.19C249.195 40.1433 249.024 40.867 248.69 41.52H245.14C244.43 39.4 242.2 39.22 241.59 36.87C240.59 36.61 241.16 36.87 240.59 36.44H240.08C240.02 39.05 239.96 41.22 241.6 42.37C241.27 42.8 240.93 43.22 240.6 43.64H237.6C237.44 44.35 237.27 45.05 237.09 45.76H238.09C238.14 47.38 237.99 47.53 239.61 47.88V48.72C240.61 48.98 240.04 48.67 240.61 49.15C241.61 49.4 241.05 49.09 241.61 49.57C241.17 49.72 239.13 50.51 238.07 50V49.57H237.56C237.74 51.65 238.64 51.67 239.08 53.38L242.08 54.23V55.9H242.59C242.76 56.33 242.93 56.75 243.09 57.18C244.22 57.07 244.46 57.18 245.09 56.75V56.33H246.09V55.9H247.09L246.58 57.18C246.58 57.18 247.37 57.36 247.09 58.02C246.827 58.1265 246.597 58.2996 246.421 58.5223C246.246 58.745 246.132 59.0096 246.09 59.29C244.27 58.95 243.59 58.43 241.03 58.45C240.81 57.09 240.71 56.78 239.51 56.33H238.51C237.82 55.91 238.51 55.25 238.01 54.63L236.49 54.21V53.79C235.92 54.27 236.27 53.79 235.98 54.63H235.47C235.27 55.11 236.26 56.44 236.47 56.75H236.97V58.45C234.67 58.34 234.81 57.85 233.43 57.18V57.6H233L236.55 61.83H237.55V63.1H237.04V63.53C239.2 63.31 241.64 62.65 243.12 63.95C243.831 64.1152 244.508 64.4028 245.12 64.8V66.07C246.453 66.3446 247.809 66.4853 249.17 66.49C248.83 67.65 248.49 67.49 248.17 68.61H250.17V69C251.032 68.9943 251.888 69.1398 252.7 69.43C252.34 70.0034 251.808 70.4481 251.18 70.7C251.68 72.15 251.83 71.49 252.7 72.39L251.18 72.82V72.39H250.67V72.82C250.065 73.2286 249.385 73.514 248.67 73.66V72.42C247.496 72.6354 246.294 72.6354 245.12 72.42V72H244.61V69.88C240.68 70.51 241.61 69.93 239.04 68.61C238.673 69.4049 238.498 70.275 238.53 71.15C237.57 71.0177 236.68 70.5711 236 69.88H235.49C235.67 69.46 235.84 69.03 236 68.61L233 69C232.5 68.48 231.38 68.18 231 67.73V66.89H230.5C229.81 66.27 230.25 66.31 228.98 66.04C229.1 68.04 229.66 69.39 230.98 70.27H231.98C232.15 70.7 232.32 71.12 232.48 71.55H233.48C233.256 71.9388 232.902 72.2362 232.48 72.39C232.66 72.67 232.83 72.96 232.99 73.24L235.52 72.82V72H236.52V73.27H239.05V74.54H239.56C239.93 75.01 241.01 76.03 242.09 75.81C242.2 75.81 242.26 75.1 243.09 75.39C243.38 75.7182 243.717 76.0013 244.09 76.23C243.79 77.0535 243.79 77.9565 244.09 78.78C243.09 78.61 243.09 78.36 243.09 78.35H240.56V77.93H239.56V77.5H238.04L237.53 76.66H236.53V76.23L235.01 75.81C234.99 77.0956 234.819 78.3744 234.5 79.62C231.5 79.08 229.96 77.35 226.9 77.08C226.965 77.5294 227.137 77.9566 227.401 78.3256C227.666 78.6946 228.015 78.9945 228.42 79.2V79.62H230.42C230.92 79.88 230.85 80.76 231.94 81.32V82.59C233.305 82.7915 234.657 83.072 235.99 83.43L236.5 84.28C237.106 84.6362 237.781 84.8581 238.479 84.9306C239.178 85.0031 239.884 84.9244 240.55 84.7V87.25C237.986 87.2028 235.442 86.7817 233 86V85.57L230 85.15V84.7L228 83.43V82.16H227.5V81.74H226.99V82.59C225.952 82.263 224.947 81.8377 223.99 81.32V80.47C222.29 80.47 222.14 80.47 221.46 79.62H220.95L221.46 82.62C221.46 82.7 220.8 82.77 220.95 83.46H221.46V85.16H221.96V86.85H221.46C221.63 87.42 221.8 87.98 221.96 88.55C219.87 88.55 219.37 88.38 218.96 89.82H223.02V90.66H222.02V91.51H223.02V93.6C222.601 93.7628 222.248 94.0622 222.02 94.45C221.297 94.3247 220.612 94.0338 220.02 93.6V93.18H219.02V92.75L217.5 93.18V92.75L214.5 91.9C214.68 90.4867 214.85 89.0767 215.01 87.67L216.01 87.25V86.82H213.48C213.32 86.4 213.15 85.98 212.97 85.55H210.97V85.13H210.46L210.97 83.43H209.45V80.89H208.45V80.05H206.45V78.78C208.07 78.44 208.31 78.22 208.45 76.66H207.45C207.873 75.6196 208.381 74.6162 208.97 73.66H207.97V75H206.45C206.94 73.55 207.1 74.21 207.97 73.31C207.335 73.0472 206.657 72.9048 205.97 72.89V71.58H206.97V70.73C207.19 70.34 208.42 70.48 207.97 69.46H207.46V66.46C206.89 66.82 207.39 66.46 206.95 66.89L205.43 67.31V69.43L200.87 70.7V72H200.37C200.03 72.3259 199.764 72.7218 199.591 73.1603C199.419 73.5988 199.343 74.0695 199.37 74.54H198.37C197.67 76.69 195.37 77.68 194.32 79.62C193.15 79.79 192.4 80.29 190.77 80.05C190.736 79.9535 190.682 79.8651 190.613 79.7904C190.543 79.7156 190.458 79.6562 190.364 79.6158C190.27 79.5754 190.169 79.5549 190.067 79.5556C189.964 79.5563 189.863 79.5783 189.77 79.62V80.05C186.95 80.72 189.24 80.64 188.25 82.16H187.74C187.24 82.6102 186.89 83.2039 186.74 83.86L184.2 84.28V84.7H183.7V86H183.19V86.42C182.462 86.3117 181.773 86.0191 181.19 85.57V85.15L178.66 84.72V83.88H178.15V83H177.88C177.851 82.9119 177.81 82.8279 177.76 82.75C178.297 81.8831 178.768 80.9772 179.17 80.04H180.69L180.18 77.49H180.69V76.65H183.22L183.73 77.49C184.585 77.7096 185.477 77.7483 186.349 77.6036C187.22 77.459 188.051 77.1342 188.79 76.65C189.37 76.29 188.87 76.65 189.3 76.22C188.662 75.9667 187.986 75.8246 187.3 75.8V75C188.67 74.77 189.21 74.57 189.84 73.73H190.34C190.41 73.08 189 72.73 188.82 72.46V71.62L191.36 71.19C191.43 69.77 191.36 69.64 192.36 69.07C191.922 68.6799 191.403 68.3928 190.84 68.23C191.684 67.5051 192.732 67.0612 193.84 66.96C193.58 66.5 192.91 66.22 192.84 66.11C193.01 64.3647 193.4 62.6478 194 61C193.43 60.63 193.93 61 193.49 60.57C192.587 60.627 191.714 60.9201 190.96 61.42L190.45 62.69H191V63.54H188.46C188.05 66.4 185.76 66.69 185.46 69.47C182.16 69.61 183.56 70.33 181.92 71.59V72C181.555 71.7568 181.219 71.4715 180.92 71.15H178.3C178 70.31 178.37 70.79 177.79 70.3V69.88H176.27V69.46C173.72 69.68 173.63 70.92 173.74 73.27L170.19 72.42V72.85H169.19C168.97 72.23 169.7 72 169.7 72L169.19 70.3C169.8 69.91 169.75 69.3 170.19 69.03H171.19C171.53 68.61 171.87 68.19 172.19 67.76H173.19C172.89 66.92 173.26 67.4 172.69 66.92C172.732 66.3239 172.903 65.7439 173.19 65.22H175.73V63.1C172.97 63.72 171.24 65.1 167.62 65.22C167.618 64.4827 167.793 63.7557 168.13 63.1H170.13V62.26L175.2 60.14V59.29L172.67 59.72V60.14L169.67 59.72C169.94 58.03 170.3 58.25 171.19 57.18H171.69C172.3 56.18 171.19 52.94 171.19 52.94C171.58 52.32 172.55 52.94 173.19 52.52C173.54 51.67 173.87 50.82 174.19 49.98C171.92 50.46 170.1 52.63 169.12 54.21C168.41 54.0411 167.734 53.7537 167.12 53.36V52.09H164.59V53.36H164.08V53.79H162.08C162.25 52.66 162.42 51.53 162.58 50.4C163.291 50.2348 163.968 49.9472 164.58 49.55C164.44 47.55 164.18 46.18 162.05 45.74C161.74 44.89 162.12 45.37 161.54 44.89C161.73 43.46 161.54 43.53 163.06 43.2C163.13 41.53 163.31 41.26 164.58 40.66V39.39L163.06 39.81C162.9 39.11 162.73 38.4 162.55 37.69H161.55V38.54C160.824 38.6565 160.138 38.9482 159.55 39.39V39.81H158V40.23H157.5C157.616 39.3132 157.96 38.44 158.5 37.69H158V37.27C157.095 37.3189 156.221 37.6127 155.47 38.12C154.772 37.1311 154.421 35.9393 154.47 34.73H153.47C153.03 33.24 152.06 33.32 153.47 32.19V31.76C149.95 31.91 151.17 32.97 149.42 34.3C149.52 35.61 149.58 36.64 150.42 37.3L151.94 37.72V39L149.41 39.43V39C148.724 39.0292 148.048 39.1746 147.41 39.43C147.58 41.31 148.19 41.13 148.41 42.82C146.84 42.55 146.28 42.43 145.87 41.12L143.34 40.7L143.85 42.82H144.85C144.798 43.6252 144.44 44.3801 143.85 44.93H143.34V45.36H143.85V50H144.35V51.69L145.87 52.11C146.87 52.74 147.22 53.7 148.41 54.23L147.9 55.92L149.42 56.35L149.93 58.89L147.93 58.47V58H145.4V57.6H144.4V57.18H142.88C141.43 56.45 142.45 55.18 139.88 54.63C139.96 56.72 140.69 56.99 142.42 57.63V60.17C144.62 60.65 145.84 61.46 149 61.44V61.86H149.51C149.35 62.29 149.18 62.71 149 63.13C147.471 63.12 145.945 62.9795 144.44 62.71V61.86H142.44L141.93 61.02H140.93V60.59C139.93 60.11 139.69 60.52 138.93 59.75H138.42V61.44C138.16 61.35 136.52 61.08 136.42 61.02V60.59C136.03 60.35 135.73 60.1 135.42 59.87C135.42 59.69 135.42 59.52 135.42 59.32L133.9 58.9C133.74 57.9 133.57 56.9 133.4 55.9L131.88 55.48V56.33H131.37V56.75H131.88C132.22 58.19 131.58 59.13 131.37 60.14H129.85V59.29H129.34V61H128.34C128.58 61.92 128.66 62.2 129.34 62.69C129.04 63.54 129.41 63.06 128.84 63.54C128.07 63.99 126.9 63.2 126.3 62.27H125.3C125.53 62.83 126.04 62.99 125.81 63.96H125.3V66.5H125.81V68.2H126.31V69L127.31 69.43C127.47 70.59 127.62 71.76 127.77 72.92C127.62 73.31 127.47 73.7 127.31 74.09L125.31 74.51C125.21 74.51 125.15 73.83 124.31 74.09L123.8 74.93H122.8L122.29 72.82H122.8C123.14 71.4 123.48 69.99 123.8 68.58H121.8C121.68 67.58 121.74 67.47 121.3 66.89H120.79V65.65H120V65.22L117.47 65.65V64.8L118.99 64.38V62.26H117.5V60.56H117C117.18 59.72 117.35 58.87 117.51 58.02L116 57.18V53.79C113.82 53.88 114.29 54.05 113 54.63V58H112V60.12C111.581 60.2828 111.228 60.5823 111 60.97H110V63.97C108.834 63.7095 107.645 63.5687 106.45 63.55C106.11 65.19 106.15 65.55 105.95 66.94H104.95V70.75L103.95 71.17V72H102.3V72.42H101.79C102.14 73.27 102.47 74.12 102.79 74.96L103.79 75.39V77.08H102.79C103.08 79.16 104.31 79.59 104.79 81.32H105.79C106.2 82.6 106.74 82.77 108.32 83.01V84.7C105.62 84.48 105.53 83.24 104.27 84.7H103.76V83.43H102.3C102.14 83.01 101.97 82.59 101.79 82.16C100.495 82.18 99.2369 81.7286 98.25 80.89L97.74 79.62H96.74V81.74C98.12 82.03 97.88 82.31 99.27 82.59V85.13H98.76V85.55C97.44 85.91 97.22 84.47 96.76 84.28H95.24V85.55H95.74C95.58 86.68 95.41 87.81 95.24 88.94L93.72 89.36V88.52L92.72 88.09C92.9 87.25 93.07 86.4 93.23 85.55H92.23V84.28L95.23 83.86V82.59C94.23 82.33 94.79 82.65 94.23 82.16H93.73C94.2188 81.3831 94.558 80.5216 94.73 79.62H96.25V79.2L94.25 78.35V77.93H93.75L90.75 80.93H89.23V79.2H88.72V78.78H87.1C86.9043 77.4312 86.1859 76.2136 85.1 75.39V75C84.5436 75.1835 84.0276 75.4721 83.58 75.85H83.08C83.25 75.15 83.42 74.44 83.58 73.73H82V73.31H81.5V72.89H82V71.58C81.3623 71.8333 80.6858 71.9754 80 72C80.17 71.29 80.34 70.59 80.5 69.88C79.8256 69.7797 79.1578 69.6395 78.5 69.46V70.3C78.06 70.71 77.84 70.57 77.5 71.15C76.12 70.86 76.36 70.58 74.97 70.3V72H73.45C73.63 72.38 74.58 74.08 73.96 75H73.45C73.29 75.43 73.12 75.85 72.94 76.27L67.88 75.85V75.43L66.33 75L65.82 77.54H66.33V77.97H65.82C65.8181 78.3158 65.9101 78.6557 66.0862 78.9534C66.2623 79.251 66.5159 79.4952 66.82 79.66C66.82 82.72 66.36 82.88 65.3 84.74C62.83 84.62 62.21 83.98 59.73 83.9C59.6923 84.918 59.5208 85.9267 59.22 86.9H58.22L58.73 91.14L57.21 90.71V90.29C56.61 90.29 56.21 90.29 55.9 90.35L55.69 90.29C55.12 89.82 55.69 90.11 54.69 89.87C54.4728 90.2647 54.1163 90.5642 53.69 90.71C53.69 90.87 53.69 91.01 53.69 91.14H52.69V90.71C52.04 89.94 53.52 88.71 54.69 88.17V87.75H51.69C52.31 85.89 54.17 85.37 54.69 83.51H53.17C53.35 82.0967 53.52 80.6867 53.68 79.28H52.68L52.17 77.16H51.66V78.43H51.16V78.86H49.64L49.13 80.13H48.62V81.4L47.1 82.24V83.51H46.6C46.2736 83.8787 45.8736 84.1751 45.4259 84.38C44.9781 84.585 44.4924 84.694 44 84.7C44.18 85.8267 44.35 86.9567 44.51 88.09C41.51 87.49 42.33 86.09 38.94 85.98V87.67C38.37 88.03 38.87 87.61 38.43 88.09H37.43V88.94H34.89V88.52H34.39C34.69 89.73 35.59 90.52 35.39 91.9H34.88V92.33H35.39C35.807 93.272 35.9823 94.3031 35.9 95.33C37.27 95.66 37.05 95.43 37.42 96.6C36.42 96.35 36.98 96.66 36.42 96.18C35.7351 96.2113 35.0597 96.3531 34.42 96.6C34.59 97.17 34.76 97.73 34.92 98.3H35.43V98.72H34.92C35.03 99.72 35.2 99.55 35.92 99.99C35.15 101.99 35.46 100.42 33.92 101.26V101.69C33.5199 101.899 33.1741 102.199 32.9102 102.565C32.6464 102.931 32.4716 103.354 32.4 103.8H31.94C32.1378 102.687 32.1209 101.547 31.89 100.44C31.3489 100.538 30.8324 100.742 30.37 101.04V100.86L28.85 101.28L27.85 100.86V100H29.37V99.58C29.59 99.29 30.12 99.58 29.88 98.73H29.37C29.21 98.31 29.04 97.88 28.86 97.46H28.36V94.46H27.36C27.54 93.75 27.71 93.04 27.87 92.34C27.1603 92.5089 26.4842 92.7963 25.87 93.19V97H23.34V101.23C22.14 100.96 22.4 101.11 21.82 100.39H21.31V102.08H21.82V102.5C21.43 102.73 21.19 102.89 20.94 103.01C20.9031 102.974 20.8587 102.947 20.81 102.93H19.81V103.29L19.31 103.35L18.8 101.23H18.29C18.47 100.67 18.64 100.1 18.8 99.54H16.8C16.98 98.69 17.15 97.84 17.31 97H16.8V96.57H17.31L17.82 95.3L16.82 94.88V94H17.82C18.13 93.16 17.76 93.64 18.32 93.16V92.73H19.84C20.02 92.45 20.19 92.17 20.35 91.88H23.35C23.51 90 24.13 90.18 24.35 88.5C23.1757 88.6738 22.1072 89.2758 21.35 90.19H18.7V89.77C17.4 88.88 18.51 88.77 16.17 88.5V86.8H14.65V84.28H15.15V83.86L16.67 84.28V83.86H18.19C18.63 83.38 18.13 83.79 18.7 83.43C18.6751 82.2862 18.5037 81.1503 18.19 80.05H16.19V80.47L14.67 80.89L14.16 80.05C13.48 79.79 12.72 79.82 12.16 79.62C11.75 77.62 11.75 77.92 12.67 76.23H11.67C11.84 75.53 12.01 74.82 12.17 74.12H12.68V73.27L13.68 72.85C13.52 72.56 13.35 72.28 13.18 72C13.49 71.65 13.82 71.75 14.18 71.15L12.66 70.73C12.66 68.4 11.46 65.41 10.66 64.8V64.38H10.16V66.07C8.39 66.38 7.69001 67.07 6.10001 67.34C6.28001 67.91 6.44999 68.47 6.60999 69.03L5.09 69.46C5.14008 70.1875 5.29156 70.9044 5.54001 71.59L3 72V70.73H3.51001V70.3L1.51001 70.73V69L2.51001 68.58V67.73C1.13001 68.03 1.36 68.31 -0.0299988 68.58V67.73H0.480011C0.480011 67.13 0.0800012 67.9 -0.0299988 67.31V65.65C-0.859999 65.59 -1.03 65.22 -1.03 65.22C-1.59 65.12 -2.03 66.11 -3.03 65.65V65.22H-3.53C-3.36 65.93 -3.19 66.63 -3.03 67.34H-3.53V69.46L-5.53 69.03L-5.01999 72.85L-7.01999 72.42V71.58H-8.02C-7.54 73.29 -6.58 73.68 -6.5 75.81L-9.5 76.23C-9.5 78.53 -9.12 80.03 -7.5 80.89V82.16H-8V82.59C-9.74 82.19 -9.3 81.69 -11 81.32V83C-13.5 82.86 -13.15 82.15 -15.06 81.73V80.47H-15.56V80.05H-17.08V80.47H-16.58C-16.4277 81.8202 -16.7842 83.1787 -17.58 84.28H-18.09V85.55H-20.09C-19.7699 86.9452 -19.7699 88.3948 -20.09 89.79H-21.09C-20.9666 90.3664 -20.796 90.9316 -20.58 91.48H-21.09V92.75C-22.63 92.46 -22.84 92.04 -24.63 91.9C-24.46 92.75 -24.29 93.6 -24.13 94.45H-24.63V97.83H-24.13V100.38H-24.63V100.8C-25.69 101.11 -25.85 100.32 -26.15 99.95H-26.66C-26.5 100.76 -26.34 101.58 -26.17 102.39C-28.87 101.87 -30.95 101.17 -34.77 101.22V99.1H-34.26V98.68H-33L-32.49 97.41C-32.91 97.28 -34.06 96.55 -35.03 96.99V97.41C-36.046 97.4314 -37.0589 97.2896 -38.03 96.99V94.87C-37.03 94.61 -37.59 94.93 -37.03 94.45H-36.53C-37.2024 92.9892 -37.5438 91.398 -37.53 89.79H-36.53C-36.15 89.52 -38 89.03 -38.05 88.94C-38.35 88.35 -37.54 88.09 -37.54 88.09C-37.54 87.49 -38.12 87.49 -38.54 87.25C-38.37 86.54 -38.2 85.83 -38.04 85.13H-39.56V84.7L-43.1 85.13V86.82C-43.5195 86.9828 -43.8718 87.2822 -44.1 87.67H-45.1C-44.9813 88.5862 -44.6378 89.4588 -44.1 90.21L-47.1 91.06V91.48L-48.62 92.33C-48.44 93.4567 -48.27 94.5867 -48.11 95.72H-47.6V96.56H-47.1C-46.92 96.99 -46.75 97.41 -46.59 97.83L-49.59 98.26C-50.3122 99.7037 -50.6563 101.307 -50.59 102.92C-51.2683 102.899 -51.9408 102.788 -52.59 102.59V101.22H-52.08V100.8C-54.53 100.8 -54.62 101.13 -55.08 101.66H-55.13C-55.4106 101.984 -55.7499 102.252 -56.13 102.45C-56.13 102.56 -56.06 102.64 -56.04 102.71L-56.63 102.88C-56.49 103.537 -56.1388 104.131 -55.63 104.57H-56.14C-56.6 106.3 -57.8 107.04 -58.67 108.38L-61.2 107.96V107.54H-61.71C-61.52 106.04 -60.99 105.48 -60.71 104.15C-59.25 103.81 -59.21 103.47 -58.71 102.45H-58.2C-58.5018 102.134 -58.8371 101.853 -59.2 101.61V99.53H-60.2V98.68L-59.2 98.26C-59.36 97.13 -59.53 96 -59.7 94.87H-59.2C-58.8066 94.2365 -58.6278 93.4931 -58.69 92.75H-59.69V93.6L-63.75 94.87V94.45H-64.25C-64.08 94.02 -63.91 93.6 -63.75 93.18L-62.75 92.75L-63.26 91.06H-62.75C-62.25 89.79 -61.75 88.52 -61.23 87.25H-60.73V86.82H-62.25V86.4C-63.72 86.19 -63.74 87.4 -64.25 87.67H-65.25V85.55H-66.77V84.28C-67.4048 84.543 -68.083 84.6855 -68.77 84.7C-68.29 82.02 -66.41 82.93 -66.24 79.62H-67.24V78.78H-68.76C-68.76 77.62 -68.11 74.13 -68.76 72.85C-68.76 72.85 -70.4 71.74 -70.28 71.15H-69.78V70.3H-71.3C-71.9067 71.1871 -72.2531 72.2263 -72.3 73.3C-72.07 73.57 -71.51 73.3 -71.79 74.15H-72.3C-72.7216 75.0906 -72.897 76.1229 -72.81 77.15C-73.7552 76.6075 -74.7625 76.181 -75.81 75.88V76.3H-76.31C-76.14 77.15 -75.97 78 -75.81 78.85H-75.3V82.23H-75V83.5H-75.51V83.93H-76C-77.9 82.37 -77.66 81.46 -81.57 81.39C-81.02 83.52 -79.66 84.62 -79.57 86.89C-81.78 86.83 -82.35 86.39 -83.12 85.2C-84.32 86.2 -83.75 86.67 -83.63 88.2H-85.15C-84.76 89.76 -83.8 90.44 -84.64 92.01L-85.64 92.44C-85.47 93.14 -85.3 93.85 -85.14 94.56H-85.64V94.98L-88.18 94.56C-87.86 95.4 -88.24 94.92 -87.67 95.4V97.94H-88.18V98.37H-90.18V97.94H-90.69V99.64H-91.2V100H-92.72C-92.54 99.3 -92.37 98.59 -92.21 97.88H-90.69C-90.85 97.46 -91.02 97.04 -91.2 96.61H-92.2C-92.36 96.9 -92.53 97.18 -92.71 97.46L-96.25 97.88L-96.76 98.73H-97.76V99.15L-102.83 98.73C-102.56 95.68 -102.05 97.56 -100.83 96.19C-101.59 94.25 -100.83 94.99 -100.33 93.19H-101.33L-100.82 88.53L-99.82 88.1V87.26L-101.82 88.53V88.95H-103.82V89.37H-104.33V87.67H-105.85V88.09C-108.42 88.09 -111.64 88.23 -113.45 87.67C-113.16 86.02 -112.84 86.16 -111.93 85.13H-111.42V83.86L-110.42 83.43C-110.58 83.01 -110.75 82.59 -110.93 82.16H-110.42V76.66H-111C-111.4 76.04 -111.34 75.94 -111.5 74.96C-112.75 75.46 -113.42 76.13 -114.5 76.66V76.23C-114.92 75.75 -114.42 74.37 -114 73.23H-113.49V72.81H-114V70.73H-115.52C-116.1 72.45 -116.52 71.58 -117.52 72.85H-118.52V74.12C-119.52 73.86 -118.95 74.12 -119.52 73.69H-120.03C-119.85 73.13 -119.68 72.56 -119.52 72H-120.03V70.3C-121.43 70.87 -121.97 71.67 -123.57 72V71.58H-124.08L-123.57 70.3H-124.08V69.88L-122.56 69.46V68.19H-122.05C-122.62 67.71 -122.05 68.01 -123.05 67.76V67.34L-125.05 67.76C-124.88 65.92 -124.47 65.85 -123.53 64.76H-123.03V63.53H-122.52L-122.01 62.26L-125.01 62.68C-124.51 60.14 -124.003 57.6 -123.49 55.06H-124.49C-124.43 53.66 -124.37 53.15 -123.49 52.52V52.09C-124.99 52.41 -124.74 52.78 -126.49 52.94C-126.49 51.15 -126.74 50.74 -128.49 50.4V51.25C-129.49 51.5 -128.93 51.19 -129.49 51.67H-131.01V51.25H-131.52L-131.01 49.13L-132.01 48.7C-132.67 47.31 -131.23 46.12 -130.49 45.7V45.28L-134.49 45.7C-134.58 44.61 -134.54 44.24 -135 43.58H-135.5V41.5H-136.01C-136.497 41.0429 -136.844 40.4568 -137.01 39.81C-136.261 39.7866 -135.547 39.4833 -135.01 38.96H-132.47V38.54H-132.98L-132.47 36.42C-131.722 36.3993 -131.009 36.0997 -130.47 35.58H-129.96C-130.64 34.31 -130.82 35.1 -130.96 33.03C-134.61 33.21 -132.4 33.9 -133.96 34.73H-135.48V35.15C-137.3 35.82 -136.85 34.78 -138.02 36.42H-139.54C-139.7 36.14 -139.87 35.86 -140.04 35.58L-142.58 36C-142.42 33.3 -142.04 34.69 -140.58 33.46H-140.07V32.19H-137.54C-137.7 31.76 -137.87 31.34 -138.05 30.92C-138.05 30.83 -137.67 30.92 -137.54 30.07H-135.54V29.65H-135.04C-135.41 29.04 -136.47 28.7 -136.04 27.53H-135.53V26.68H-135.03C-134.85 25.68 -134.68 24.68 -134.52 23.68H-135.52C-135.94 25.01 -136.69 25.21 -137.04 26.68L-139.04 27.1V28.8C-140.88 28.65 -141.2 28.47 -141.57 27.1C-142.28 26.9358 -142.956 26.6518 -143.57 26.26V24.56H-143.06L-143.57 23.29L-143.06 19.48C-144.06 19.23 -143.5 19.54 -144.06 19.06C-145.63 17.76 -144.42 16.42 -145.06 14.4C-145.281 14.2827 -145.454 14.0908 -145.547 13.8583C-145.641 13.6259 -145.649 13.3678 -145.57 13.13C-145.57 13.02 -144.81 13 -145.06 12.28H-146V11.43H-146.5C-146.94 10.85 -146.9 10.7 -147.01 9.74L-150.01 10.59C-150.17 9.88 -150.34 9.18 -150.52 8.47C-150.52 8.47 -149.83 8.28 -150.01 7.62H-150.52V6.35H-151C-151.43 5.75 -151.38 5.63 -151.51 4.66C-152.57 5.17 -152.6 5.66 -154.04 5.93L-153.53 9.74H-154.04L-154.55 12.28H-154.04C-153.449 13.3176 -153.107 14.4779 -153.04 15.67H-156.6V15.25C-157.502 14.6254 -158.523 14.1931 -159.6 13.98C-159.44 14.98 -159.52 15.06 -159.1 15.67H-158.59V17.79H-158.08C-157.737 18.1139 -157.469 18.5094 -157.297 18.9484C-157.124 19.3874 -157.05 19.8592 -157.08 20.33L-159.61 19.9V19.48C-160.71 18.8 -161.11 18.13 -162.61 17.79C-162.37 18.71 -162.29 18.99 -161.61 19.48C-161.22 20.63 -161.49 20.48 -160.09 20.75L-159.58 23.29C-161.43 23.14 -161.74 22.96 -162.12 21.6L-164.12 21.18V21.6H-164.63L-164.12 27.53H-162.6C-162.31 28.256 -161.771 28.8551 -161.08 29.22V30.92H-161.59V31.34C-163.66 30.86 -162.18 31.15 -163.11 30.07C-163.39 29.75 -163.77 29.81 -164.11 29.22H-164.62V30.92H-164.11L-164.62 33.46H-168.26V33C-169.26 33.85 -169.34 35.45 -169.26 37.24C-170.72 36.93 -170.94 36.78 -171.26 35.55C-172.64 35.25 -172.4 34.97 -173.79 34.7C-173.616 35.7061 -173.075 36.6115 -172.27 37.24C-172.57 38.08 -172.2 37.6 -172.78 38.09V38.51H-174.34V37.66C-175.34 37.92 -174.77 37.6 -175.34 38.09H-175.85L-175.34 39.36L-174.34 39.78V40.63H-173.83V41.05H-174.34L-173.83 43.17H-174.83V45.29H-174.33V47H-174.83V47.42H-176.36V48.7H-177.36C-177.53 49.41 -177.69 50.12 -177.86 50.82H-178.37L-177.86 55.9H-176.86C-177.14 57.83 -177.86 58.51 -177.86 60.99C-178.43 61.35 -177.94 60.93 -178.37 61.41C-180.87 61.8 -180.83 61.8 -182.93 60.99V61.41H-183.44C-183.504 62.436 -183.33 63.4629 -182.93 64.41H-182.42C-181.69 66.28 -183.79 66.59 -183.42 67.79L-182.42 68.22V70.3L-183.42 70.73L-182.91 72.42C-185.8 72.26 -185.51 71.42 -187.98 71.15C-188.29 70.15 -188.51 70.22 -188.98 69.46C-189.55 69.1 -189.06 69.51 -189.49 69.03H-190C-189.82 70.46 -189.63 70.61 -188.48 71.15C-188.524 72.1674 -188.695 73.1753 -188.99 74.15C-187.99 73.89 -188.55 74.15 -187.99 73.72H-187.48V75L-189.48 75.43V76.7H-190.48C-190.33 78.13 -190.08 78.7 -188.96 79.24C-189.26 80.08 -188.89 79.6 -189.47 80.09V80.51H-191.06L-191.56 81.36H-193.56V81.78L-195.56 82.2V84.32C-195.654 84.3918 -195.759 84.4491 -195.87 84.49C-195.87 84.49 -195.87 84.49 -196.06 84.74H-197.06C-197.48 86.16 -198.34 86.6 -200.06 86.86V84.28H-199.55L-200.06 81.28L-201.58 81.7C-201.924 81.0472 -202.096 80.3176 -202.08 79.58H-203.72L-204.23 81.28H-205.23C-204.73 79.72 -204.223 78.1667 -203.71 76.62H-203.21V74.54H-202.7V73.69L-201.7 73.27L-200.7 69.46H-201.7V67.34H-202.7L-203.7 68.61L-205.7 68.19V64.8H-206.21V64L-207.21 63.58L-206.7 60.19C-207.801 60.7452 -209.017 61.0362 -210.25 61.04C-209.94 61.88 -210.32 61.4 -209.74 61.88C-209.93 63.32 -209.74 63.25 -211.26 63.58L-211.77 65.7C-211.77 65.7 -210.88 66.2 -211.26 66.97L-212.78 67.81V68.66H-213.29V75H-215.29V73.27H-216.29V77.08L-217.81 77.5L-217.3 80.89C-217.3 80.89 -218.3 80.89 -217.81 81.32H-216.81V83.86H-218.42V82.59H-219.42V81.32H-219.93V80.89C-220.74 80.55 -222.26 83.33 -222.46 83.43H-223.46C-223.29 82.59 -223.13 81.74 -222.96 80.89H-222.45C-222.481 80.2558 -222.683 79.6419 -223.035 79.1136C-223.388 78.5853 -223.876 78.1624 -224.45 77.89V77.5H-225C-225.49 78.14 -226 78.22 -226.52 78.78H-227V81.32L-228 81.74V86C-230.06 86.49 -229 86.85 -230.54 87.69C-230.71 89.1 -230.87 90.51 -231.04 91.92H-230.54V92.77C-231.11 93.13 -230.62 92.77 -231.04 93.2C-231.946 93.1429 -232.822 92.8498 -233.58 92.35V91.5H-234.58C-234.88 90.66 -234.51 91.14 -235.09 90.65V90.23C-236.09 91.23 -234.74 93.23 -235.59 94.47H-236.1V95.31H-236.61V94.89L-238.13 95.31V96.16H-237.62C-237.593 96.3388 -237.63 96.5214 -237.723 96.6764C-237.816 96.8315 -237.96 96.9494 -238.13 97.01C-238.22 97.95 -237.62 97.85 -237.62 97.85C-237.13 99.35 -237.85 99.48 -236.62 100.4C-236.57 101.71 -236.37 103.53 -237.12 104.21V104.63H-238.68C-238.99 105.48 -238.61 105 -239.19 105.48V105.9C-240.381 105.829 -241.566 105.689 -242.74 105.48L-243.24 104.63H-246.79C-246.479 103.659 -246.308 102.649 -246.28 101.63H-248.28V100.78H-249.28V100L-250.28 99.58C-250.8 98.58 -249.76 97.58 -249.77 97.04V96.61H-250.28V94.87H-250.78V94.45H-250.28V94C-252.55 93.18 -251.39 93.48 -254.33 93.58L-253.82 92.31H-251.82V91.46C-253.66 91.31 -253.98 91.13 -254.35 89.77L-255.87 89.34C-255.74 88.14 -255.66 87.8 -254.87 87.23V86.4C-255.968 86.954 -257.18 87.245 -258.41 87.25C-258 85.92 -257.22 85.35 -256.89 83.86C-257.46 83.5 -256.97 83.86 -257.4 83.43L-260.4 83.86V85.55C-261.4 85.45 -261.86 85.55 -262.4 85.13V84.28L-262 83C-261.76 82.7 -261.28 83 -261.49 82.15L-262.49 81.73C-262.551 81.5896 -262.604 81.4461 -262.65 81.3C-260.34 81.3 -261.13 80.98 -259.95 79.61H-259.45C-258.928 79.1818 -258.574 78.5834 -258.45 77.92C-257.45 77.66 -258.02 77.98 -257.45 77.49H-256.94L-257.45 76.22H-258.45C-258.95 75 -259.46 73.69 -260 72.42H-259.5C-259.71 71.85 -259.69 71.42 -260 72L-261 71.58V71.15H-261.5V70.73L-256.94 69.88C-257.28 69.37 -257.76 69.29 -257.94 69.03V68.19L-258.94 67.76V66.49H-259.46V66.07L-262 66.49C-261.43 64.76 -261.77 66 -260.48 65.22C-260.09 64.99 -260.17 64.67 -259.48 64.38V64C-260.64 63.42 -262.14 64.27 -263.48 63.15H-264V67.8L-261 66.97V68.66L-263.51 69C-263.67 68.6 -263.84 68.19 -264 67.78V329.93H643.2V99H643L643.18 98.08V97H642.89V96.57H643.18V95L642.89 94.88V94H643.18V88.63C642.97 88.63 642.71 88.56 642.39 88.52V86.82H640.87V84.28H641.39ZM286.73 77.5V77.93H289.26C288.78 78.69 288.54 78.59 288.26 79.62L285.26 80.05V80.47L283.74 80.05C283.91 79.62 284.08 79.2 284.24 78.78H283.74V78.35C284.18 78.16 285.86 77.14 286.73 77.5ZM279.63 74.12H280.14C281.066 73.1245 282.334 72.5169 283.69 72.42V73.69L281.69 74.54V75C281.066 74.7028 280.381 74.5588 279.69 74.58L279.63 74.12ZM273.05 11H274.57V11.42C275.57 11.68 275 11.42 275.57 11.85C274.602 12.1648 273.587 12.3069 272.57 12.27L273.05 11ZM148.41 60.56H146.41C146.71 59.72 146.34 60.2 146.92 59.72V59.29H148.44L148.41 60.56ZM-254.39 101.65C-254.951 101.817 -255.47 102.103 -255.91 102.49V100.8H-254.39V101.65ZM-253.39 100.84H-253.89H-253.39ZM-246.29 110.54H-245.79V110.12L-243.79 110.54V112.23L-246.32 111.81L-246.29 110.54ZM-247.29 109.69H-246.78V110.54L-247.29 110.68C-247.363 110.526 -247.402 110.357 -247.404 110.186C-247.406 110.015 -247.37 109.846 -247.3 109.69H-247.29ZM-245.77 113.93L-248.77 113.51C-248.402 113.289 -248.08 113.001 -247.82 112.66H-246.82C-246.598 113.051 -246.243 113.348 -245.82 113.5L-245.77 113.93ZM-242.77 119.43C-243.77 119.18 -243.2 119.49 -243.77 119.01H-244.28V117.74C-243.28 117.99 -243.84 117.68 -243.28 118.16H-242.78L-242.77 119.43ZM-241.77 108.43H-240.2V109.28H-241.72L-241.77 108.43ZM-238.23 114.79C-238.916 114.757 -239.591 114.612 -240.23 114.36L-240.74 113.51C-239.929 113.219 -239.072 113.077 -238.21 113.09L-238.23 114.79ZM-209.3 105L-211.3 105.43V105C-211.87 104.64 -211.38 105.06 -211.81 104.58C-210.801 104.317 -209.909 103.722 -209.28 102.89H-208.28C-208.63 104.07 -209 103.87 -209.3 105ZM-204.23 101.62H-205.23V100.35H-204.23V101.62ZM-203.72 94.42C-205.1 94.09 -204.88 94.32 -205.24 93.15H-203.72V94.42ZM-199.72 124.91C-200.427 124.915 -201.131 124.818 -201.81 124.62C-201.184 124.23 -200.457 124.035 -199.72 124.06V124.91ZM-190 108.42C-191 108.68 -190.44 108.36 -191 108.85H-191.5V108L-189.98 107.58L-190 108.42ZM-184.43 80.47C-185.96 79.9 -188.23 78.62 -187.43 77.47V76.63H-186C-185.787 77.507 -185.242 78.2671 -184.48 78.75L-184.43 80.47ZM-159.1 52.52H-158.1V53.79H-159.1V52.52ZM-162.1 50.82V51.67H-161.59C-161.9 52.67 -162.13 52.6 -162.59 53.36H-164.2C-163.99 52.4844 -163.444 51.7266 -162.68 51.25C-162.63 51.08 -162.78 50.49 -162.18 50.82H-162.1ZM-162.1 67.76V68.19L-164.1 67.76V66.49H-162.1C-162.27 66.92 -162.43 67.34 -162.6 67.76H-162.1ZM-163.1 77.5V78.78C-164.48 78.45 -164.26 78.67 -164.62 77.5H-163.1ZM-162.59 45.32C-162.96 46.54 -163.14 46.72 -164.59 47.01C-164.34 45.79 -164.17 45.61 -162.68 45.32H-162.59ZM-165.59 50.4H-165.09V50H-163.57V51.69L-165.09 52.11V51.69H-165.59V50.4ZM-168.59 36.4H-167.07V37.67H-168.76L-168.59 36.4ZM-166.59 39.79H-167.09C-167.67 40.27 -167.09 39.97 -168.09 40.21V39.79H-168.59C-168.28 38.79 -168.06 38.86 -167.59 38.1H-166.59V39.79ZM-164.2 81.32H-164.71V81.74H-165.22C-165.39 81.32 -165.55 80.89 -165.72 80.47C-164.72 80.72 -165.29 80.41 -164.72 80.89H-164.21L-164.2 81.32ZM-160.2 83.86H-162.73V83.43H-163.24C-162.91 82.43 -163.1 82.64 -162.24 82.16V81.74C-161.68 81.9148 -161.162 82.2043 -160.72 82.59H-160.21L-160.2 83.86ZM-159.69 69.86C-160.375 69.8298 -161.051 69.6879 -161.69 69.44C-161.79 68.2856 -161.615 67.124 -161.18 66.05C-160.18 66.31 -160.75 65.99 -160.18 66.47H-159.67V68.59H-159.17C-159.31 69 -159.47 69.46 -159.64 69.88L-159.69 69.86ZM-159.19 55.46H-157.67V55.88C-157.925 55.9813 -158.207 55.997 -158.472 55.9249C-158.737 55.8528 -158.971 55.6967 -159.14 55.48L-159.19 55.46ZM-153.61 61.39L-155.13 61.81V60.56C-156.87 60.96 -156.44 61.47 -158.13 61.83C-157.96 60.83 -157.8 59.83 -157.63 58.83L-156.1 58C-155.16 56.95 -156.65 57.19 -154.58 56.73C-154.77 58.84 -155.58 59.95 -153.58 60.97L-153.61 61.39ZM-136.34 43.2L-140.34 44.89C-141.34 43.6 -141.27 44.71 -142.34 44.05V43.62H-142.85C-142.67 43.06 -142.5 42.49 -142.34 41.93H-141.34V43.62C-139.96 43.3 -140.18 43.52 -139.82 42.35C-138.654 42.0914 -137.464 41.9507 -136.27 41.93L-136.34 43.2ZM-128.23 67.76H-129.23V66.49H-128.23V67.76ZM-125.23 69.46H-126.75V68.19H-125.23V69.46ZM-118.1 119L-118.61 119.14V118.58L-119.17 118.48C-118.81 118.42 -119.06 118.53 -118.61 118.15L-118.1 118.31V119ZM-110 96.14H-110.51V96.56H-110C-110.51 98.02 -111.7 97.96 -112.54 99.1H-114C-113.601 98.4486 -113.086 97.8759 -112.48 97.41C-112.84 97.13 -112.48 96.82 -113.48 96.99V97.41C-114.14 97.19 -113.48 97.41 -113.99 96.99H-114.49V96.56H-113.99V96.14C-113.802 96.1249 -113.613 96.1552 -113.439 96.2283C-113.265 96.3014 -113.111 96.4151 -112.99 96.56C-112.407 96.4495 -111.874 96.1551 -111.47 95.72H-110V96.14ZM-101.9 116.47H-103.42V115.62H-101.9V116.47ZM-84.16 137.22C-85.36 137.5 -85.11 137.34 -85.68 138.07H-86.19C-85.99 136.7 -85.72 136.83 -85.19 135.95H-84.19L-84.16 137.22ZM-79.6 127.48H-78.6C-78.9 128.33 -78.53 127.85 -79.11 128.33V128.75H-79.61L-79.6 127.48ZM-77.07 143.15H-78.59V142.73L-77.07 142.3V143.15ZM-76.07 132.15L-80.07 132.57C-79.9 131.31 -80.07 131.41 -79.07 130.88C-78.49 130.41 -79.07 130.7 -78.07 130.46C-77.5315 130.98 -76.8181 131.279 -76.07 131.3V132.15ZM-74.55 129.15V129.57L-77.08 129.15V129.57H-78.08C-77.7391 128.758 -77.2195 128.033 -76.56 127.45V127.03C-75.6049 127.451 -74.5948 127.734 -73.56 127.87C-73.84 128.91 -73.66 128.7 -74.53 129.18L-74.55 129.15ZM-73.03 115.15H-75.03C-74.73 114.3 -75.1 114.78 -74.53 114.3V113.88H-73L-73.03 115.15ZM-71.51 113.03H-73V113.45H-75V113.03H-75.51C-75.67 112.33 -75.84 111.62 -76.02 110.91H-75.51V110.49C-73.2 110.55 -73.09 111 -71.51 111.34V113.03ZM-67.96 126.16H-68.96C-68.96 126.04 -69.01 125.92 -69.04 125.8L-67.92 125.95C-67.92 126.07 -67.93 126.13 -67.94 126.21L-67.96 126.16ZM-67.96 89.31H-68.96V86.82L-67.44 87.25L-67.96 89.31ZM-62.39 134.21H-62.89V135.48L-64.41 135.9H-64.92V133.78H-64.41C-63.98 132.42 -63.12 132.29 -62.41 131.24V131.67C-62.15 132.09 -61.76 131.62 -61.41 132.94C-62 133.43 -61.89 133.71 -62.37 134.26L-62.39 134.21ZM-62.39 129.97V130.82H-62.89V130.4C-63.46 129.92 -63.11 130.4 -63.4 129.55L-63.17 129.48L-62.39 129.97ZM-63.15 124.47H-62.89V125.74C-62.95 125.36 -63 124.94 -63.13 124.52L-63.15 124.47ZM-62.89 116.84C-63.72 117.26 -62.97 118.36 -63.4 118.96C-63.6751 119.251 -64.019 119.467 -64.4 119.59C-64.9899 119.187 -65.6858 118.968 -66.4 118.96C-66.3 116.87 -65.63 116.88 -65.4 115.15C-62.71 115.31 -63.5 115.88 -60.84 116C-60.84 116.34 -60.84 116.62 -60.89 116.84H-62.89ZM-58.33 127.43H-60.87V126.16L-59.35 125.74C-58.77 125.26 -59.35 125.56 -58.35 125.31V125.74H-57.85C-58.1963 126.251 -58.3586 126.865 -58.31 127.48L-58.33 127.43ZM-58.33 112.61V113.03C-59.1503 112.673 -60.0002 112.389 -60.87 112.18C-61.23 110.93 -61.7 111.24 -61.87 110.91C-61.65 109.8 -60.54 109.49 -59.87 108.8C-59.0087 108.792 -58.1525 108.934 -57.34 109.22C-57.23 111 -57.1 112 -58.31 112.66L-58.33 112.61ZM-54.24 126.49C-54.17 126.3 -54.09 126.12 -54.02 125.93C-53.9147 126.138 -53.8309 126.355 -53.77 126.58L-54.24 126.49ZM-54.79 123.62V123.2L-53.89 123.35C-53.8417 123.436 -53.8015 123.526 -53.77 123.62H-54.79ZM-43.13 119.81C-43.2231 119.878 -43.3238 119.935 -43.43 119.98C-43.43 119.98 -43.43 119.98 -43.64 120.23H-44.64V118.11H-43.12L-43.13 119.81ZM-36.55 121.5H-37V122L-39 121.57C-38.91 121.8 -38.6 122.07 -38.44 122.42H-39V121.15H-38.49V120.72H-37C-36.64 121.52 -36.76 121.49 -36.5 121.36L-36.55 121.5ZM-34.55 130.82H-35C-34.9563 130.23 -34.793 129.655 -34.52 129.13H-34.18C-34.27 129.73 -34.39 130.3 -34.5 130.87L-34.55 130.82ZM-29.48 113.88H-29.99V113.03C-29.8431 113.188 -29.6787 113.329 -29.5 113.45L-29.48 113.88ZM-28.48 108.37C-28.73 109.25 -29.01 109.66 -29.63 109.87C-30.06 109.27 -30.72 109.12 -31.52 108.8V108C-32.3809 108.002 -33.236 107.86 -34.05 107.58V106.73H-36.59V105L-34.05 104.58V104.16H-31.05V106.27H-30.55V107.12H-30.04V105.85H-29.53V105.43C-27.92 105.76 -27.67 105.99 -27.53 107.55L-30.06 107.12V108.39L-28.48 108.37ZM-25.95 104.56L-27.47 104.14V103.71H-27.99C-27.63 103.463 -27.295 103.182 -26.99 102.87C-25.99 102.61 -26.55 102.93 -25.99 102.44L-25.95 104.56ZM4.45001 72.8H5C5.16 72.4 5.31001 72.01 5.48001 71.62C5.86584 72.5576 6.19968 73.5157 6.48001 74.49H5V73.64H4.48999L4.45001 72.8ZM6.45001 86.8H6C5.36 87.07 6.21 87.32 5.5 87.23V86.8L4.98999 86.52V85.52H6.51001L6.45001 86.8ZM6.95999 82.14L6.03 81.99C6.15761 81.6979 6.31512 81.4197 6.5 81.16L6.95999 81.3V82.14ZM17.09 113.06C16.59 112.63 17.18 112.97 16.58 112.64H17.09V113.06ZM29.67 139.24C29 138.71 29.41 139.03 30.26 138.47C30.1113 138.744 29.9442 139.008 29.76 139.26L29.67 139.24ZM33.3 113.88H33.2L31.33 112.66C31.4375 111.793 31.7837 110.972 32.33 110.29C32.19 111.01 31.38 111.59 33.27 112.68L33.3 113.88ZM39 89.79C39.43 90.27 38.94 89.85 39.5 90.21C39.2 91.06 39.57 90.58 39 91.06C38.9255 91.1368 38.8585 91.2205 38.8 91.31C38.6909 91.3555 38.587 91.4125 38.49 91.48L37.49 89.79H39ZM35.45 101.65C36.78 101.65 37.79 101.57 38.45 102.07C38.06 102.84 37.79 102.41 38.45 102.92V103.34H40V104.61C39.43 104.97 39.93 104.55 39.49 105.03C37.19 104.93 37.33 104.43 35.95 103.76L35.45 101.65ZM43.05 119.43L40.52 119.86C40.7429 120.36 41.0865 120.796 41.52 121.13V121.55H40.52C39.52 119.39 40.43 120.03 38.74 119.55C39.0583 118.95 39.4552 118.395 39.92 117.9C41.07 118.11 41.77 118.43 43.05 118.63V119.43ZM44.05 113.43C43.3552 113.382 42.6677 113.258 42 113.06C41.69 112.22 42.07 112.7 41.49 112.21C41.76 110.43 42.21 110.84 43.01 109.67H44.01C44.25 110.36 44.25 110.57 44.51 110.67C44.2663 111.579 44.1155 112.51 44.06 113.45L44.05 113.43ZM50.1 109.67H48.1V108.4L49.24 108.08C49.24 108.28 49.17 108.51 49.11 108.83H50.63C50.45 109.11 50.28 109.38 50.11 109.69L50.1 109.67ZM56.18 95.67H55.68V95.24H56.18V95.67ZM97.18 97.36H96.68V95.29H97.18C97.1815 96.0269 97.3562 96.7531 97.69 97.41L97.23 97.54C97.2341 97.4968 97.2341 97.4532 97.23 97.41L97.18 97.36ZM98.18 99.9L97.67 98.63H98.18V99.9ZM105.78 89.31C105.156 89.0128 104.471 88.8688 103.78 88.89V87.67H104.29V87.25C104.976 87.2746 105.652 87.4167 106.29 87.67V88.94H105.79L105.78 89.31ZM107.78 94.82C106.41 94.5 106.63 94.72 106.26 93.55H107.78V94.82ZM116.54 81.31H116.4V79.61H117.14C116.86 80.1554 116.687 80.7494 116.63 81.36L116.54 81.31ZM124 81.31H125.52L125.46 81.47C124.988 81.6248 124.496 81.7123 124 81.73V81.31ZM126 109.68C125.13 109.46 125.44 109.68 125.17 109.41L126 109.34V109.68ZM126.51 84.27H126.37C126.18 83.8137 126.03 83.342 125.92 82.86C126.28 83.01 126.44 83.18 127.02 83.43L126.51 84.27ZM127.51 79.19L125.99 78.77L127.55 79.09C127.571 79.1308 127.598 79.1679 127.63 79.2L127.51 79.19ZM128.32 77.49C128.07 76.34 127.97 75.19 128.81 74.33C128.896 74.5318 128.97 74.7389 129.03 74.95C129.61 75.48 129 76.48 128.44 77.5L128.32 77.49ZM135.62 79.61V80.04H135.11C134.95 79.75 134.78 79.47 134.61 79.19L133.7 79.12C133.808 78.4532 133.77 77.771 133.59 77.12C134.014 76.9652 134.369 76.6637 134.59 76.27H134.76C135.2 76.56 135.66 76.84 136.11 77.12V78.39H136.61C136.43 79.35 136.61 79.14 135.74 79.62L135.62 79.61ZM139.17 80.04L138.17 80.46C137.869 79.9455 137.697 79.3655 137.67 78.77H139.67C139.63 79.2 139.46 79.62 139.29 80.05L139.17 80.04ZM142.83 75H145.37V75.43H145.87V76.7L142.87 75.85L142.83 75ZM144.83 78L145.83 78.42C145.53 79.27 145.9 78.79 145.33 79.27V79.69H144.82V79.2H144.31C144.53 78.78 144.7 78.35 144.86 77.93L144.83 78ZM147.36 87.74H146.86C146.63 88.02 146.41 88.3 146.19 88.59H144.69L144.36 88.4C144.56 87.25 144.82 87.3 145.36 86.47H147.36V87.74ZM150.91 90.42C150.75 90.52 150.58 90.61 150.4 90.7V91.13H149.9V90.7H149.53C149.73 90.03 149.72 90.12 150.91 89.86V90.42ZM149.91 83.93L148.39 83.5L147.88 82.66C148.516 82.3999 149.193 82.2543 149.88 82.23V80.89C148.1 81.45 147.66 81.2 145.82 80.89V79.62H146.33V79.2L147.85 78.78V79.62C148.44 80.07 148.85 79.93 149.85 80.05C150.2 81.05 151.11 80.66 152.33 80.31C152.33 80.5 152.33 80.7 152.33 80.89L153.22 81.27C153.155 81.5892 153.025 81.8919 152.84 82.16H152.33L153 83H152.49V83.42C150.92 82.91 150.93 82.67 149.93 83.86L149.91 83.93ZM154 88.52H152.48V87.25H154V88.52ZM155 54.63H153V55.06C152.314 55.0308 151.638 54.8855 151 54.63V52.94C152 53.2 151.44 52.88 152 53.36C154.11 53.12 153.77 52.48 155.55 52.09C155.34 52.94 155.17 53.79 155 54.63V54.63ZM162.1 59.72L161.59 61.83H160.07C159.65 60.47 159.07 60.38 159.07 58.45C160.141 58.7009 161.162 59.1302 162.09 59.72H162.1ZM161.59 63.1C161.29 63.95 161.66 63.47 161.08 63.95V64.38H160.58C160.269 63.8655 160.094 63.2806 160.07 62.68L161.59 63.1ZM166.66 134.68H166.09C166.232 134.426 166.427 134.204 166.66 134.03V134.68ZM166.79 71.88C166.609 71.7215 166.387 71.6174 166.15 71.58C165.64 71.96 166.21 71.95 165.15 72C165.15 70.14 165.01 69.69 163.63 69C163.06 68.53 163.63 68.82 162.63 68.58L161.63 69.85H161.12C161.21 70.22 162.12 70.85 161.63 71.55H161.12V72C160.18 72.44 159 71.71 158.59 71.58V72.42H157.39C157.12 71.15 156.84 69.88 156.56 68.61H157V67.34L158 66.92V65.65C158.366 65.408 158.702 65.1226 159 64.8H160.52V65.22H161.02C160.86 65.65 160.69 66.07 160.52 66.49L162.04 66.92V67.76L164.57 67.34V67.76C166.01 68.08 166.03 68.52 167.1 69.03C167 70 166.9 70.93 166.78 71.88H166.79ZM184.9 98.26L184.39 99.53C182.05 99.53 181.69 99.06 181.39 97.41C183.17 97.81 182.42 98.17 184.89 98.26H184.9ZM181.35 101.26L184.9 101.69V102.11H185.4V103.38H185.91C185.79 104.32 185.91 104.52 185.4 105.07H184.9V105.92H184.39C183.82 106.4 184.39 106.1 183.39 106.34V105.92H182.88L183.39 105.07H182.88C182.3 104.36 182.58 104.49 181.36 104.23C181.601 103.24 181.594 102.206 181.34 101.22L181.35 101.26ZM175.82 79.38L175.38 79.7C175.38 79.55 175.31 79.39 175.27 79.24C175.452 79.2641 175.632 79.2975 175.81 79.34L175.82 79.38ZM175.82 103.8C175.474 104.452 175.298 105.182 175.31 105.92L172.78 105.5V104.23H174.3V103.8H175.82ZM174.25 86.4H175.2C175.075 86.5641 174.922 86.7061 174.75 86.82V87.25C174.53 87.3076 174.3 87.3076 174.08 87.25C174.165 86.9732 174.222 86.6884 174.25 86.4ZM172.73 88.52H173.23L173.61 88.09C173.897 88.4717 174.114 88.9018 174.25 89.36H172.73V88.52ZM170.73 93.6H168.73C168.78 93.18 168.83 92.75 168.89 92.33H169.24C169.149 92.1902 169.049 92.0565 168.94 91.93L169.24 89.36H170.76C171.97 89.64 171.71 89.48 172.28 90.21H172.79V89.79H173.29C173.331 90.5928 173.24 91.3968 173.02 92.17C172.597 92.1075 172.164 92.1629 171.77 92.33V92.75L170.77 93.18L170.73 93.6ZM172.73 118.6L171.21 119.02V117.75C172.21 118 171.64 117.69 172.21 118.17H172.72L172.73 118.6ZM175.73 124.53H174.21V122.83C175.21 123.09 174.64 122.77 175.21 123.26H175.72L175.73 124.53ZM176.73 122.41C177.11 121.26 176.85 121.41 178.25 121.14C177.91 122.28 178.18 122.09 176.78 122.4L176.73 122.41ZM188.89 111.82C186.35 112 184.07 112.66 182.81 113.94C181.907 113.883 181.034 113.59 180.28 113.09V112.24C179.01 112.41 175.2 114.09 174.7 113.94V113.51C173.839 113.516 172.983 113.374 172.17 113.09C172.32 112.36 172.46 111.63 172.61 110.9L174.7 110.55C174.7 110.46 174.65 110.37 174.62 110.3C176.38 110.09 178.42 109.89 179.77 109.7L180.28 108.01L183.28 107.59C183.75 109.04 184.36 108.67 184.8 110.13C186.133 110.405 187.489 110.546 188.85 110.55L188.89 111.82ZM192.94 105.89H190.94V105.47H190.43V105.89C188.3 105.67 188.79 105.29 187.43 104.62V103.77L188.95 103.35V100.8H190.47V101.22C191.487 101.196 192.501 101.341 193.47 101.65C193.593 103.077 193.433 104.515 193 105.88L192.94 105.89ZM196.49 104.2V102.93C197.87 103.25 197.65 103.03 198.01 104.2H196.49ZM202.06 86.41L201.06 86.83V88.95C201.06 88.95 200.76 88.87 200.55 89.8C199.55 90.05 200.12 89.74 199.55 90.22H199.04C199.22 91.2133 199.39 92.2133 199.55 93.22L198.03 93.64V94.49C197.58 95.08 196.83 94.56 196.03 94.91V95.33C194.59 95.99 193.38 96.33 192.49 97.45H190.49V97C189.21 96.26 189.49 96 187.49 95.73L188 93.19L187 92.76V91.9H189.54V91.06L190.54 90.63C190.38 90.21 190.21 89.79 190.03 89.36C190.48 89.19 191.96 88.36 192.57 88.52V88.94H194C192.84 86.88 192.72 84.04 196 83.43C196.58 83.91 196 83.62 197 83.86C197.38 85.01 197.12 84.86 198.52 85.13C198.9 83.98 198.64 84.13 200.04 83.86V81.74L203.58 82.59C203.54 84.62 203.23 85.32 202.11 86.4L202.06 86.41ZM208.65 129.15V128.76H209.16C209.272 128.853 209.367 128.965 209.44 129.09C209.24 129.1 209 129.13 208.7 129.14L208.65 129.15ZM240.11 97V97.84L238.59 98.27V97.84C238.03 97.48 238.52 97.9 238.09 97.42C238.732 97.1568 239.417 97.0144 240.11 97V97ZM227.45 93.19H227.95V92.76H229.47V95.3C228.761 95.1353 228.084 94.8512 227.47 94.46L227.45 93.19ZM226.94 86.83V87.68H225.42C225.26 87.26 225.09 86.83 224.91 86.41L226.94 86.83ZM224.41 90.64H225.93V92.34C224.93 92.08 225.49 92.4 224.93 91.91H224.43L224.41 90.64ZM213.26 98.69H214.78L215.29 99.96H213.77V100.39H213.26V98.69ZM214.78 133.84C213.968 134.209 213.275 134.798 212.78 135.54H211.78V133.42H214.78V133.84ZM211.23 107.16V105.89L214.23 104.62V103.77H214.74C215.61 102.46 215.74 100.72 215.74 98.69L217.26 98.27L218.26 97C218.353 96.958 218.453 96.9357 218.555 96.9343C218.657 96.9329 218.758 96.9525 218.852 96.9919C218.945 97.0314 219.03 97.0897 219.1 97.1634C219.171 97.237 219.225 97.3244 219.26 97.42L221.26 97V97.42H221.76C221.6 97.84 221.43 98.27 221.26 98.69H219.26V99.54H221.79C222.1 98.69 221.72 99.17 222.3 98.69V98.27H222.81C223.38 98.98 223.12 98.86 224.33 99.11C223.05 101.02 221.33 102.45 220.78 105.04C218.35 105.13 217.52 105.39 216.22 106.31C216.06 106.6 215.89 106.88 215.71 107.16H211.23ZM217.31 133.63V133.42H217.82L217.31 133.63ZM217.82 124.95H216.82C216.79 123.803 216.618 122.665 216.31 121.56L217.83 120.71V120.29C218.54 120.457 219.217 120.745 219.83 121.14V122.83C218.32 123.17 218.1 123.61 217.82 124.94V124.95ZM221.37 125.37H219.85V123.68H220.35V123.26H221.35C220.87 124.58 221.09 123.88 221.37 125.36V125.37ZM222.87 130.55C221.12 130.79 220.68 131.47 219.34 132.15L218.45 132.4C218.758 131.802 218.89 131.13 218.83 130.46L220.35 130.03V130.88L222.89 130.46C222.89 130.46 222.88 130.51 222.87 130.54V130.55ZM225.93 135.55H224.93V135.12H224.43V134.28H224.93C224.99 134 225.04 133.71 225.11 133.43H226.45V133.85H226.96C226.64 134.86 226.41 134.77 225.93 135.53V135.55ZM231 122.82H230.5V123.25H229V124.09H228V124.52C228.62 124.52 228.85 125.7 228.51 126.21H228C228.58 126.69 228 126.39 229 126.63C228.69 127.48 229.07 127 228.49 127.48V127.9L227.49 127.48V127.06H226.98V127.48C224.14 127.48 223.98 126.98 222.42 126.21C222.26 125.083 222.09 123.953 221.91 122.82C223.51 123.17 225.06 123.82 226.98 124.09C226.59 122.84 226.16 123.09 225.98 121.55C227.702 121.552 229.412 121.839 231.04 122.4L231 122.82ZM242.14 108H241.63V108.42H241.13V108H239.13L239.64 109.27H240.64C240.48 110.543 240.31 111.813 240.13 113.08H239.63C239.145 113.543 238.799 114.131 238.63 114.78H237.11V114.35H236.61C236.95 115.62 237.29 116.89 237.61 118.16L233.05 117.32V116.89H232.54V115.62C230.71 115.62 230.22 115.69 229.54 114.78C227.83 114.93 227.91 114.78 227.54 116.05H226.54C226.05 115.83 223.84 113.05 224.01 112.23H224.52V111.81H223.52C223.17 113.004 222.659 114.145 222 115.2L220.48 115.62C220.26 115.118 219.916 114.681 219.48 114.35L219.99 112.23C220.99 111.98 220.42 112.29 220.99 111.81C221.99 111.56 221.43 111.87 221.99 111.39C221.355 111.127 220.677 110.982 219.99 110.96C220.33 110.12 220.67 109.27 220.99 108.42L219.99 108V107.15H221.51L221 105.46L222 105.03C222.56 104.14 221.48 104.56 222.51 103.76C224.72 101.07 225.46 103.76 227.58 102.92L229.58 100.38H230.58C230.24 101.22 229.91 102.07 229.58 102.92H229C228.907 103.156 228.907 103.418 229 103.654C229.092 103.889 229.271 104.081 229.5 104.19C229.34 104.61 229.17 105.03 229 105.46H228.49V106.3H228V107.15C229.243 106.426 230.276 105.393 231 104.15V103.3H231.51L232.51 102.03H233.51V101.61H234.51C234.23 103.36 233.46 103.08 232.99 104.61L235.52 104.19C235.7 103.62 235.87 103.06 236.03 102.49L238.56 102.92V104.19L242.11 104.61L242.14 108ZM245.69 86.4L243.69 87.25V86.82H242.69V85.13H242.18C242.215 84.5313 242.39 83.9491 242.69 83.43H244.21V83.86H244.71V85.13H245.71L245.69 86.4ZM250.75 106.3H250.25V106.73H249.74V106.3C248.22 105.37 248.8 105.92 249.23 104.61C250.09 105.1 249.94 104.87 250.23 105.88C250.57 106.42 250.87 105.71 250.75 106.3V106.3ZM262.91 24.14C263.09 24.99 263.26 25.83 263.42 26.68H261.42C261.244 25.4292 260.717 24.2538 259.9 23.29L261.42 22.87V24.14H262.91ZM260.38 39.81V40.23L258.86 40.66C258.98 38.83 259.17 39.22 259.86 38.12C261.058 38.0716 262.256 38.2134 263.41 38.54V40.23L261.41 40.66C261.342 40.4322 261.208 40.2298 261.024 40.0785C260.841 39.9271 260.617 39.8337 260.38 39.81V39.81ZM261.38 42.35C261 43.5 261.26 43.35 259.86 43.62C260.26 42.47 260 42.66 261.39 42.35H261.38ZM257.84 32.61L258.84 33.03V33.46H258.33V33.88H257.83L257.84 32.61ZM256.84 31.34V29.65H258.36V30.92L256.84 31.34ZM259.84 19.9V21.18H259.34C258.77 21.65 259.34 21.36 258.34 21.6C257.517 20.7666 256.478 20.1781 255.34 19.9C255.18 19.2 255.01 18.49 254.84 17.79C257.07 18.3 257.34 19.65 259.87 19.9H259.84ZM248.22 33.46V32.61L251.22 32.19V33.46H248.22ZM241.63 47V46.58H241.13V44.88H244.13V46.15C242.79 46.46 243 46.74 241.63 47ZM246.7 52.93C246.065 53.1928 245.387 53.3352 244.7 53.35V52.09C245.336 52.3501 246.013 52.4957 246.7 52.52V52.93ZM243.7 47.85L244.21 46.58C244.898 46.5808 245.579 46.7238 246.21 47V47.42L248.75 47V47.42L251.75 47.85V49.12C251.115 48.8576 250.437 48.712 249.75 48.69V49.54H247.75V48.28C245 48.66 246 48.35 243.66 47.86L243.7 47.85ZM249.27 61.85V61H247.75V60.57H247.25V59.29L248.25 58.87C248.09 58.16 247.92 57.46 247.74 56.75C248.32 56.39 247.82 56.81 248.25 56.33C250.69 56.43 250.7 56.63 252.81 56.33C252.51 57.17 252.88 56.69 252.3 57.18C252.48 58.44 252.35 58.34 253.3 58.87C253.262 59.465 253.088 60.0433 252.79 60.56H250.79C250.37 61.72 250.63 61.53 249.23 61.83L249.27 61.85ZM254.34 66.94L252.34 67.36V68.21H250.82C251.42 66.49 251.82 67.36 252.82 66.09H254.34V66.94ZM255.34 27.55H254.84V27.1C253.99 26.62 254.14 26.85 253.84 25.83C254.55 25.9995 255.226 26.2868 255.84 26.68V27.1H255.33L255.34 27.55ZM255.85 36.44H257.37V37.29H255.85V36.44ZM256.85 41.52C257.85 41.78 257.29 41.52 257.85 41.95H258.35L257.85 42.8H256.33C256.5 42.35 256.67 41.93 256.83 41.5L256.85 41.52ZM256.85 51.69V50.84H258.37V51.27L256.85 51.69ZM258.35 61C257.35 60.74 257.92 61.06 257.35 60.57H256.84V59.29H257.84C258 59.86 258.19 60.42 258.35 61ZM258.86 105.47H257.34V105H256.83V103.73H258.35V104.16H258.86V105.47ZM263.42 99.54L261.42 99.96V98.26H263.96L263.42 99.54ZM263.93 85.14C262.93 85.39 263.49 85.08 262.93 85.56H261.41V85.14H261.92V83.44H262.43V83L264.43 83.42C264.27 84 264.1 84.56 263.93 85.13V85.14ZM261.39 82.14V80.89H262.39V82.16L261.39 82.14ZM264.94 72H264.43V72.42H264.94V72.85C264.37 73.21 264.87 72.79 264.43 73.27C261.6 73.14 259.57 72.38 257.34 72V70.73H258.34C258.52 71.01 258.69 71.29 258.85 71.58L261.85 71.15V71.58H262.36V71.15C263.22 70.67 263.07 70.9 263.36 69.88L264.88 70.3L264.94 72ZM264.43 22.87H262.43V22.45C261.86 21.97 262.21 22.45 261.92 21.6C262.556 21.3394 263.233 21.197 263.92 21.18V20.33L265.44 20.75C265.25 22.12 265 22 264.43 22.87V22.87ZM276.09 89.79C276.26 90.49 276.43 91.2 276.59 91.9H277.1C276.8 92.75 277.17 92.27 276.59 92.75V93.18C275.38 93.55 275.44 92.42 274.59 92.33V92.75H271C271.11 91.23 271.75 90.11 271 89.36V88.09H271.51V87.67C272.42 87.28 273.1 87.96 273.51 88.09C273.69 87.67 273.86 87.25 274.02 86.82H275.02C274.86 87.67 274.69 88.52 274.52 89.36L276.09 89.79ZM274.57 98.26C274.12 99.26 273.93 100.57 273.05 101.26V101.69C271.82 102.05 271.99 101.01 271.53 100.84H270.53V100H272V98.68L274 97.83V98.26H274.57ZM274.57 69.88H273.05V69H274.57V69.88ZM267.47 46.16C267.881 45.2161 268.056 44.1866 267.98 43.16H268.98C269.31 44.22 269.25 43.86 269.98 44.43V44.85H270.98V45.28L272.5 45.7V46.12C273.058 45.9445 273.575 45.6589 274.02 45.28H275.54C275.38 45.7 275.21 46.12 275.03 46.55C273.03 47 272.33 47.81 269.46 47.82C269.3 47.25 269.13 46.69 268.95 46.12L267.47 46.16ZM269.47 72C269.77 71.15 269.4 71.63 269.98 71.15V70.73C270.33 70.62 272.72 71.5 273.98 71.58C273.82 72.42 273.65 73.27 273.47 74.12H274.47V76.66C273.841 76.9113 273.309 77.3561 272.95 77.93H272.44V76.66C271.423 76.6839 270.409 76.5386 269.44 76.23C269.6 74.23 270.35 74.03 270.44 72H269.47ZM270.47 102.92C271.05 102.56 270.55 102.92 270.98 102.49C271.842 102.483 272.699 102.629 273.51 102.92C273.35 103.62 273.18 104.33 273.01 105.03H271.49C271.18 103.88 270.85 104.08 270.51 102.92H270.47ZM276.53 112.05C275.8 111.89 275.34 111.67 274.53 111.49V110.54C273.666 110.542 272.807 110.4 271.99 110.12C272.031 109.522 272.205 108.941 272.5 108.42L276.55 107.58C276.73 107.88 276.9 108.14 277.06 108.4H276.06V109.25H277.59C277.912 109.91 278.08 110.635 278.08 111.37C277.532 111.482 277.017 111.714 276.57 112.05H276.53ZM291.25 139.76C289.721 139.75 288.195 139.61 286.69 139.34V138.49C288.219 138.507 289.744 138.651 291.25 138.92V139.76ZM293.78 124.09L294.29 122.4H298.29C298.13 121.55 297.96 120.7 297.78 119.86H298.29V118.16C299.29 117.91 298.73 118.22 299.29 117.74C300.306 117.719 301.319 117.86 302.29 118.16C302.265 118.501 302.162 118.832 301.988 119.127C301.815 119.421 301.576 119.672 301.29 119.86V120.28H302.81L303.32 121.13H303.82V121.55L304.82 121.98V123.25H305.32C305.16 123.67 304.99 124.09 304.82 124.52L298.23 123.67V125.36H295.23V124.52C294.23 124.26 294.79 124.58 294.23 124.09H293.78ZM296.31 133.41V133.83H294.79C295.1 132.99 294.72 133.47 295.3 132.99V132.56H296.82C296.56 133.41 296.93 132.93 296.35 133.41H296.31ZM302.9 127.9H301.9V128.33C301.19 128.33 302.1 128 301.39 127.9H299.39V127.06H297.87V125.79C299.99 125.79 300.55 126.05 301.42 124.94C302.281 124.936 303.137 125.078 303.95 125.36C303.84 127.19 303.64 126.8 302.94 127.9H302.9ZM306.45 130.9C305.765 130.869 305.09 130.727 304.45 130.48V128.36H305.45V127.51H307.45L307.96 128.78H308.46C308 130.33 307.46 129.9 306.49 130.87L306.45 130.9ZM309 115.62C308.43 116.1 309 115.8 308 116.05C307.61 115.62 307.38 115.63 307 115.2H306.5V113.93H308C308.362 114.501 308.894 114.945 309.52 115.2C309.1 115.68 309.6 115.27 309 115.62ZM319.13 113.93H317.13V111.81L319.66 112.23C319.5 112.8 319.33 113.36 319.15 113.93H319.13ZM322.13 106.3V106.73C321.327 106.409 320.464 106.262 319.6 106.3V103.3H320.11C320.28 102.88 320.45 102.45 320.61 102.03C321.518 102.077 322.396 102.371 323.15 102.88V104.57H323.65C323.38 105.71 323.2 105.83 322.19 106.3H322.13ZM325.68 102.07V101.65H327.2V102.92H325.2C325.54 102.07 325.16 102.55 325.74 102.07H325.68ZM325.68 116.07H324.16V114.8H325.68V116.07ZM328.68 108.87C328.11 109.34 328.68 109.05 327.68 109.29V108.87H327.17L327.68 107.17L329.68 106.75C329.66 107.93 329.59 108.27 328.78 108.85L328.68 108.87ZM336.28 124.54H335.28C334.85 124.06 335.35 124.47 334.77 124.11V122.4C335.644 122.219 336.494 121.933 337.3 121.55C337.74 122.03 337.24 121.62 337.81 121.98C337.64 123.76 337.19 123.35 336.38 124.52L336.28 124.54ZM336.79 120.3C337.79 120.56 337.22 120.24 337.79 120.72C336.89 120.45 337.46 120.76 336.89 120.28L336.79 120.3ZM344 104.61H342.48V102.92H345C344.69 103.94 344.47 103.85 344 104.61ZM350.59 102.07V103.76C350.02 104.13 350.52 103.71 350.08 104.19C349.177 104.133 348.304 103.84 347.55 103.34V102.07H350.59ZM348 111.39L351 110.96V112.23C350.44 112.6 350.93 112.23 350.5 112.66C349.635 112.664 348.776 112.519 347.96 112.23L348 111.39ZM347.5 97.39C348.22 97.89 348.84 97.87 348 98.66H347.5V98.24H347L347.5 97.39ZM351.55 115.6H350.55V116.03C349.29 116.92 350.31 117.03 348.01 117.3C347.86 115.41 347.23 115.6 347.01 113.91L351.57 114.76L351.55 115.6ZM351.55 110.52L349.02 110.1V109.25L351.02 108.83C351.244 109.219 351.598 109.516 352.02 109.67L351.55 110.52ZM360.67 103.32C359.67 103.58 360.23 103.26 359.67 103.74H359.16V102.47L361.16 102.05L360.67 103.32ZM361.18 99.93L358.64 99.51V98.66H361.18V99.93ZM371.82 101.63C371.26 101.799 370.741 102.085 370.3 102.47C369.102 102.517 367.904 102.375 366.75 102.05C366.725 101.176 366.899 100.307 367.26 99.51C369.74 99.51 370.13 100.01 371.82 100.36V101.63ZM378.43 133C378.06 134.19 377.53 134.21 376.91 135.11C375.749 135.379 374.562 135.524 373.37 135.54V134.27C374.02 133.82 373.88 133.47 374.37 133L375.37 132.57C375.55 132.15 375.72 131.73 375.88 131.3H376.88V130.46H378.4C378.58 131.3 378.75 132.15 378.91 133H378.43ZM411.87 140.59L407.87 140.67C407.87 140.52 407.87 140.37 407.81 140.2C408.81 139.94 408.25 140.26 408.81 139.77C409.827 139.746 410.841 139.891 411.81 140.2L411.87 140.59ZM417.45 125.8H415.45C415.398 124.775 415.572 123.751 415.96 122.8L418.96 123.23C418.63 124.52 418.05 124.85 417.45 125.79V125.8ZM445.82 118.17H444.3V117.33L445.82 117.75V118.17ZM453.42 139.75H452.03H451.9V138.91H453.42V139.75ZM456.42 119.02H453.42V117.75C454.436 117.729 455.449 117.87 456.42 118.17V119.02ZM471.48 139.38L465.54 139.5V138.08H466.05V137.66L469.59 137.23V136.81H470.1V137.23H471.1C471.28 137.94 471.45 138.64 471.61 139.35L471.48 139.38ZM475.17 135.96H474.66V136.39C472.66 136.18 473.25 135.86 471.66 135.54V134.27C473.04 134.59 472.82 134.37 473.18 135.54H475.18L475.17 135.96ZM476.17 124.53L475.17 124.95V127.49C474.357 127.786 473.495 127.928 472.63 127.91C472.47 128.34 472.3 128.76 472.13 129.19H470.61V128.76H470.1C469.53 127.36 471.18 127.85 471.62 127.49V127.07L470.1 126.64C469.77 125.8 469.43 124.95 469.1 124.1L470.62 123.68V124.1H472.62C473.692 123.505 474.698 122.798 475.62 121.99H476.13L476.17 124.53ZM500.49 116.9C499.805 116.869 499.13 116.727 498.49 116.48V114.79L501.49 115.21C501.25 116.23 501 116.13 500.54 116.89L500.49 116.9ZM505.05 118.17V116.9H506.57V116.48H507.08V116.06H504.54V114.36H507C507 114.53 507.05 114.71 507.08 114.88V115.21H507.14L507.35 116.48H507.08C507.386 116.993 507.558 117.574 507.58 118.17H507.64C507.91 119.73 508.17 121.29 508.44 122.81C507.295 122.845 506.152 122.703 505.05 122.39V120.27L507.58 119.85V118.58L505.05 118.17ZM506.05 136.39V135.1L510.36 134.31C510.42 134.68 510.47 135.02 510.53 135.31C509.67 136.2 508.41 136.43 506.11 136.38L506.05 136.39ZM532.46 105L530.46 105.43V105C529.9 104.64 530.39 105.06 529.96 104.58C530.969 104.317 531.861 103.722 532.49 102.89H533.49C533.13 104.07 532.79 103.87 532.46 105ZM538 93.18V94.45C536.63 94.12 536.85 94.35 536.48 93.18H538ZM536.48 100.38H537.48V101.65H536.48V100.38ZM542.06 126.63H541.55C540.79 127.63 540.9 126.16 540.55 125.79C539.39 126.4 538.7 125.26 537 124.94V124.52C537.66 124.17 537.61 124.23 538 123.67C540.09 124.1 538.61 123.9 539.52 124.94C540.238 124.362 541.139 124.06 542.06 124.09V126.63ZM551.68 108.42C550.68 108.68 551.25 108.36 550.68 108.85H550.17V108L551.69 107.58L551.68 108.42ZM557.26 80.47C555.74 79.9 553.47 78.62 554.26 77.47V76.63H555.78C555.996 77.5053 556.541 78.2641 557.3 78.75L557.26 80.47ZM582.59 52.52H583.59V53.79H582.59V52.52ZM579.59 50.82V51.67H580.1C579.79 52.67 579.57 52.6 579.1 53.36H577.58C577.798 52.488 578.342 51.7328 579.1 51.25C579.12 51.08 579 50.49 579.58 50.82H579.59ZM579.59 67.76V68.19L577.59 67.76V66.49H579.59C579.43 66.92 579.26 67.34 579.08 67.76H579.59ZM578.59 77.5V78.78C577.21 78.45 577.43 78.67 577.07 77.5H578.59ZM579.09 45.32C578.73 46.54 578.56 46.72 577.09 47.01C577.42 45.79 577.59 45.61 579.07 45.32H579.09ZM576.09 50.4H576.6V50H578.12V51.69L576.6 52.11V51.69H576L576.09 50.4ZM573.09 36.4H574.61V37.67H573L573.09 36.4ZM575.09 39.79H574.58C574.02 40.27 574.58 39.97 573.58 40.21V39.79H573C573.32 38.79 573.54 38.86 574 38.1H575L575.09 39.79ZM577.62 81.3H577.12V81.72H576.61C576.45 81.3 576.28 80.87 576.1 80.45C577.1 80.7 576.54 80.39 577.1 80.87H577.6L577.62 81.3ZM581.68 83.84H579.14V83.41H578.64C578.97 82.41 578.78 82.62 579.64 82.14V81.72C580.2 81.8948 580.718 82.1843 581.16 82.57H581.67L581.68 83.84ZM582.18 69.84C581.495 69.8087 580.82 69.6669 580.18 69.42C580.087 68.2667 580.258 67.1075 580.68 66.03C581.68 66.29 581.12 65.97 581.68 66.45H582.18V68.57H582.69C582.46 69 582.29 69.46 582.11 69.88L582.18 69.84ZM582.69 55.44H584.21V55.86C583.943 55.994 583.637 56.0294 583.346 55.9598C583.055 55.8903 582.798 55.7204 582.62 55.48L582.69 55.44ZM588.26 61.37L586.74 61.79V60.56C585.01 60.96 585.45 61.47 583.74 61.83C583.92 60.83 584.09 59.83 584.25 58.83L585.77 57.98C586.71 56.93 585.21 57.17 587.29 56.71C587.1 58.82 586.34 59.93 588.29 60.95L588.26 61.37ZM605.42 43.2L601.42 44.89C600.42 43.6 600.5 44.71 599.42 44.05V43.62H598.91C599.09 43.06 599.26 42.49 599.42 41.93H600.42V43.62C601.8 43.3 601.58 43.52 601.94 42.35C603.106 42.0907 604.296 41.95 605.49 41.93L605.42 43.2ZM613.53 67.76H612.53V66.49H613.53V67.76ZM616.53 69.46H615.01V68.19H616.53V69.46ZM632.74 86.82H632.23C631.6 87.09 632.44 87.34 631.73 87.25V86.82C630.88 86.34 631.03 86.57 630.73 85.55H632.73L632.74 86.82ZM633.25 82.16L631.25 81.82V80.92C631.933 80.955 632.606 81.0897 633.25 81.32V82.16Z" fill="#405034"/>
</svg>
