<svg width="650" height="186" viewBox="0 0 650 186" fill="none" xmlns="http://www.w3.org/2000/svg">
<path d="M-1070 62.5208C-1021.1 52.4214 -923.288 6.46175 -825.48 12.0237C-727.672 17.5857 -678.768 92.3799 -580.96 90.3307C-483.152 88.2816 -434.248 9.68185 -336.44 1.77797C-238.632 -6.12591 -189.728 47.5912 -91.9201 50.8113C5.88787 54.0314 54.7919 13.6338 152.6 17.8785C250.408 22.1231 299.312 73.0593 397.12 72.0347C494.928 71.0101 543.832 8.80364 641.64 12.7556C739.448 16.7075 789.23 87.6961 886.16 91.7944C983.089 95.8927 1078.26 44.9566 1126.29 33.2471V185.47H-1070V62.5208Z" fill="#184A7E"/>
</svg>
