<?xml version="1.0" encoding="utf-8"?>
<!-- Generator: Adobe Illustrator 23.0.6, SVG Export Plug-In . SVG Version: 6.00 Build 0)  -->
<svg version="1.1" id="Layer_1" xmlns="http://www.w3.org/2000/svg" xmlns:xlink="http://www.w3.org/1999/xlink" x="0px" y="0px"
	 viewBox="0 0 216 216" style="enable-background:new 0 0 216 216;" xml:space="preserve">
<g>
	<path class="st0" d="M163.4,81.6c4.9,0,9.8-0.1,14.7,0c1.5,0,3.1,0.2,4.5,0.7c2.2,0.8,3,2.7,2.5,4.9c-0.7,2.9-2.7,5-4.6,7.1
		c-11.7,13.4-23.3,26.9-35,40.3c-6.2,7.1-12.4,14.1-18.6,21.2c-4.9,5.6-9.8,11.4-14.7,17c-3.4,3.9-6.9,7.7-10.4,11.6
		c-4.2,4.7-8.2,9.6-12.3,14.3c-3,3.4-6.4,6.4-11.2,7c-5.3,0.6-9.5-2.9-9.4-8.3c0.1-2.5,0.5-5.1,1.3-7.5
		c5.3-15.9,10.8-31.8,16.2-47.6c3.7-11,7.5-22,11.2-33c0.4-1.1,0.9-1.7,2.1-1.9c5.2-1.1,9.1-5.3,9.9-10.6c0.8-5.2-1.6-10.5-6.2-13.3
		c-4.3-2.7-10.3-2.3-14.4,0.8c-6.2,4.6-7.1,13.3-2.1,19.1c0.4,0.4,0.5,1.4,0.4,2c-3,9-6.1,17.9-9.1,26.8c-0.3,0.9-0.8,1.2-1.7,1.2
		c-10.3,0-20.7,0-31-0.1c-1.3,0-2.7-0.3-4-0.7c-2.3-0.7-3.5-2.7-2.6-4.9c0.8-2.1,1.9-4.2,3.4-5.9c7.9-9.2,15.9-18.3,23.9-27.5
		c7.4-8.5,14.8-17.1,22.2-25.6c7.2-8.3,14.4-16.6,21.6-24.9c8.1-9.3,16.2-18.5,24.3-27.8c2.6-3,5.5-5.5,9.4-6.6
		c6.8-1.8,12.1,2.8,11.3,9.8c-0.2,1.9-0.7,3.9-1.3,5.7c-9.2,27.1-18.4,54.1-27.6,81.2c-0.3,0.9-0.8,1.3-1.7,1.4
		c-5.4,1-9.7,5.5-10.4,11c-0.7,5.4,2.2,10.9,7.1,13.3c5.5,2.7,12.2,1.4,15.8-3.1c4.2-5.3,4.2-11.7,0-16.8c-0.6-0.8-0.8-1.5-0.4-2.4
		c3.1-8.9,6.1-17.8,9.1-26.7c0.3-0.9,0.7-1.1,1.6-1.1C152.8,81.7,158.1,81.7,163.4,81.6L163.4,81.6z"/>
	<path class="st0" d="M96.9,100.2c-3,0-5.3-2.3-5.4-5.4c0-2.9,2.4-5.4,5.3-5.5c3.1-0.1,5.6,2.5,5.6,5.6
		C102.4,97.9,100,100.2,96.9,100.2z"/>
	<path class="st0" d="M132.6,120.3c0,3-2.4,5.3-5.5,5.3c-2.9,0-5.5-2.6-5.4-5.5c0.1-3,2.6-5.5,5.5-5.4
		C130.3,114.8,132.6,117.2,132.6,120.3z"/>
</g>
</svg>
